<?xml version="1.0" encoding="UTF-8"?>
<svg version="1.1" xmlns="http://www.w3.org/2000/svg" width="1280" height="1280">
<path d="M0 0 C1.71037122 -0.00407763 3.4207398 -0.00942611 5.13110352 -0.01593018 C9.72619232 -0.02946816 14.32107637 -0.02436175 18.91616821 -0.01479292 C23.75596616 -0.00712546 28.59574814 -0.01426139 33.43554688 -0.01895142 C41.55862532 -0.02438854 49.68162157 -0.01727131 57.8046875 -0.00292969 C67.156935 0.01339285 76.50898619 0.00810289 85.86122894 -0.0084089 C93.93308933 -0.02208233 102.00489109 -0.02391497 110.07675934 -0.0160929 C114.87924917 -0.0114484 119.68164716 -0.01070165 124.48413086 -0.02070236 C129.00203507 -0.02945561 133.51968953 -0.0231999 138.03756714 -0.00601959 C139.68211454 -0.00209889 141.32668348 -0.00311152 142.97122192 -0.00980759 C157.05685229 -0.06181228 170.59553642 1.41429445 183.84375 6.57568359 C185.03025146 7.02850708 185.03025146 7.02850708 186.24072266 7.49047852 C208.97529722 16.41097493 230.57380242 32.16610109 243.28125 53.38818359 C243.93351562 54.44263672 244.58578125 55.49708984 245.2578125 56.58349609 C260.26237274 81.37272027 263.05738167 107.00566915 262.93487334 135.45063543 C262.92338209 139.41257621 262.94110888 143.37441499 262.95477295 147.33633423 C262.97682375 155.06468317 262.97228619 162.79278719 262.95770974 170.52114511 C262.94634513 176.81094105 262.94491752 183.10066911 262.95032883 189.39047241 C262.95109499 190.291034 262.95186116 191.1915956 262.95265054 192.11944693 C262.95424942 193.94981585 262.95587049 195.78018475 262.9575135 197.61055362 C262.97171779 214.71088 262.95546227 231.81107162 262.92851166 248.91137588 C262.90617775 263.53424636 262.91005938 278.15691826 262.93310547 292.77978516 C262.95995803 309.82547546 262.97034499 326.87104812 262.95504415 343.91675663 C262.95345167 345.73980266 262.95187981 347.56284871 262.95032883 349.38589478 C262.94955745 350.28250185 262.94878607 351.17910892 262.94799132 352.1028859 C262.94370258 358.37366325 262.95089931 364.64436499 262.96272659 370.91513062 C262.97685583 378.5735642 262.97273556 386.2317421 262.94632287 393.89014697 C262.93332301 397.78586157 262.92779038 401.68115238 262.94456863 405.57686234 C263.03745414 429.13499748 261.31012157 451.18715713 250.28125 472.38818359 C249.93545898 473.06461914 249.58966797 473.74105469 249.23339844 474.43798828 C244.50524147 483.58363123 239.25791029 491.75173406 232.28125 499.38818359 C231.59675781 500.14228516 230.91226562 500.89638672 230.20703125 501.67333984 C209.48121309 523.3952232 180.31227671 537.72847964 150.06757021 538.73783481 C146.37564221 538.80451417 142.68555132 538.80390096 138.99316406 538.79223633 C137.32869005 538.79795696 135.66421996 538.80492766 133.99975586 538.81303406 C129.52837087 538.83079692 125.05718392 538.82982891 120.58577442 538.82409167 C116.82902647 538.82097419 113.07231519 538.82712064 109.3155725 538.83313042 C100.43919103 538.8471196 91.56290592 538.84566222 82.68652344 538.83422852 C73.58424759 538.8227616 64.48226689 538.83681188 55.38002992 538.86362499 C47.51532005 538.88590975 39.65070196 538.89239057 31.78596282 538.88654858 C27.11073845 538.88320709 22.43570295 538.8854037 17.76050568 538.90279961 C-19.50155225 539.02840964 -19.50155225 539.02840964 -35.71875 534.38818359 C-36.75265869 534.09662384 -37.78656738 533.80506409 -38.85180664 533.50466919 C-41.10825183 532.82978394 -43.27753668 532.06181581 -45.46875 531.20068359 C-46.23767578 530.90661621 -47.00660156 530.61254883 -47.79882812 530.30957031 C-78.21601572 518.24909285 -100.10012975 494.6648688 -113.71875 465.38818359 C-121.17571822 447.81310075 -122.87776673 429.20912596 -122.85246277 410.3354187 C-122.85472833 409.07604811 -122.85699388 407.81667752 -122.85932809 406.51914418 C-122.86538991 403.05791441 -122.8653192 399.59670901 -122.86413372 396.13547516 C-122.86392827 392.38888179 -122.8694621 388.64229596 -122.87419128 384.89570618 C-122.88246764 377.56799407 -122.88524476 370.24029001 -122.88580366 362.91257362 C-122.88628029 356.95048458 -122.88834231 350.98839817 -122.89150429 345.02630997 C-122.90030286 328.08909206 -122.90492495 311.15188048 -122.90417381 294.21466027 C-122.90413386 293.3031925 -122.9040939 292.39172473 -122.90405273 291.45263672 C-122.90401185 290.54004436 -122.90397097 289.627452 -122.90392885 288.68720533 C-122.90352267 273.90793817 -122.91308722 259.12869653 -122.9271911 244.34943675 C-122.94158873 229.14126123 -122.94845942 213.93309812 -122.94759732 198.72491562 C-122.94726651 190.19995999 -122.94996269 181.6750311 -122.96077538 173.15008163 C-122.9699251 165.89023741 -122.97201921 158.63043205 -122.96526595 151.37058453 C-122.96202307 147.67415761 -122.96186218 143.97780506 -122.9706192 140.28138542 C-123.05502413 102.27916778 -123.05502413 102.27916778 -118.59375 87.38818359 C-118.38274658 86.66163574 -118.17174316 85.93508789 -117.9543457 85.18652344 C-108.43413543 53.91781729 -87.61077841 29.2885635 -59.2421875 13.44677734 C-40.26051042 3.52745851 -21.15195047 -0.08612434 0 0 Z M-33.12890625 89.57958984 C-43.00504212 100.81460436 -45.18366226 112.92735848 -45.09970093 127.51928711 C-45.1043809 128.78697465 -45.10906087 130.05466219 -45.11388266 131.3607645 C-45.12630018 134.84505577 -45.12026503 138.32909764 -45.11092401 141.8133893 C-45.10409551 145.5844207 -45.11463345 149.35541123 -45.12286377 153.12643433 C-45.136163 160.50028815 -45.13334042 167.87405006 -45.12462585 175.2479074 C-45.11783465 181.24390269 -45.11693877 187.23987233 -45.1201973 193.23587036 C-45.120657 194.09114179 -45.12111669 194.94641322 -45.12159032 195.82760197 C-45.12254956 197.56538479 -45.1235222 199.30316761 -45.1245081 201.04095042 C-45.13305083 217.31392984 -45.12324542 233.58685846 -45.107107 249.85982955 C-45.09370483 263.80517872 -45.09603324 277.75045296 -45.10986328 291.69580078 C-45.12593886 307.91286292 -45.13222696 324.12988059 -45.12302649 340.34694958 C-45.1220709 342.07813199 -45.12112779 343.8093144 -45.1201973 345.54049683 C-45.11973447 346.39214261 -45.11927164 347.2437884 -45.11879479 348.12124163 C-45.11621083 354.10599532 -45.12056306 360.09072067 -45.12763596 366.07546997 C-45.13607316 373.37466945 -45.13372432 380.67377222 -45.11779372 387.97296071 C-45.10994076 391.69297431 -45.10676821 395.412827 -45.11674118 399.1328392 C-45.12741183 403.17439128 -45.11462123 407.21554145 -45.09970093 411.25708008 C-45.10639309 412.42013452 -45.11308526 413.58318895 -45.11998022 414.78148746 C-45.02527323 428.0536719 -42.11658013 437.92404844 -33.46875 448.01318359 C-21.29954111 458.52295491 -11.59968787 460.84402623 4.23071289 460.77636719 C5.83480689 460.78043802 7.43889808 460.78578276 9.04298401 460.79229736 C13.37763133 460.8059149 17.71206323 460.80069572 22.04671407 460.79116011 C26.5940095 460.78353589 31.14128717 460.79061665 35.68858337 460.7953186 C43.32212619 460.80076757 50.95558177 460.79360653 58.58911133 460.77929688 C67.40230866 460.76296616 76.21529782 460.76826538 85.02849013 460.78477609 C92.61006829 460.79840847 100.19158394 460.80030223 107.77317041 460.79246008 C112.29493682 460.78779395 116.8166055 460.78712961 121.33836555 460.79706955 C125.58940651 460.80576269 129.84018005 460.79967463 134.09119225 460.78238678 C135.64717796 460.77843469 137.20318634 460.779534 138.7591629 460.78617477 C146.46186329 460.81600782 153.23864149 460.83571645 160.28125 457.38818359 C161.168125 456.96279297 162.055 456.53740234 162.96875 456.09912109 C173.15424145 450.21493515 179.42634043 442.49656286 183.28125 431.38818359 C185.20017158 423.15009358 185.56854227 415.0246785 185.53521729 406.59875488 C185.53833727 405.36781931 185.54145725 404.13688375 185.54467177 402.8686471 C185.55122172 399.48697316 185.54892844 396.10552457 185.54269934 392.72386479 C185.53814541 389.06327277 185.54517309 385.40269943 185.55065918 381.74211121 C185.55952363 374.58484456 185.55764436 367.42762002 185.5518339 360.27035177 C185.54730577 354.45027598 185.54670947 348.63021194 185.54888153 342.81013489 C185.54934123 341.56469512 185.54934123 341.56469512 185.54981022 340.29409495 C185.55044971 338.60704513 185.55109813 336.91999531 185.5517554 335.2329455 C185.55745006 319.43639288 185.55091438 303.63986352 185.54015467 287.84331471 C185.53121994 274.30731535 185.53277223 260.7713503 185.54199219 247.23535156 C185.55271011 231.49293564 185.55690081 215.75054008 185.55076766 200.00812101 C185.5501306 198.32749145 185.54950186 196.64686187 185.54888153 194.9662323 C185.54857298 194.13946351 185.54826443 193.31269471 185.54794653 192.46087232 C185.54622415 186.65195452 185.5491248 180.8430497 185.55384064 175.03413391 C185.5594664 167.94905104 185.55789749 160.86401244 185.54727915 153.7789346 C185.54204519 150.16831472 185.5399266 146.55776851 185.54657745 142.94714928 C185.5536945 139.02392918 185.54516123 135.10082811 185.53521729 131.1776123 C185.53967873 130.0495764 185.54414017 128.9215405 185.54873681 127.75932169 C185.47997467 113.7182205 182.8724174 102.85480851 175.09375 91.07568359 C165.0382824 81.46712567 153.52156603 77.27544485 139.73625183 77.25447083 C138.46212936 77.25020584 137.1880069 77.24594086 135.87527466 77.24154663 C134.48089596 77.24189607 133.0865173 77.24235756 131.69213867 77.24291992 C130.20981258 77.23992464 128.72748727 77.23652126 127.24516296 77.23274231 C123.23263312 77.22393563 119.22012463 77.2215656 115.20758605 77.22092652 C112.69666496 77.22021412 110.18574924 77.21807619 107.67482948 77.21542931 C98.9035775 77.20618685 90.13234068 77.20209303 81.36108398 77.20288086 C73.20352657 77.20348133 65.04603534 77.19293273 56.88849467 77.1771372 C49.8691439 77.16403312 42.84981469 77.15869817 35.83045179 77.15933627 C31.64506882 77.15959042 27.45974472 77.15678535 23.27437401 77.14615822 C19.33531007 77.13642886 15.3963607 77.13643098 11.45729256 77.14367485 C10.01824652 77.14471471 8.57919317 77.1423937 7.14015961 77.13631439 C-7.694887 77.07774168 -21.81554696 78.93009516 -33.12890625 89.57958984 Z " fill="#191919" transform="translate(774.71875,191.61181640625)"/>
<path d="M0 0 C4.71117283 0.01404198 9.42232713 0.00736933 14.13351345 0.00386691 C22.03423184 0.00118075 29.93479691 0.01450554 37.83547878 0.03781772 C46.92481902 0.06445425 56.01390387 0.06615676 65.10326982 0.05442935 C73.91162948 0.04359405 82.71989821 0.04988116 91.52825069 0.06398463 C95.24869637 0.06969107 98.96907432 0.06970453 102.68952084 0.06491923 C107.07947008 0.06009302 111.46914496 0.07048052 115.85904217 0.09187388 C117.45479183 0.09736467 119.0505683 0.09797964 120.64631939 0.09292102 C134.59765992 0.0542902 148.43968856 1.50858569 161.69876003 6.12937045 C162.79921658 6.50678378 162.79921658 6.50678378 163.92190456 6.89182162 C187.7105433 15.42553184 210.68843946 32.59033887 223.69876003 54.50437045 C224.26336941 55.37448764 224.82797878 56.24460483 225.40969753 57.1410892 C238.76900482 78.52181461 242.86558376 102.63257827 242.8324728 127.47484469 C242.83473836 128.73744441 242.83700391 130.00004413 242.83933812 131.30090445 C242.84540807 134.7757951 242.84532825 138.25066152 242.84414375 141.72555625 C242.84393851 145.48511891 242.84947022 149.24467404 242.85420132 153.00423312 C242.86248242 160.35948791 242.86525502 167.71473468 242.86581369 175.06999374 C242.86629014 181.05451326 242.8683513 187.03903015 242.87151432 193.02354884 C242.8803146 210.02201242 242.88493477 227.0204697 242.88418385 244.01893557 C242.88412391 245.39146583 242.88412391 245.39146583 242.88406277 246.79172397 C242.88402189 247.70787244 242.88398101 248.62402092 242.88393889 249.56793147 C242.88353278 264.40222763 242.89309513 279.23649838 242.90720113 294.0707872 C242.92159869 309.33317165 242.92846944 324.59554373 242.92760736 339.85793513 C242.92727651 348.41420476 242.92997386 356.97044775 242.94078541 365.52671123 C242.94993509 372.814028 242.95202932 380.10130605 242.94527598 387.38862611 C242.94203293 391.09922284 242.94187282 394.80974548 242.95062923 398.52033496 C243.03498386 436.65247982 243.03498386 436.65247982 238.51126003 451.62937045 C238.18980007 452.7291019 238.18980007 452.7291019 237.86184597 453.85105014 C232.43722764 471.69014154 223.74453193 487.11098394 210.69876003 500.50437045 C209.7215011 501.55450402 208.74497968 502.60532427 207.76907253 503.6567142 C193.74459372 518.50975364 176.49576902 528.50457415 156.94876003 534.37937045 C156.31276882 534.57055453 155.67677761 534.76173862 155.02151394 534.95871615 C143.04794935 538.2917668 131.04142753 538.80055504 118.70364285 538.77902865 C117.0347461 538.78338634 115.36585135 538.78857297 113.6969595 538.79451632 C109.20084059 538.80780559 104.70480626 538.80849621 100.20867157 538.80595303 C96.43688665 538.8048762 92.66511834 538.80978486 88.89333701 538.81455845 C79.9840641 538.82561933 71.07483335 538.82611069 62.16555691 538.82004428 C53.01732419 538.81401027 43.86924551 538.82630885 34.72103906 538.84761435 C26.8284223 538.8653103 18.93585421 538.87121908 11.04321837 538.86797661 C6.34627667 538.86617593 1.64944481 538.86867682 -3.04747868 538.88269114 C-7.47012433 538.89539548 -11.89253246 538.89320817 -16.31517506 538.88028026 C-17.92382868 538.87794188 -19.53249969 538.88054873 -21.14113331 538.88890338 C-56.28746581 539.05805442 -85.74546028 525.72105737 -110.61520481 501.20896029 C-132.16921981 479.41774501 -142.63523749 448.88164892 -142.57539463 418.68164706 C-142.57985948 417.33800656 -142.58517756 415.99436868 -142.59126335 414.65073454 C-142.60530475 410.9961748 -142.60710931 407.34170065 -142.60666645 403.68711782 C-142.60832706 399.73047836 -142.62141662 395.77387293 -142.63285923 391.81725192 C-142.65561385 383.1824557 -142.6636197 374.5476842 -142.66868567 365.91286206 C-142.6719542 360.50958305 -142.67848362 355.10631108 -142.68568707 349.70303607 C-142.70524148 334.70930152 -142.72165216 319.71557348 -142.7245636 304.72182536 C-142.72475117 303.76415898 -142.72493874 302.8064926 -142.72513199 301.81980603 C-142.72549822 299.8788271 -142.72586191 297.93784816 -142.7262231 295.99686922 C-142.72640591 295.03351455 -142.72658873 294.07015988 -142.72677708 293.07761264 C-142.72695763 292.11306627 -142.72713817 291.1485199 -142.7273242 290.15474485 C-142.73086176 274.54468608 -142.75786325 258.9347656 -142.79527497 243.32475473 C-142.8334783 227.25431841 -142.85272196 211.1839505 -142.85302311 195.11346781 C-142.85360502 186.10820265 -142.86192371 177.10310246 -142.89102077 168.09788013 C-142.91569633 160.42642435 -142.92270975 152.75519371 -142.90777325 145.08370884 C-142.90066946 141.17994066 -142.90117364 137.27661554 -142.92418385 133.37289882 C-143.13406499 95.49083678 -134.8237014 62.58793519 -107.98873997 34.81687045 C-76.84460554 4.72253831 -41.54172783 -0.15494951 0 0 Z M-55.05123997 92.25437045 C-64.55452565 103.89644664 -65.61259781 116.7710243 -65.55520725 131.33176303 C-65.55832723 132.56678215 -65.56144722 133.80180127 -65.56466174 135.07424521 C-65.57121197 138.46732045 -65.56891821 141.86017112 -65.5626893 145.25323224 C-65.55813556 148.92609429 -65.56516297 152.59893772 -65.57064915 156.27179599 C-65.57951379 163.45312605 -65.57763424 170.63441416 -65.57182387 177.81574583 C-65.56729581 183.65536776 -65.56669941 189.49497798 -65.5688715 195.33460116 C-65.56917796 196.1676697 -65.56948443 197.00073825 -65.56980018 197.85905129 C-65.57043967 199.55173811 -65.5710881 201.24442492 -65.57174537 202.93711174 C-65.57744008 218.78659945 -65.57090426 234.63606399 -65.56014463 250.4855479 C-65.55120991 264.067029 -65.55276219 277.6484759 -65.56198215 291.22995639 C-65.57269998 307.02511 -65.57689084 322.82024333 -65.57075763 338.61540008 C-65.57012057 340.30164663 -65.56949183 341.98789318 -65.5688715 343.67413974 C-65.56856295 344.50367264 -65.5682544 345.33320554 -65.56793649 346.18787581 C-65.56621409 352.01633025 -65.56911484 357.84477177 -65.5738306 363.67322421 C-65.57945626 370.7820956 -65.57788769 377.89092286 -65.56726912 384.99978924 C-65.562035 388.62256063 -65.55991682 392.24525861 -65.56656742 395.86802936 C-65.57368408 399.8043865 -65.56515151 403.74062501 -65.55520725 407.67697787 C-65.5596687 408.80890472 -65.56413014 409.94083158 -65.56872678 411.10705924 C-65.49231167 426.76191864 -62.71082508 438.65662314 -51.76608372 450.23874545 C-39.45661258 461.5533148 -24.92839427 461.65510544 -9.08346653 461.64963412 C-7.6648255 461.65263159 -6.24618529 461.65603547 -4.82754612 461.65981174 C-0.99674545 461.66859657 2.83403284 461.67098752 6.66484261 461.67162752 C9.06490654 461.67234121 11.46496489 461.67448156 13.86502743 461.67712474 C22.25719974 461.68636023 30.64935624 461.69046192 39.04153347 461.68967319 C46.83325827 461.68907303 54.62491371 461.69961734 62.41662097 461.71541685 C69.13202764 461.72854299 75.84741178 461.73385495 82.56283116 461.73321778 C86.56216296 461.73296426 90.56143304 461.73573391 94.56075191 461.74639583 C98.3266696 461.75616259 102.09246765 461.75609803 105.85838985 461.74887919 C107.87757359 461.74735516 109.89675754 461.75561991 111.91592312 461.76431918 C126.4205486 461.71498976 139.17881373 460.0899082 151.07376003 451.19187045 C162.29431903 439.70415529 165.00954878 427.26534051 164.95945644 411.73403049 C164.96328199 410.46890622 164.96710754 409.20378195 164.97104901 407.90032059 C164.98128975 404.40930265 164.97915726 400.91838786 164.97486842 397.42736161 C164.97239401 393.65423774 164.98142424 389.88113825 164.98890591 386.10802341 C165.00163542 378.7237523 165.00344876 371.33951758 165.00110564 363.95523735 C164.99932025 357.95059259 165.00107686 351.94595885 165.00533009 345.94131541 C165.00622287 344.65779856 165.00622287 344.65779856 165.00713369 343.34835208 C165.00834548 341.60984466 165.00955962 339.87133724 165.01077607 338.13282982 C165.02164502 321.83984734 165.01949225 305.54688558 165.01339122 289.25390194 C165.00822347 274.36367781 165.01947489 259.47351913 165.03848944 244.58330794 C165.05788346 229.27807093 165.06612104 213.97286485 165.06236619 198.66761547 C165.06045641 190.08131502 165.06291984 181.49507026 165.07708073 172.90877986 C165.08901549 165.59853466 165.09037602 158.28837941 165.07829056 150.97813293 C165.07241635 147.25205999 165.07126175 143.52615143 165.08329296 139.8000896 C165.09621208 135.75181763 165.08565267 131.70393409 165.07298183 127.65566134 C165.08035612 126.49056055 165.0877304 125.32545975 165.09532815 124.12505287 C165.01863122 112.43731624 162.99098029 102.79348232 155.69876003 93.50437045 C155.08258816 92.67034701 154.46641628 91.83632358 153.83157253 90.9770267 C146.68355518 82.69003955 136.03869245 78.78931611 125.42311954 77.69703364 C119.77745329 77.2977794 114.12224429 77.35715569 108.46511745 77.35910678 C107.04485391 77.35610935 105.62459118 77.35270548 104.20432949 77.34892917 C100.36946387 77.34014476 96.5346206 77.33775342 92.69974589 77.33711338 C90.29767964 77.33639976 87.89561897 77.33425955 85.49355412 77.33161616 C77.09605076 77.32238138 68.69856322 77.31827896 60.30105495 77.31906772 C52.50135778 77.31966812 44.70172986 77.30911888 36.9020502 77.29332405 C30.18156366 77.28020472 23.46109964 77.27488565 16.74060041 77.27552313 C12.73738813 77.27577681 8.73423749 77.27299781 4.73103809 77.26234508 C0.96266119 77.25258968 -2.80559609 77.2526353 -6.57397747 77.25986171 C-8.59693202 77.26138829 -10.61988676 77.25311328 -12.64282322 77.24442172 C-28.86399006 77.29965056 -43.55967156 79.88844358 -55.05123997 92.25437045 Z " fill="#191919" transform="translate(385.3012399673462,498.4956295490265)"/>
<path d="M0 0 C1.72284737 -0.00599524 3.44569208 -0.01280305 5.16853333 -0.02035522 C9.82198353 -0.03792735 14.47536003 -0.04270705 19.12884021 -0.0439868 C22.04657985 -0.04541467 24.96430115 -0.04969639 27.88203621 -0.05498123 C38.0912913 -0.07345692 48.30049437 -0.08165549 58.50976562 -0.08007812 C67.97603328 -0.07887944 77.44207194 -0.09993447 86.90828174 -0.13156545 C95.0743644 -0.15786437 103.24037294 -0.16843966 111.40649754 -0.16716731 C116.26624785 -0.16666138 121.1257947 -0.17213636 125.98550224 -0.19352341 C166.52891055 -0.35957438 199.24347696 5.20971557 229.72875977 34.29052734 C230.53571289 35.03302734 231.34266602 35.77552734 232.17407227 36.54052734 C252.93854002 56.21974417 263.84693631 86.20902011 264.83648682 114.35458374 C264.89297926 117.78793627 264.91967221 121.22001084 264.93188477 124.65380859 C264.93758484 125.92161667 264.94328491 127.18942474 264.94915771 128.49565125 C264.95856661 131.17251144 264.96548362 133.84926076 264.96899414 136.52612305 C264.97335223 139.22450479 264.98715337 141.922562 265.01000977 144.62084961 C265.31938693 184.06402065 259.03817261 218.84320713 230.41625977 247.97802734 C205.54444318 272.48238662 175.6449155 282.44819524 141.23193359 282.43579102 C139.56861293 282.43878725 137.90529295 282.44219085 136.24197388 282.44596863 C131.74377264 282.45476651 127.24559046 282.45714499 122.74738145 282.45778441 C119.93054589 282.45849742 117.1137151 282.4606365 114.29688072 282.46328163 C104.45117259 282.47252181 94.60547795 282.47661827 84.75976562 282.47583008 C75.61272817 282.47522996 66.46574982 282.48577225 57.31872731 282.50157374 C49.44068242 282.51469331 41.56265673 282.52001211 33.68460101 282.51937467 C28.9905115 282.51912094 24.29647454 282.52190263 19.60239601 282.53255272 C15.18232252 282.54230811 10.76235102 282.54226245 6.34227371 282.53503609 C4.73075014 282.53399936 3.11921996 282.53629812 1.5077076 282.54239655 C-25.12618334 282.63656477 -52.24234572 276.63074692 -73.27124023 259.29052734 C-73.80265625 258.8601416 -74.33407227 258.42975586 -74.8815918 257.98632812 C-100.31165135 237.2990097 -116.24038746 210.10946057 -120.27124023 177.29052734 C-120.72616491 171.69347608 -120.6963213 166.08953793 -120.66967773 160.47802734 C-120.67170899 158.92879094 -120.67462904 157.37955548 -120.67837524 155.83032227 C-120.68274935 152.61351242 -120.67652916 149.39695573 -120.66235352 146.18017578 C-120.6452645 142.10953093 -120.65513256 138.03948002 -120.67307091 133.96885681 C-120.68404364 130.77872447 -120.6804016 127.58872707 -120.67268753 124.39859009 C-120.67072251 122.89987106 -120.67301032 121.40113872 -120.68012619 119.9024353 C-120.73147169 106.05919473 -119.18836297 92.30664747 -114.58374023 79.16552734 C-114.32810303 78.42455811 -114.07246582 77.68358887 -113.80908203 76.92016602 C-102.90508006 46.54171403 -79.83645315 23.57430038 -51.06811523 9.75146484 C-34.40647359 2.48984028 -17.98522585 -0.01256907 0 0 Z M-33.67358398 91.18896484 C-42.07573829 102.24118737 -43.59132293 114.43169286 -43.53686523 127.91552734 C-43.53877869 128.98367676 -43.54069214 130.05182617 -43.54266357 131.15234375 C-43.54401508 133.39437091 -43.54039158 135.63640617 -43.53198242 137.87841797 C-43.52126836 141.28159407 -43.53191343 144.68424238 -43.54467773 148.08740234 C-43.54335596 150.28011183 -43.54079319 152.47282098 -43.53686523 154.66552734 C-43.5409137 155.66793457 -43.54496216 156.6703418 -43.5491333 157.703125 C-43.45970397 171.38781293 -40.82393261 183.22947479 -31.28295898 193.47412109 C-20.34965262 203.3459414 -8.36945418 204.73986147 5.72241211 204.69458008 C7.33149182 204.70029043 8.94056749 204.70725725 10.54963684 204.71537781 C14.89893622 204.73325198 19.24803321 204.73215157 23.59735823 204.72643542 C27.23779349 204.7233349 30.87819035 204.72944568 34.51862013 204.73547417 C43.11213696 204.74949925 51.70555432 204.74797523 60.29907227 204.73657227 C69.14292732 204.72509591 77.98647894 204.73916318 86.83029401 204.76596874 C94.44334487 204.78817367 102.05630082 204.79475226 109.66938174 204.78889233 C114.20749152 204.78553265 118.7454069 204.7878716 123.28348923 204.80514336 C127.5534734 204.82068683 131.82301053 204.81657558 136.09297752 204.79783821 C137.65254447 204.79417255 139.21214508 204.79720123 140.77168083 204.807724 C153.63372574 204.88782737 164.66573735 202.82051119 174.72875977 194.29052734 C184.76079835 183.49712868 187.03786527 171.58433189 187.06469727 157.27880859 C187.07135406 156.03358932 187.07801086 154.78837006 187.08486938 153.50541687 C187.09496592 150.87724274 187.09968734 148.24904312 187.09936523 145.62084961 C187.09912289 141.6334818 187.14004988 137.64685451 187.17797852 133.65966797 C187.18384987 131.09521859 187.18781713 128.530764 187.18969727 125.96630859 C187.21125381 124.20157951 187.21125381 124.20157951 187.23324585 122.40119934 C187.16138376 109.15287675 183.62777898 98.2000579 174.72875977 88.29052734 C165.92682847 79.80673814 155.00309664 77.18160929 143.04536438 77.15008545 C141.08803123 77.14152023 141.08803123 77.14152023 139.09115601 77.13278198 C137.66217051 77.13153691 136.2331849 77.13041175 134.80419922 77.12939453 C133.28570944 77.12476057 131.76722082 77.11973513 130.24873352 77.11434937 C126.13690361 77.10127878 122.02509 77.09479084 117.91324258 77.09033871 C115.33932228 77.08739924 112.76540635 77.08329281 110.19148827 77.07883453 C102.12371509 77.06517346 94.055952 77.0555001 85.98816806 77.05163264 C76.70216094 77.04715564 67.41630128 77.02961853 58.13033897 77.00063205 C50.93431309 76.97895571 43.73832852 76.96892519 36.54227036 76.96759152 C32.2528316 76.96654772 27.96353172 76.96073103 23.67412758 76.94277191 C19.63488632 76.92618795 15.59588682 76.92418528 11.55662346 76.93291092 C10.08293633 76.93367581 8.60923564 76.92941179 7.13558197 76.91945267 C-8.46966919 76.82026446 -22.60538221 79.30961826 -33.67358398 91.18896484 Z " fill="#191919" transform="translate(363.271240234375,191.70947265625)"/>
<path d="M0 0 C1.05806834 -0.00445668 1.05806834 -0.00445668 2.13751179 -0.0090034 C4.47759695 -0.01760551 6.81763044 -0.0191914 9.1577301 -0.02069092 C10.84559232 -0.02532527 12.53345349 -0.03035075 14.22131348 -0.03573608 C18.79208298 -0.04880624 23.36283782 -0.05529497 27.93362308 -0.05974674 C30.79687681 -0.06268735 33.66012663 -0.06679408 36.52337837 -0.07125092 C45.50365505 -0.08491425 54.48392267 -0.09458551 63.46420902 -0.09845281 C73.78929903 -0.10292502 84.1142561 -0.12043888 94.43930572 -0.1494534 C102.44646323 -0.17116374 110.4535836 -0.18116212 118.46077019 -0.18249393 C123.2304545 -0.18353566 128.00001366 -0.18930708 132.76966667 -0.20731354 C137.26528058 -0.2239559 141.76067743 -0.22587253 146.25631142 -0.21717453 C147.89237938 -0.2164126 149.5284598 -0.22063306 151.16449738 -0.23063278 C185.41888695 -0.42746203 215.19252918 12.07411364 239.54664612 36.14044189 C262.26566578 59.21653849 272.09606756 90.15359532 271.94508362 121.95294189 C271.94711488 123.5021783 271.95003493 125.05141376 271.95378113 126.60064697 C271.95815523 129.81745682 271.95193505 133.03401351 271.9377594 136.25079346 C271.92067038 140.32143831 271.93053844 144.39148922 271.94847679 148.46211243 C271.95944953 151.65224477 271.95580748 154.84224217 271.94809341 158.03237915 C271.94612839 159.53109818 271.9484162 161.02983052 271.95553207 162.52853394 C272.00687758 176.37177451 270.46376886 190.12432177 265.85914612 203.26544189 C265.60350891 204.00641113 265.3478717 204.74738037 265.08448792 205.51080322 C254.78579484 234.20287004 232.82281535 257.90033755 205.4533844 271.15411377 C190.97593988 277.77808608 176.04399574 282.24329889 160.0173645 282.28088379 C158.94704551 282.28534047 158.94704551 282.28534047 157.85510391 282.28988719 C155.48737983 282.29849088 153.1197068 282.30007533 150.75196838 282.30157471 C149.044402 282.30620894 147.33683664 282.31123441 145.62927246 282.31661987 C141.00478566 282.32969108 136.38031335 282.33617896 131.75581098 282.34063053 C128.85905532 282.34357095 125.96230354 282.34767764 123.06554985 282.3521347 C113.98062172 282.36579827 104.89570254 282.37546943 95.81076485 282.3793366 C85.36455442 282.38380896 74.91847539 282.40132345 64.47230488 282.43033719 C56.37172992 282.45204576 48.27119166 282.46204581 40.17058796 282.46337771 C35.3450129 282.46441957 30.51956153 282.47019361 25.69401741 282.48819733 C21.1458746 282.50483659 16.59794635 282.50675777 12.04978371 282.49805832 C10.39436513 282.49729623 8.73893425 282.50151905 7.08354568 282.51151657 C-7.31829097 282.59328746 -21.55478843 281.28199946 -35.07835388 275.95294189 C-35.86194275 275.65323486 -36.64553162 275.35352783 -37.4528656 275.04473877 C-48.71310445 270.61283303 -59.29634978 265.14220244 -68.45335388 257.14044189 C-69.26159607 256.44048096 -70.06983826 255.74052002 -70.90257263 255.01934814 C-73.45597976 252.76312163 -75.96082989 250.46364751 -78.45335388 248.14044189 C-79.59997498 247.09243408 -79.59997498 247.09243408 -80.76976013 246.02325439 C-101.81986583 226.0348062 -112.55510222 196.69035804 -113.56108093 168.07624817 C-113.61757501 164.64294142 -113.64426649 161.21091265 -113.65647888 157.77716064 C-113.66217896 156.50935257 -113.66787903 155.24154449 -113.67375183 153.93531799 C-113.68316072 151.2584578 -113.69007773 148.58170848 -113.69358826 145.90484619 C-113.69794634 143.20646445 -113.71174749 140.50840723 -113.73460388 137.81011963 C-114.03780316 99.15458058 -108.37758683 64.80842791 -80.63108826 36.02593994 C-59.33602021 14.47367011 -30.76865739 0.07300608 0 0 Z M-13.95335388 82.01544189 C-14.89179138 82.50786377 -15.83022888 83.00028564 -16.79710388 83.50762939 C-26.6092591 89.53921892 -31.46294993 97.72432984 -34.6481781 108.60552979 C-35.9446434 114.29731907 -36.02517693 119.82376061 -35.98460388 125.64044189 C-35.98843079 126.87858643 -35.99225769 128.11673096 -35.99620056 129.39239502 C-35.99890305 131.99071066 -35.99165968 134.5890543 -35.97483826 137.18731689 C-35.95340709 141.13065103 -35.97469969 145.07216342 -36.00022888 149.01544189 C-35.99758531 151.55711252 -35.99245974 154.09878203 -35.98460388 156.64044189 C-35.99270081 157.80124268 -36.00079773 158.96204346 -36.00914001 160.15802002 C-35.86190866 173.21598305 -32.4122688 184.46545029 -23.45335388 194.14044189 C-10.65931893 205.2055532 3.98450113 205.29244919 20.0615387 205.28570557 C21.50003139 205.28870382 22.93852329 205.29210786 24.37701416 205.29588318 C28.25734076 205.30465906 32.13764525 205.30705855 36.01798081 205.30769897 C38.44937442 205.30841305 40.88076253 205.31055411 43.31215477 205.31319618 C51.81455716 205.32242798 60.31694396 205.32653374 68.8193512 205.32574463 C76.71277513 205.32514423 84.60613065 205.33569414 92.49953729 205.35148829 C99.30413531 205.36461287 106.10871111 205.36992648 112.91332167 205.36928922 C116.96517614 205.3690357 121.0169697 205.37180552 125.06881142 205.38246727 C128.88316765 205.39223167 132.69740575 205.39217104 136.51176643 205.38495064 C137.90117823 205.38391512 139.29059772 205.38620524 140.67999649 205.3923111 C157.76646066 205.4624588 171.50335834 203.83714399 184.28102112 191.72247314 C193.58409411 181.12017789 194.86699508 168.06520321 194.81227112 154.51544189 C194.8151413 152.91321777 194.8151413 152.91321777 194.81806946 151.27862549 C194.81942096 149.03659833 194.81579747 146.79456307 194.80738831 144.55255127 C194.79667424 141.14937517 194.80731931 137.74672686 194.82008362 134.34356689 C194.81876184 132.15085741 194.81619907 129.95814826 194.81227112 127.76544189 C194.81834381 126.26183105 194.81834381 126.26183105 194.82453918 124.72784424 C194.73962781 111.73450421 192.46516277 99.10588294 183.29664612 89.26544189 C170.32564164 77.52840466 155.79798193 76.98821247 139.14527893 76.99517822 C137.70693373 76.99218087 136.26858933 76.98877702 134.83024597 76.98500061 C130.94572807 76.97621461 127.06123224 76.97382477 123.17670536 76.97318482 C120.74313952 76.9724712 118.30957918 76.97033098 115.87601471 76.96768761 C107.36713305 76.95845174 98.858267 76.95435047 90.34938049 76.95513916 C82.44859294 76.95573933 74.5478738 76.94519482 66.64710355 76.9293955 C59.83827944 76.9162705 53.02947755 76.91095734 46.2206409 76.91159457 C42.1654181 76.91184812 38.11025615 76.90907661 34.05504608 76.89841652 C30.23659926 76.88865171 26.41827045 76.88871302 22.59981918 76.89593315 C21.20879568 76.8969687 19.81776449 76.8946784 18.426754 76.88857269 C1.69566637 76.77981522 1.69566637 76.77981522 -13.95335388 82.01544189 Z " fill="#191919" transform="translate(765.4533538818359,754.8595581054688)"/>
</svg>
