<?xml version="1.0" encoding="UTF-8"?>
<svg version="1.1" xmlns="http://www.w3.org/2000/svg" width="1280" height="1280">
<path d="M0 0 C0.75925781 0.71929687 1.51851562 1.43859375 2.30078125 2.1796875 C34.11554354 32.94425375 50.31652154 77.46608186 52 121 C52.68368273 164.21153906 38.17478445 204.53013934 11 238 C11.67877197 238.06469482 12.35754395 238.12938965 13.05688477 238.19604492 C41.11502451 240.96267487 67.03403775 248.56749984 86 271 C100.43612053 289.73838695 107.15801092 310.84424934 107.14044189 334.35105896 C107.14489858 336.21744737 107.14489858 336.21744737 107.1494453 338.12154061 C107.15660432 341.56373226 107.15930296 345.00587397 107.16004276 348.44806945 C107.16189935 352.16540257 107.16944982 355.88272499 107.17617798 359.60005188 C107.18973869 367.72441802 107.19578281 375.84877921 107.20018864 383.97315478 C107.20295553 389.05171039 107.20719375 394.13026411 107.21169281 399.20881844 C107.22388373 413.2852984 107.23418261 427.36177686 107.2375679 441.43826199 C107.23778747 442.33858019 107.23800703 443.23889839 107.23823325 444.16649896 C107.23845153 445.068909 107.23866981 445.97131903 107.2388947 446.90107483 C107.23933816 448.72954142 107.23978472 450.55800802 107.24023438 452.38647461 C107.2404558 453.29344725 107.24067723 454.20041989 107.24090537 455.13487656 C107.24484942 469.81559358 107.26229221 484.49626085 107.2855939 499.17695867 C107.30935504 514.26970514 107.32177196 529.36242669 107.32293582 544.45519215 C107.32385004 552.92093019 107.329538 561.38660343 107.34775543 569.85232353 C107.363221 577.06441497 107.36823914 584.27642158 107.36001733 591.48852646 C107.35613321 595.16242963 107.35692951 598.83616234 107.37107468 602.5100441 C107.48054807 632.66625282 103.75157992 660.9166069 81.703125 683.32421875 C80.81109375 684.20722656 79.9190625 685.09023438 79 686 C78.29359375 686.72832031 77.5871875 687.45664062 76.859375 688.20703125 C60.39106465 704.14106436 36.43192624 711.09649571 14 711 C14.00170874 712.04984835 14.00170874 712.04984835 14.003452 713.12090576 C14.07067262 754.6571589 14.12210326 796.19340569 14.15319599 837.72970235 C14.15694784 842.72361025 14.16083084 847.71751804 14.16479492 852.71142578 C14.16558185 853.70556953 14.16636878 854.69971327 14.16717956 855.72398259 C14.18021243 871.79409089 14.20385453 887.86416681 14.23145839 903.93425594 C14.25957168 920.43930196 14.27618875 936.94433109 14.28226548 953.44940007 C14.28636967 963.62343359 14.29930448 973.79737553 14.3237494 983.97138084 C14.33967982 990.9601591 14.34438393 997.94889041 14.34050413 1004.93768547 C14.33859388 1008.96215764 14.34139857 1012.98647045 14.35761642 1017.01091385 C14.50651364 1055.89486523 14.50651364 1055.89486523 7.75 1072.875 C7.44626465 1073.66253662 7.1425293 1074.45007324 6.82958984 1075.26147461 C0.31767312 1091.65209326 -11.48777899 1108.47891425 -28.09762573 1115.88750267 C-38.77431887 1119.97994269 -49.76911348 1120.43862851 -61.0546875 1120.38818359 C-62.61037563 1120.39226058 -64.16606085 1120.39760871 -65.72174072 1120.40411377 C-69.9036103 1120.41765941 -74.08525505 1120.41254214 -78.26712799 1120.40297651 C-82.67011565 1120.39531309 -87.0730857 1120.40244389 -91.47607422 1120.40713501 C-98.86624563 1120.41257329 -106.25632672 1120.40545185 -113.64648438 1120.39111328 C-122.15690539 1120.3747905 -130.66711068 1120.38008038 -139.17752647 1120.3965925 C-146.52066057 1120.41026261 -153.86373021 1120.41210017 -161.20687294 1120.40427649 C-165.57673293 1120.39963019 -169.94649195 1120.39889034 -174.31634521 1120.40888596 C-178.42712106 1120.41763433 -182.53762226 1120.41139222 -186.64836884 1120.39420319 C-188.14539894 1120.39027992 -189.64245268 1120.39129971 -191.13947296 1120.39799118 C-210.73938644 1120.47743628 -224.85131199 1116.7177635 -239 1103 C-239.62777344 1102.45730469 -240.25554687 1101.91460938 -240.90234375 1101.35546875 C-256.4036566 1087.47107289 -262.95929492 1062.48608825 -264.22295856 1042.46805358 C-264.55236245 1033.39413416 -264.5130882 1024.31900052 -264.46426249 1015.24072039 C-264.44675216 1011.144939 -264.45285058 1007.04917751 -264.45587158 1002.95336914 C-264.45795427 995.88186204 -264.44555987 988.81050422 -264.42292023 981.73903465 C-264.39021002 971.51529734 -264.37997392 961.29163113 -264.37496826 951.06784717 C-264.36624519 934.47463404 -264.33971135 917.88150022 -264.30175781 901.28833008 C-264.26495993 885.18351636 -264.23668639 869.0787243 -264.21972656 852.97387695 C-264.21815022 851.48118747 -264.21815022 851.48118747 -264.21654204 849.95834263 C-264.21132134 844.96536222 -264.20626664 839.97238166 -264.20129442 834.97940099 C-264.15992559 793.65287888 -264.08955934 752.32644401 -264 711 C-264.61302475 711.00303635 -265.2260495 711.00607269 -265.85765076 711.00920105 C-266.66444778 711.01156265 -267.47124481 711.01392426 -268.30249023 711.01635742 C-269.10113998 711.01939377 -269.89978973 711.02243011 -270.72264099 711.02555847 C-295.68622153 710.74539581 -316.25008739 698.21678324 -333.59375 681.5 C-339.74541856 675.09552314 -343.98905958 667.84596241 -348 660 C-348.4846875 659.05640625 -348.969375 658.1128125 -349.46875 657.140625 C-357.79159876 639.17545147 -357.59426531 619.48372146 -357.52289867 600.10171366 C-357.51371928 596.40155141 -357.52788065 592.7014597 -357.53881836 589.00131226 C-357.55647292 581.78092176 -357.55282253 574.56069891 -357.5411678 567.34030223 C-357.53208174 561.46469816 -357.53093164 555.5891406 -357.53526306 549.71353149 C-357.53587599 548.87275521 -357.53648893 548.03197893 -357.53712043 547.16572458 C-357.53839952 545.45694787 -357.53969637 543.74817118 -357.5410108 542.0393945 C-357.55237832 526.06942517 -357.5393633 510.09954815 -357.51780933 494.12959397 C-357.49994184 480.4688368 -357.50304703 466.80821566 -357.52148438 453.14746094 C-357.54295909 437.2291004 -357.55128004 421.31082047 -357.53903532 405.39244747 C-357.53776131 403.6904545 -357.53650383 401.98846151 -357.53526306 400.28646851 C-357.53464596 399.44936476 -357.53402886 398.61226102 -357.53339306 397.74979049 C-357.52995989 391.89092317 -357.53572425 386.03210759 -357.54518127 380.17324829 C-357.55647639 373.01936971 -357.55320524 365.86566636 -357.5320583 358.71180749 C-357.52164772 355.07171394 -357.5172517 351.43191099 -357.53065491 347.79182053 C-357.63569234 316.58593597 -353.60491029 289.22063176 -331.00390625 265.91796875 C-311.23182053 246.3141561 -287.95284153 240.73466586 -261 238 C-261.49072998 237.42813965 -261.98145996 236.8562793 -262.48706055 236.26708984 C-291.62834228 201.89159645 -304.78412833 156.16876694 -301.59521484 111.53271484 C-298.71535565 77.59379778 -287.18083736 44.88493532 -266 18 C-265.5870166 17.47277344 -265.1740332 16.94554688 -264.74853516 16.40234375 C-234.95258877 -21.1860334 -192.76180844 -45.27216989 -145 -51 C-90.79679615 -57.13308423 -38.80136319 -37.5704234 0 0 Z M-212.390625 50.89453125 C-230.0186142 71.65596489 -239.45488858 97.55988301 -239.3125 124.75 C-239.30686035 125.88816162 -239.3012207 127.02632324 -239.29541016 128.19897461 C-238.83220528 160.48802349 -224.25577153 187.70779723 -201.828125 210.17578125 C-177.93744038 232.58452491 -147.32967196 240.07879112 -115.3203125 239.17919922 C-101.83280899 238.45127072 -89.17310415 234.71363422 -77 229 C-76.39381836 228.7220459 -75.78763672 228.4440918 -75.16308594 228.15771484 C-49.4784502 216.20619359 -27.97848774 193.10212644 -18.06542969 166.49121094 C-16.09785208 160.73165356 -14.47724175 154.90227054 -13 149 C-12.73316406 147.98035156 -12.46632813 146.96070313 -12.19140625 145.91015625 C-6.13024066 117.44357856 -13.71504857 87.10170572 -28.82666016 62.78955078 C-31.83746774 58.19753672 -35.35757667 54.09454231 -39 50 C-39.69609375 49.16082031 -40.3921875 48.32164062 -41.109375 47.45703125 C-58.7794024 26.65928002 -86.09513008 13.93955253 -113 11 C-151.13573737 8.06697543 -187.13030146 21.97737751 -212.390625 50.89453125 Z M-287.4375 310.3125 C-288.36369141 311.38951172 -288.36369141 311.38951172 -289.30859375 312.48828125 C-294.20692282 319.76224335 -294.43381122 325.78750599 -294.39440918 334.39143372 C-294.40050028 335.63992605 -294.40659139 336.88841839 -294.41286707 338.17474383 C-294.42923366 341.62857166 -294.42695543 345.08217074 -294.4214921 348.53602374 C-294.41881781 352.26553483 -294.43336122 355.99498551 -294.44558716 359.72447205 C-294.46662697 367.02680621 -294.47118283 374.32906095 -294.46939927 381.63142184 C-294.46809084 387.56844088 -294.47189991 393.50543518 -294.47932434 399.44244957 C-294.48142358 401.15363318 -294.48352118 402.86481678 -294.48561716 404.57600039 C-294.48666069 405.42775171 -294.48770422 406.27950303 -294.48877937 407.157065 C-294.5076761 423.26113492 -294.50663336 439.36515927 -294.49981004 455.46923568 C-294.49423575 470.19285385 -294.51505613 484.91629795 -294.54817051 499.63987545 C-294.58192668 514.76650633 -294.59707339 529.89305388 -294.59245348 545.01972312 C-294.59021064 553.50878106 -294.5954247 561.99767815 -294.62034607 570.48670387 C-294.64138419 577.71439373 -294.64492646 584.94183455 -294.62604648 592.16953472 C-294.61690373 595.85494896 -294.61569997 599.53989917 -294.63640213 603.22527695 C-294.65862881 607.22641596 -294.64185829 611.22646673 -294.62145996 615.22761536 C-294.64023673 616.96270575 -294.64023673 616.96270575 -294.65939283 618.73284847 C-294.56306993 627.55719791 -292.22637374 633.8518052 -286.8125 640.8125 C-275.8663329 649.32618552 -265.34661651 648.69025399 -252 648.625 C-249.03135155 648.62112953 -246.06330865 648.62477511 -243.09472656 648.64559937 C-241.25817385 648.65751915 -239.42144975 648.65530526 -237.58496094 648.63589478 C-227.64378473 648.67875689 -218.53809444 651.34110969 -211 658 C-205.58732698 664.46739088 -202.7517299 670.87540283 -202.74666691 679.3839035 C-202.74105151 680.655172 -202.73543612 681.9264405 -202.72965056 683.23623228 C-202.73349982 684.63954433 -202.73752752 686.04285591 -202.74171448 687.44616699 C-202.738859 688.94279684 -202.73512054 690.43942522 -202.73057598 691.93605089 C-202.72059739 696.04566537 -202.72296785 700.15519445 -202.72730291 704.26481533 C-202.72977943 708.69856713 -202.72071022 713.13229651 -202.71292114 717.56604004 C-202.70087487 725.24995814 -202.69576812 732.93385549 -202.69503975 740.61778259 C-202.69371362 751.74269959 -202.67859693 762.86756631 -202.65954458 773.99246556 C-202.6286967 792.06202811 -202.6045358 810.13159193 -202.58666992 828.20117188 C-202.5850609 829.82344951 -202.5850609 829.82344951 -202.58341938 831.47850043 C-202.57160714 843.53628432 -202.56140125 855.59406873 -202.55297852 867.65185547 C-202.54990477 872.01985678 -202.54681595 876.38785809 -202.54370117 880.75585938 C-202.54255316 882.37252098 -202.54255316 882.37252098 -202.54138196 884.02184242 C-202.52828521 902.01417847 -202.50362287 920.00647824 -202.46995777 937.9987874 C-202.44970093 949.08988826 -202.43937382 960.1809114 -202.44194698 971.27203089 C-202.4429847 978.87933612 -202.43330255 986.48658007 -202.41530795 994.0938639 C-202.4052966 998.47835969 -202.40009843 1002.86271984 -202.40807533 1007.2472229 C-202.41530566 1011.26940068 -202.40855715 1015.29131539 -202.39118993 1019.31345993 C-202.38733886 1020.76035275 -202.38842489 1022.20727 -202.39524681 1023.65415186 C-202.44618879 1035.40006295 -200.71427976 1045.85716072 -197 1057 C-149.81 1057 -102.62 1057 -54 1057 C-48.39109841 1044.37997143 -47.69999954 1033.42172219 -47.75517273 1019.77452087 C-47.75374701 1018.27867467 -47.75143051 1016.78282909 -47.74831039 1015.28698546 C-47.74225921 1011.21211937 -47.74841154 1007.13735205 -47.756621 1003.06249321 C-47.76324979 998.65413113 -47.75819199 994.24578085 -47.75439453 989.8374176 C-47.74918747 982.20872581 -47.75065137 974.58005948 -47.75617027 966.95136833 C-47.76440895 954.88703729 -47.75313052 942.82276061 -47.7389679 930.75843811 C-47.73436764 926.62476648 -47.72991716 922.49109469 -47.72552967 918.35742283 C-47.72443153 917.32460343 -47.72333339 916.29178403 -47.72220197 915.22766707 C-47.71004544 903.49024046 -47.70248059 891.75281211 -47.6965332 880.01538086 C-47.69598514 878.94327756 -47.69543708 877.87117425 -47.69487242 876.76658297 C-47.68640721 859.38055494 -47.68975527 841.99454237 -47.69568755 824.60851424 C-47.7013078 806.73573473 -47.68776013 788.86303307 -47.65813476 770.99027735 C-47.64061502 759.97772695 -47.63893539 748.9654019 -47.65777991 737.95285261 C-47.66939846 730.4068047 -47.66291707 722.86090873 -47.6423107 715.31488054 C-47.63100957 710.96491998 -47.62777233 706.61535127 -47.64648628 702.26540756 C-47.66348427 698.27738381 -47.65719435 694.29007596 -47.63298772 690.30209572 C-47.62828774 688.86553946 -47.63189345 687.4289247 -47.64501318 685.99242067 C-47.72900327 676.10694699 -46.77209545 666.56294419 -40.0856964 658.76845115 C-31.59657501 650.59030333 -21.84372477 648.86731076 -10.52734375 648.89453125 C-8.63866051 648.88106631 -6.74998788 648.86604155 -4.86132812 648.84960938 C-1.9079104 648.82688514 1.04431023 648.81242284 3.99780273 648.82495117 C21.83169498 648.92274332 21.83169498 648.92274332 37.00610352 640.21020508 C44.13287687 632.95151654 44.43778889 624.17405323 44.38768005 614.55751038 C44.39575836 612.69468254 44.39575836 612.69468254 44.40399987 610.79422182 C44.41579895 607.3634245 44.41422346 603.93311518 44.40683305 600.50233757 C44.40209302 596.79604554 44.41461857 593.08980505 44.42485046 589.38352966 C44.44202724 582.12912035 44.44288084 574.87479769 44.43763756 567.62037332 C44.43359268 561.72293951 44.43504319 555.82553127 44.44038582 549.92809868 C44.44113424 549.08807129 44.44188266 548.2480439 44.44265376 547.38256113 C44.44418527 545.67593698 44.44572362 543.96931283 44.44726873 542.26268869 C44.46098961 526.26641881 44.45555889 510.27019787 44.44408352 494.27392911 C44.43415065 479.64671976 44.44709345 465.0196369 44.47101771 450.39244706 C44.49541246 435.36410225 44.50501572 420.33581635 44.49836498 405.30745214 C44.49487372 396.87380033 44.49709877 388.44024579 44.51461601 380.00660896 C44.52934265 372.82761306 44.52996739 365.64878295 44.5125451 358.46979029 C44.50403663 354.80885916 44.50188151 351.14822414 44.51719666 347.4873085 C44.53361033 343.51454543 44.51888765 339.54223853 44.50120544 335.56947327 C44.51081045 334.41829752 44.52041546 333.26712176 44.53031152 332.0810619 C44.45255265 323.5880685 42.49369614 317.81388821 37.875 310.75 C32.25727783 305.37652662 24.86000672 301.8814782 17.05166531 301.86577892 C16.02425745 301.86132108 14.9968496 301.85686324 13.93830818 301.85227031 C12.23990314 301.85254685 12.23990314 301.85254685 10.50718689 301.85282898 C8.70695355 301.84731395 8.70695355 301.84731395 6.87035185 301.8416875 C3.53295799 301.83255832 0.19561331 301.82795045 -3.14178836 301.82529819 C-6.7391053 301.82139552 -10.33640798 301.81181704 -13.93371582 301.80308533 C-22.62520758 301.78331811 -31.31670051 301.77325361 -40.00820914 301.76435754 C-44.10178637 301.75997437 -48.19536231 301.75460757 -52.28893852 301.74936867 C-65.8986042 301.73235484 -79.50826908 301.71786147 -93.11794376 301.71061993 C-96.65016239 301.70871004 -100.18238101 301.70678971 -103.71459961 301.70483398 C-104.59251136 301.70435024 -105.47042311 301.7038665 -106.37493824 301.7033681 C-120.59115713 301.69507083 -134.8072918 301.66973973 -149.02347393 301.63725331 C-163.62111907 301.6041674 -178.21872145 301.58616971 -192.81640428 301.58297569 C-201.01152196 301.58081182 -209.20651687 301.57208151 -217.40159798 301.54651451 C-224.38231093 301.52478643 -231.3628713 301.51676735 -238.34361423 301.52648129 C-241.90338664 301.53102017 -245.4628444 301.52916437 -249.02257347 301.50971985 C-252.88794587 301.48878887 -256.75288704 301.4990925 -260.61830139 301.51225281 C-261.73495637 301.50128356 -262.85161134 301.49031432 -264.00210434 301.47901267 C-272.87764543 301.55184697 -281.51605595 303.1430957 -287.4375 310.3125 Z " fill="#191919" transform="translate(763,106)"/>
<path d="M0 0 C1.72802939 1.52212543 3.45719895 3.04295742 5.1875 4.5625 C9.49576781 8.44733431 13.32281916 12.51975668 17 17 C17.61230469 17.72445312 18.22460938 18.44890625 18.85546875 19.1953125 C44.71696085 50.47687779 58.50030526 90.1207873 58.3125 130.625 C58.31100952 131.41925385 58.30951904 132.21350769 58.3079834 133.03182983 C58.267819 144.935627 57.71255642 156.36640674 55 168 C54.7215625 169.25167969 54.443125 170.50335938 54.15625 171.79296875 C47.71327725 198.14805987 35.5743268 223.27968593 18 244 C18.67353516 244.06469482 19.34707031 244.12938965 20.04101562 244.19604492 C49.27563439 247.09808402 74.35313326 254.88796209 94 278 C104.60144876 292.14234114 113.10056711 309.69684693 113.13422108 327.65712452 C113.13867892 328.76630672 113.14313676 329.87548893 113.14772969 331.01828271 C113.14745315 332.83065542 113.14745315 332.83065542 113.14717102 334.67964172 C113.15084771 335.9713433 113.1545244 337.26304489 113.1583125 338.59388894 C113.16829962 342.17321445 113.17204399 345.7525232 113.17470181 349.33186066 C113.17861477 353.19510933 113.18819254 357.05834484 113.19691467 360.92158508 C113.21665326 370.24961281 113.22674293 379.57764159 113.23564246 388.90568498 C113.24003047 393.30418628 113.24539603 397.70268639 113.25063133 402.10118675 C113.26764258 416.73350048 113.28213446 431.36581347 113.28938007 445.99813557 C113.29128981 449.79310927 113.29321016 453.58808296 113.29516602 457.38305664 C113.29564976 458.32621985 113.2961335 459.26938306 113.2966319 460.24112698 C113.30492361 475.50323403 113.33024647 490.76526249 113.36274669 506.02733526 C113.3958805 521.71557103 113.41383462 537.40376694 113.41702431 553.09203786 C113.41918379 561.89263388 113.42784949 570.69311535 113.45348549 579.49367714 C113.47527919 586.99233932 113.48320063 594.49085912 113.47351871 601.98954938 C113.46899867 605.8094361 113.47072454 609.62902963 113.49028015 613.44887543 C113.66349948 649.256445 113.66349948 649.256445 105.3125 665.8125 C104.97001221 666.51133301 104.62752441 667.21016602 104.2746582 667.93017578 C93.95216408 688.28563919 76.0829848 704.17877747 54.609375 711.8203125 C46.09101328 714.60445237 38.01255083 716.12812613 29.0859375 716.57421875 C28.30500732 716.6165564 27.52407715 716.65889404 26.71948242 716.70251465 C24.81318242 716.80534108 22.90661486 716.90318702 21 717 C21.00170874 718.03975691 21.00170874 718.03975691 21.003452 719.100519 C21.07068357 760.24436356 21.12210877 801.3882017 21.15319599 842.53209021 C21.15694781 847.47964552 21.1608308 852.42720071 21.16479492 857.37475586 C21.16558185 858.35966545 21.16636878 859.34457504 21.16717956 860.35933038 C21.18020977 876.27679993 21.20385038 892.19423675 21.23145839 908.11168692 C21.25957912 924.46192605 21.27619032 940.81214812 21.28226548 957.16241044 C21.28636813 967.23970665 21.29929451 977.31691034 21.3237494 987.39417806 C21.33968904 994.31802041 21.34438188 1001.24181539 21.34050413 1008.16567472 C21.3385953 1012.15179136 21.34138198 1016.13774708 21.35761642 1020.12383461 C21.50822195 1059.02498345 21.50822195 1059.02498345 15.3125 1076.25 C15.05686279 1076.97977051 14.80122559 1077.70954102 14.5378418 1078.46142578 C7.83780242 1096.86207044 -3.34369948 1112.97563034 -21.375 1121.8125 C-31.54445204 1126.5421023 -42.76979687 1126.29117399 -53.74584961 1126.25878906 C-55.3043382 1126.26150473 -56.86282551 1126.26506888 -58.42131042 1126.26940918 C-62.62384255 1126.27846774 -66.82627563 1126.27501589 -71.02880931 1126.26865101 C-75.44609371 1126.26355607 -79.86337014 1126.2682922 -84.28065491 1126.27142334 C-91.69712838 1126.27505324 -99.1135619 1126.27028998 -106.5300293 1126.26074219 C-115.07844495 1126.24986355 -123.62676513 1126.25338288 -132.17517847 1126.264395 C-139.54114021 1126.27350057 -146.90707337 1126.27473709 -154.27303892 1126.26951766 C-158.66074502 1126.26641537 -163.0484064 1126.26594027 -167.43610954 1126.27259064 C-171.56401933 1126.27841111 -175.69180729 1126.27428212 -179.81970406 1126.26280212 C-181.32563704 1126.26018032 -182.83158046 1126.26087764 -184.33750916 1126.26532745 C-203.28525679 1126.31610993 -218.46240786 1123.16749608 -232.44140625 1109.89038086 C-251.72258585 1090.4693532 -258.16807107 1061.00399022 -258.25816262 1034.47899872 C-258.24942409 1032.63019109 -258.24942409 1032.63019109 -258.24050903 1030.74403381 C-258.24138403 1029.37815265 -258.24314039 1028.01227183 -258.24568737 1026.64639276 C-258.25010715 1022.94052248 -258.24223238 1019.23477032 -258.23213124 1015.52891505 C-258.22342046 1011.51482661 -258.22642225 1007.5007438 -258.22793579 1003.48664856 C-258.22897986 996.54767872 -258.22275353 989.60874676 -258.21146011 982.66978645 C-258.19514284 972.63746283 -258.18999076 962.60515736 -258.18748413 952.57282191 C-258.18311676 936.29243407 -258.16983375 920.01206637 -258.15087891 903.73168945 C-258.13249525 887.92537537 -258.11835093 872.11906677 -258.10986328 856.31274414 C-258.10907511 854.84905359 -258.10907511 854.84905359 -258.10827102 853.35579354 C-258.10566077 848.46007772 -258.1031334 843.56436186 -258.10064721 838.66864598 C-258.07994455 798.11241665 -258.04474523 757.55620948 -258 717 C-259.10156937 716.93664963 -260.20313873 716.87329926 -261.33808899 716.80802917 C-262.79611959 716.72134854 -264.25414226 716.63453425 -265.7121582 716.54760742 C-266.43669441 716.50629448 -267.16123062 716.46498154 -267.90772247 716.42241669 C-280.65189856 715.65343222 -291.70618332 711.80161816 -303 706 C-301.72967411 702.18902234 -300.48097549 701.85992125 -297.0625 699.875 C-279.57732089 689.0088874 -269.44702773 672.81050781 -262 654 C-256.62893641 653.92526349 -251.25818247 653.87112339 -245.88671875 653.83520508 C-244.06342285 653.82021511 -242.2401624 653.79981616 -240.41699219 653.77368164 C-225.81701072 653.56979362 -214.40962998 653.77963141 -203.3125 664.4375 C-194.35312943 673.7718222 -194.70536093 684.48145708 -194.7484436 696.78674316 C-194.74630258 698.28382369 -194.74327535 699.78090317 -194.73944318 701.27798033 C-194.73143113 705.37502928 -194.73569665 709.47198649 -194.74196196 713.56903505 C-194.74650677 717.99460817 -194.73944964 722.42016413 -194.73365784 726.84573364 C-194.72503381 734.51158776 -194.72321463 742.1774188 -194.72560501 749.84327698 C-194.72870715 760.94525915 -194.71704742 772.04719049 -194.70105521 783.14915985 C-194.67510204 801.18700045 -194.65507994 819.22484109 -194.64160156 837.26269531 C-194.64079119 838.3417303 -194.63998082 839.42076528 -194.6391459 840.5324983 C-194.62793353 855.83229324 -194.62264519 871.13208454 -194.61975877 886.43188304 C-194.61955478 887.50849249 -194.61935079 888.58510195 -194.61914062 889.69433594 C-194.61894069 890.76962596 -194.61874075 891.84491599 -194.61853476 892.95279056 C-194.61479556 910.91473225 -194.59566639 928.87661884 -194.56404626 946.83853292 C-194.54517918 957.90451262 -194.53914085 968.97035067 -194.54986344 980.03634197 C-194.55620563 987.62823554 -194.54807723 995.22002795 -194.52880932 1002.81189936 C-194.51817791 1007.18467601 -194.5138893 1011.55720663 -194.52728081 1015.92998123 C-194.539452 1019.9448616 -194.53279127 1023.95928371 -194.51208882 1027.97412509 C-194.50783424 1029.41492582 -194.51010481 1030.85576651 -194.52012999 1032.29653865 C-194.59133741 1043.34558198 -192.62386333 1051.84858083 -190 1063 C-142.81 1062.67 -95.62 1062.34 -47 1062 C-42.86849279 1047.53972475 -41.84879261 1035.7466344 -41.86869812 1021.03317261 C-41.86699217 1019.55326378 -41.86484076 1018.07335541 -41.86228687 1016.5934478 C-41.85772137 1013.39686624 -41.85626277 1010.20030396 -41.85725212 1007.00371933 C-41.85885548 1001.80091349 -41.8536204 996.59812656 -41.84762573 991.39532471 C-41.83953756 983.84246705 -41.83457763 976.28961274 -41.83133507 968.73675156 C-41.82582172 956.79487447 -41.80890875 944.85302567 -41.78999329 932.91116333 C-41.78363773 928.82047086 -41.77732918 924.72977831 -41.77101612 920.63908577 C-41.76943236 919.61699312 -41.7678486 918.59490048 -41.76621684 917.54183533 C-41.74830404 905.92453937 -41.73206444 894.30724145 -41.71704102 882.68994141 C-41.71566514 881.62871044 -41.71428927 880.56747947 -41.71287171 879.47409 C-41.69092229 862.26124998 -41.68017937 845.04841733 -41.67267027 827.83556579 C-41.66459761 810.14589051 -41.64130667 792.4562782 -41.6047166 774.76663888 C-41.5827093 763.86397475 -41.57302151 752.96144015 -41.57921693 742.05875494 C-41.58239296 734.5898117 -41.57105194 727.12097914 -41.54832252 719.65207015 C-41.53566566 715.34495212 -41.52947191 711.03808071 -41.54073906 706.73095322 C-41.55093036 702.78439532 -41.54261165 698.83831557 -41.5198761 694.89181401 C-41.51489493 693.46805461 -41.51658461 692.04425202 -41.52580877 690.62051378 C-41.58311875 681.01600389 -40.72190428 673.10961237 -34.95703125 665.1953125 C-25.31077014 655.88289285 -16.5427149 653.8628024 -3.4296875 653.89453125 C-1.54425943 653.88106878 0.341158 653.86604447 2.2265625 653.84960938 C5.16899624 653.82687372 8.11022531 653.81243717 11.05273438 653.82495117 C27.49933536 654.05717555 27.49933536 654.05717555 42 647 C49.60056901 638.45779177 50.29733851 629.84738456 50.26742554 618.84307861 C50.27422221 617.00815043 50.27422221 617.00815043 50.28115618 615.13615298 C50.29160666 611.75266238 50.29312942 608.36938479 50.29076743 604.98589325 C50.29035847 601.33204129 50.30140596 597.67822077 50.31088257 594.02438354 C50.32747666 586.87011765 50.3329914 579.71588472 50.33410732 572.56160119 C50.33505859 566.74425637 50.3391728 560.92692239 50.34550858 555.10958099 C50.36311694 538.6053963 50.37234812 522.10123758 50.37084763 505.59704342 C50.37076772 504.70779253 50.3706878 503.81854164 50.37060547 502.90234375 C50.37048283 501.56683299 50.37048283 501.56683299 50.37035771 500.20434222 C50.36954501 485.77888652 50.38867973 471.35353528 50.4168822 456.92810979 C50.4456319 442.10545497 50.45942134 427.28285105 50.45769465 412.46016765 C50.45703145 404.14268376 50.46249293 395.82530937 50.48405075 387.50785065 C50.50229006 380.42551364 50.50658741 373.34333577 50.4930319 366.2609854 C50.48651594 362.6504375 50.48633485 359.04019466 50.5037384 355.42967606 C50.52244698 351.50792933 50.50987865 347.58662457 50.49447632 343.66485596 C50.50476344 342.53438756 50.51505057 341.40391917 50.52564943 340.23919415 C50.45248439 331.78639294 49.06698912 323.91893054 43.75 317.125 C37.85362531 312.56871047 32.71688 308.88427697 25.0705843 308.8613348 C24.04745964 308.85586036 23.02433499 308.85038591 21.97020656 308.84474558 C20.84278818 308.84376747 19.7153698 308.84278936 18.55378723 308.84178162 C17.35882667 308.83684364 16.1638661 308.83190566 14.93269461 308.82681805 C11.61020398 308.81408847 8.28775544 308.80581426 4.96525013 308.79939139 C1.38448008 308.79139404 -2.19626861 308.77769397 -5.77702332 308.76467896 C-11.98280863 308.74290676 -18.18859609 308.72476499 -24.39439964 308.70907402 C-33.36700046 308.68638216 -42.33957762 308.65823838 -51.31215838 308.62875474 C-65.86882106 308.58107045 -80.42549341 308.53780853 -94.98217773 308.49731445 C-109.12443799 308.45796379 -123.26668965 308.41653859 -137.40893555 308.37231445 C-138.28035009 308.36959018 -139.15176462 308.36686591 -140.04958566 308.36405908 C-144.42112267 308.35037968 -148.79265955 308.33665939 -153.16419637 308.32291877 C-189.44277975 308.20894083 -225.72138145 308.10213439 -262 308 C-262.47445053 306.89580215 -262.94890106 305.79160431 -263.43772888 304.65394592 C-264.0695648 303.19378518 -264.70157792 301.7337011 -265.33374023 300.27368164 C-265.64531822 299.54724709 -265.95689621 298.82081253 -266.27791595 298.07236481 C-268.43962813 293.09273013 -270.77967552 288.78790968 -274.0625 284.4375 C-274.45759766 283.90060547 -274.85269531 283.36371094 -275.25976562 282.81054688 C-276.47546853 281.1798214 -277.72814206 279.58723441 -279 278 C-279.45334717 277.4217749 -279.90669434 276.8435498 -280.3737793 276.24780273 C-284.00363634 271.78802034 -287.99277766 268.47984237 -292.6875 265.1875 C-293.68233398 264.47303711 -293.68233398 264.47303711 -294.69726562 263.74414062 C-297.43704756 261.78242365 -300.19589707 259.86940195 -303 258 C-303 257.34 -303 256.68 -303 256 C-287.40839462 248.37604867 -271.45530666 244.26071642 -254 245 C-254.92619141 243.85337891 -254.92619141 243.85337891 -255.87109375 242.68359375 C-280.50268991 211.72501975 -295.49978786 172.75659763 -295.3125 133 C-295.30758545 131.74324463 -295.3026709 130.48648926 -295.29760742 129.19165039 C-294.98325832 103.80997536 -289.7201712 79.98320822 -279 57 C-278.66564941 56.2776416 -278.33129883 55.5552832 -277.98681641 54.81103516 C-273.71382722 45.67373358 -268.90622411 37.20432258 -263 29 C-262.03320312 27.58654297 -262.03320312 27.58654297 -261.046875 26.14453125 C-234.36645856 -10.94892541 -193.14661325 -35.53514995 -148.42578125 -43.6484375 C-144.95488355 -44.18481363 -141.49148026 -44.62126316 -138 -45 C-136.89011719 -45.12375 -135.78023437 -45.2475 -134.63671875 -45.375 C-85.52429569 -49.74540472 -36.06716542 -33.74983519 0 0 Z M-203.64404297 54.44140625 C-215.51618222 68.08773988 -223.79894826 83.68286182 -229 101 C-229.3196875 102.04027344 -229.639375 103.08054687 -229.96875 104.15234375 C-234.32563807 121.43870058 -234.25748511 143.95781243 -229 161 C-228.80132324 161.66177246 -228.60264648 162.32354492 -228.39794922 163.00537109 C-223.48104107 179.08200335 -216.09132782 192.59817925 -205.28857422 205.45556641 C-204.02759523 206.96692546 -202.8080916 208.51258392 -201.58984375 210.05859375 C-198.72052041 213.31741799 -195.68962361 215.8762086 -192.25 218.5 C-191.62802734 218.97920898 -191.00605469 219.45841797 -190.36523438 219.95214844 C-177.03957673 230.1435782 -163.1598861 237.39012654 -147 242 C-145.90042969 242.32097656 -144.80085938 242.64195312 -143.66796875 242.97265625 C-114.78205788 250.07033721 -84.17381154 244.01176377 -58.9375 229 C-53.31579116 225.35194559 -48.10625456 221.33257963 -43 217 C-42.27554688 216.4328125 -41.55109375 215.865625 -40.8046875 215.28125 C-18.9089112 197.38792743 -7.42184379 168.68772827 -4.22705078 141.28125 C-1.36660753 112.54148472 -10.39251326 82.82467331 -28.41796875 60.32348633 C-29.60482714 58.87642853 -30.80207671 57.43791129 -32 56 C-32.55945312 55.27683594 -33.11890625 54.55367187 -33.6953125 53.80859375 C-49.65234371 33.96253734 -78.31465223 20.45981228 -103.21875 17.28515625 C-141.27794123 14.41498997 -177.56440628 25.68228952 -203.64404297 54.44140625 Z " fill="#191919" transform="translate(1167,100)"/>
<path d="M0 0 C0.64469238 0.20963379 1.28938477 0.41926758 1.95361328 0.63525391 C24.97922004 8.22091538 46.6397127 21.06557833 64 38 C64.61311035 38.57814453 65.2262207 39.15628906 65.85791016 39.75195312 C99.63107803 71.61915001 119.69500027 114.97719304 121.2578125 161.60546875 C122.2236766 206.27518358 108.0946863 247.23282571 80 282 C80.54785156 281.97679687 81.09570312 281.95359375 81.66015625 281.9296875 C97.22498449 281.57536621 113.32352869 284.34117606 127 292 C127 292.66 127 293.32 127 294 C124.88001375 295.45353253 122.75996399 296.79846163 120.5625 298.125 C102.31389152 309.57277096 91.8139023 325.21947075 84 345 C83.39439794 345.00021737 82.78879588 345.00043474 82.16484225 345.00065869 C46.25721776 345.01417996 10.34971315 345.0536876 -25.55784055 345.12685562 C-29.87107953 345.13562218 -34.18431891 345.14417202 -38.49755859 345.15258789 C-39.78556952 345.15510648 -39.78556952 345.15510648 -41.09960087 345.15767596 C-54.99588319 345.18433235 -68.89212427 345.19344006 -82.78842954 345.19604143 C-97.05155198 345.19910287 -111.31455531 345.22107168 -125.57762396 345.26052457 C-134.37592683 345.28426756 -143.17399182 345.2933327 -151.9723223 345.28351311 C-158.00893469 345.27818979 -164.04533429 345.29126264 -170.0818861 345.3186629 C-173.56268717 345.33392353 -177.04301187 345.34120578 -180.5238266 345.32659721 C-184.30431827 345.31497472 -188.08347315 345.33409843 -191.86386108 345.36076355 C-192.95532578 345.35009029 -194.04679047 345.33941703 -195.17132986 345.32842034 C-203.81057663 345.44189555 -210.1423022 347.89706916 -216.875 353.3125 C-221.65095626 359.35267998 -224.11897763 365.44345636 -224.13422108 373.14667606 C-224.13867892 374.19287524 -224.14313676 375.23907442 -224.14772969 376.31697661 C-224.14754533 377.46510641 -224.14736097 378.61323622 -224.14717102 379.79615784 C-224.15084771 381.01688002 -224.1545244 382.2376022 -224.1583125 383.49531597 C-224.16743245 386.88552752 -224.17204752 390.27569068 -224.17470181 393.66590989 C-224.17860817 397.32185182 -224.18818633 400.97777977 -224.19691467 404.63371277 C-224.21667058 413.46420768 -224.22674457 422.29470372 -224.23564246 431.1252152 C-224.24002713 435.28540665 -224.24539351 439.44559683 -224.25063133 443.60578728 C-224.26764338 457.43852887 -224.28213676 471.27126967 -224.28938007 485.10402012 C-224.29128992 488.69312605 -224.29321026 492.28223198 -224.29516602 495.87133789 C-224.29589163 497.20939341 -224.29589163 497.20939341 -224.2966319 498.57448035 C-224.30492924 513.01952115 -224.33026127 527.46447906 -224.36274669 541.90948368 C-224.39583916 556.7455979 -224.41383084 571.58167003 -224.41702431 586.41782135 C-224.41918748 594.74541771 -224.42790761 603.07289322 -224.45348549 611.40045357 C-224.47522247 618.49383427 -224.48322824 625.58706477 -224.47351871 632.680475 C-224.46898253 636.29708388 -224.47081993 639.91338305 -224.49028015 643.52994919 C-224.51123522 647.4584124 -224.50089896 651.3864521 -224.48774719 655.31495667 C-224.49871644 656.44747142 -224.50968568 657.57998617 -224.52098733 658.74681956 C-224.45197467 667.30778979 -222.77334203 674.74403622 -218.0559082 681.98339844 C-207.98736227 691.85944516 -195.44591147 690.84050674 -182.3125 690.75 C-179.41841216 690.75145128 -176.52468121 690.76148274 -173.63066101 690.78131104 C-171.8431005 690.79136442 -170.05542293 690.79001663 -168.26789856 690.77484131 C-156.89282707 690.78181385 -148.71922148 693.54718105 -140.25 701.1875 C-132.64708987 709.43355798 -132.41943982 718.95725627 -132.49447632 729.67921448 C-132.4900268 731.15241391 -132.48382038 732.62560889 -132.47602141 734.0987944 C-132.45970539 738.12526988 -132.4680314 742.15136762 -132.48051262 746.17784274 C-132.48959963 750.52911621 -132.47553205 754.88032291 -132.46424866 759.23158264 C-132.44776997 766.76703004 -132.44560261 774.3023713 -132.45301437 781.8378315 C-132.46355157 792.75123075 -132.45011299 803.6645007 -132.43054982 814.57788276 C-132.39922716 832.31014167 -132.38420647 850.04237321 -132.38085938 867.7746582 C-132.38065539 868.835184 -132.3804514 869.89570979 -132.38024123 870.98837274 C-132.38003786 872.05017251 -132.37983449 873.11197229 -132.37962496 874.20594782 C-132.37670818 889.24155075 -132.36991049 904.27714521 -132.35839844 919.31274414 C-132.35759314 920.36984947 -132.35678785 921.4269548 -132.35595815 922.51609362 C-132.34217768 940.17520567 -132.32036838 957.83430273 -132.2945286 975.49340099 C-132.27912831 986.37132111 -132.27186327 997.24919199 -132.27532353 1008.12712281 C-132.27737206 1015.58955672 -132.27266563 1023.05196623 -132.26278017 1030.51439381 C-132.25737652 1034.81218113 -132.25522412 1039.1099051 -132.26195335 1043.40769196 C-132.26810092 1047.35394244 -132.26488255 1051.30007802 -132.25471647 1055.24631917 C-132.25266929 1056.66219415 -132.25389088 1058.07807916 -132.25900607 1059.49394638 C-132.2842779 1067.01472672 -131.98656779 1074.43702089 -131.17177773 1081.91050625 C-131.10265746 1082.58587813 -131.0335372 1083.26125001 -130.96232238 1083.9570877 C-130.29784848 1089.45782054 -128.8318888 1093.50433359 -127 1099 C-56.215 1099.495 -56.215 1099.495 16 1100 C18.76168315 1088.26284661 20.58590625 1078.87768718 20.49879456 1067.20411682 C20.50253405 1065.69513931 20.50803385 1064.18616533 20.51511139 1062.67719978 C20.52938905 1058.58460801 20.5192997 1054.49240386 20.50482833 1050.39982665 C20.49361512 1045.96565407 20.50574016 1041.53153486 20.51501465 1037.09736633 C20.52804795 1029.43051714 20.52698173 1021.76377719 20.51642036 1014.09692574 C20.50142047 1003.00134882 20.51143969 991.90589894 20.52793955 980.81032919 C20.55434321 962.78997187 20.56526148 944.76964321 20.56420898 926.74926758 C20.56415066 925.67292043 20.56409234 924.59657328 20.56403225 923.48760956 C20.56376638 919.12605952 20.56344909 914.7645095 20.56306899 910.40295947 C20.56210162 898.38135085 20.56343258 886.35974309 20.56616211 874.33813477 C20.566402 873.26098871 20.56664189 872.18384265 20.56688906 871.0740558 C20.57129681 853.10851808 20.58753126 835.14300696 20.6113829 817.17748493 C20.62543923 806.109429 20.62834641 795.04147423 20.61676001 783.97341483 C20.60943285 776.39475307 20.61250308 768.81614229 20.62371845 761.23748542 C20.62978495 756.86757774 20.63089753 752.4978128 20.61884117 748.12791443 C20.6078616 744.12428338 20.61073533 740.12090503 20.62438463 736.11728441 C20.62687094 734.67280539 20.6243281 733.22830662 20.61611075 731.78384883 C20.5467514 718.7446137 22.1969999 709.19603129 31.1875 699.375 C38.51353208 692.25378172 47.27489489 690.83348504 57.14453125 690.90234375 C57.91431808 690.9037587 58.68410492 690.90517365 59.47721863 690.90663147 C61.92235288 690.91220394 64.36739368 690.92475129 66.8125 690.9375 C68.47591013 690.94251856 70.1393217 690.94708085 71.80273438 690.95117188 C75.86852528 690.96216434 79.93424683 690.9794099 84 691 C84.45455566 692.07523926 84.90911133 693.15047852 85.37744141 694.25830078 C85.99350082 695.69577275 86.60989231 697.13310244 87.2265625 698.5703125 C87.52377197 699.27583252 87.82098145 699.98135254 88.12719727 700.70825195 C95.58947115 718.01395253 109.61630439 734.10222224 127 742 C127 742.66 127 743.32 127 744 C115.78010424 749.69158953 104.550444 753.05313066 92.0078125 753.609375 C90.84487671 753.66907471 90.84487671 753.66907471 89.65844727 753.72998047 C87.77259194 753.82594535 85.88632835 753.91383207 84 754 C84.00170874 755.02966546 84.00170874 755.02966546 84.003452 756.08013225 C84.07069473 796.83156821 84.12211438 837.5829977 84.15319599 878.33447807 C84.15694777 883.23568078 84.16083077 888.13688339 84.16479492 893.03808594 C84.16558185 894.01376137 84.16636878 894.98943681 84.16717956 895.99467817 C84.18020705 911.75950896 84.20384615 927.52430668 84.23145839 943.2891179 C84.25958671 959.48455014 84.27619191 975.67996515 84.28226548 991.87542081 C84.28636657 1001.85597973 84.29928433 1011.83644515 84.3237494 1021.81697527 C84.33969845 1028.67588172 84.34437979 1035.53474036 84.34050413 1042.39366397 C84.33859673 1046.3414251 84.34136504 1050.2890237 84.35761642 1054.23675537 C84.48955179 1088.00624414 82.11850604 1121.64409502 57.765625 1147.359375 C43.36620191 1161.38234259 27.44802987 1163.31588676 8.12475586 1163.25878906 C6.56449725 1163.26150545 5.00423993 1163.26506999 3.44398499 1163.26940918 C-0.75842083 1163.27845772 -4.96072746 1163.27502052 -9.16313481 1163.26865101 C-13.58088126 1163.2635526 -17.99861977 1163.26829298 -22.41636658 1163.27142334 C-29.83105987 1163.27505148 -37.24571318 1163.27029384 -44.66040039 1163.26074219 C-53.20942482 1163.24985585 -61.75835384 1163.25338918 -70.30737597 1163.264395 C-77.67419148 1163.273496 -85.04097843 1163.27473955 -92.40779775 1163.26951766 C-96.79601601 1163.26641391 -101.18418955 1163.26594453 -105.57240486 1163.27259064 C-109.69868331 1163.27840471 -113.82483973 1163.27429356 -117.95110512 1163.26280212 C-119.45745899 1163.2601773 -120.96382328 1163.26088296 -122.47017288 1163.26532745 C-140.75619237 1163.31427083 -155.35026638 1160.37887287 -168.8359375 1147.22265625 C-169.55007812 1146.48917969 -170.26421875 1145.75570313 -171 1145 C-171.61101562 1144.42121094 -172.22203125 1143.84242187 -172.8515625 1143.24609375 C-181.65405068 1134.26273252 -186.81945828 1121.71919352 -190.4375 1109.875 C-190.67218994 1109.11348633 -190.90687988 1108.35197266 -191.14868164 1107.56738281 C-194.57789358 1095.48458056 -195.29899437 1083.12105764 -195.24050903 1070.63014221 C-195.241384 1069.25188666 -195.24314029 1067.87363144 -195.24568737 1066.49537796 C-195.25010788 1062.75530337 -195.24223134 1059.01534579 -195.23213124 1055.27528608 C-195.22342154 1051.22438748 -195.22642217 1047.17349445 -195.22793579 1043.12258911 C-195.22897993 1036.11977665 -195.22275289 1029.11700171 -195.21146011 1022.11419868 C-195.19514376 1011.98956781 -195.18999086 1001.86495492 -195.18748413 991.74031233 C-195.18311661 975.31018168 -195.16983321 958.88007099 -195.15087891 942.44995117 C-195.13249562 926.49812926 -195.11835112 910.5463128 -195.10986328 894.59448242 C-195.10933783 893.60972774 -195.10881239 892.62497305 -195.10827102 891.61037732 C-195.10566077 886.66970928 -195.1031334 881.72904121 -195.10064721 876.78837311 C-195.07994411 835.85890153 -195.04474439 794.92945191 -195 754 C-196.13219971 753.94739014 -197.26439941 753.89478027 -198.4309082 753.84057617 C-199.95004949 753.76253608 -201.46917295 753.6841483 -202.98828125 753.60546875 C-203.73049927 753.57191284 -204.47271729 753.53835693 -205.23742676 753.50378418 C-228.62140194 752.25095766 -249.41841337 741.10548955 -265.25 724.1875 C-280.29437472 707.25734015 -287.50153643 685.81253753 -287.38768005 663.35159302 C-287.39306559 662.05235047 -287.39845113 660.75310793 -287.40399987 659.4144944 C-287.41831001 655.85124067 -287.41425566 652.28822107 -287.40683305 648.72495532 C-287.40206747 644.86526053 -287.41464092 641.00561396 -287.42485046 637.14593506 C-287.44197781 629.60123838 -287.44289115 622.05662521 -287.43763756 614.51191415 C-287.43358333 608.37488646 -287.43505423 602.23788331 -287.44038582 596.10085678 C-287.44113424 595.22480833 -287.44188266 594.34875988 -287.44265376 593.44616451 C-287.44418536 591.66603168 -287.44572371 589.88589886 -287.44726873 588.10576604 C-287.46097179 571.44160798 -287.45557151 554.77749697 -287.44408352 538.11334001 C-287.43415311 522.8963225 -287.4470924 507.67942662 -287.47101771 492.46242787 C-287.49544925 476.80444294 -287.50500665 461.14651456 -287.49836498 445.48851097 C-287.49488181 436.71099489 -287.49704505 427.93357229 -287.51461601 419.15607071 C-287.52938881 411.68427427 -287.52990745 404.21263715 -287.5125451 396.74084367 C-287.50407435 392.93521369 -287.5017883 389.12986772 -287.51719666 385.32425308 C-287.62748075 355.98312265 -287.62748075 355.98312265 -283 343 C-282.61167212 341.90514849 -282.22334425 340.81029697 -281.82324886 339.68226814 C-273.56080921 317.58926911 -256.05256945 299.41433322 -234.7734375 289.49609375 C-220.98225348 283.87559905 -206.69327488 282.33148013 -192 281 C-192.59425781 280.28199219 -193.18851562 279.56398438 -193.80078125 278.82421875 C-201.32929522 269.50459127 -207.23755137 259.48150123 -213 249 C-213.51433594 248.08605469 -214.02867187 247.17210937 -214.55859375 246.23046875 C-221.34075093 233.53338105 -225.88516472 219.00233823 -229 205 C-229.44859375 203.07607422 -229.44859375 203.07607422 -229.90625 201.11328125 C-234.7434836 177.80265523 -233.92611414 150.96537202 -228 128 C-227.78037598 127.11328613 -227.56075195 126.22657227 -227.33447266 125.31298828 C-224.32367856 113.327343 -220.34173542 102.13368544 -215 91 C-214.50628906 89.93394531 -214.01257813 88.86789063 -213.50390625 87.76953125 C-206.92821319 73.99443441 -197.78167954 60.16159115 -186.66796875 49.6328125 C-184.88205434 47.88454031 -183.2959609 46.03715632 -181.6875 44.125 C-164.6537609 24.53431993 -140.97428971 11.13381829 -117 2 C-116.34821777 1.74879395 -115.69643555 1.49758789 -115.02490234 1.23876953 C-78.63751928 -12.54882421 -36.68264569 -12.26876833 0 0 Z M-131 82 C-131.60328125 82.46277344 -132.2065625 82.92554688 -132.828125 83.40234375 C-152.52089672 98.54001173 -165.6959349 127.32015624 -168.98217773 151.42016602 C-171.75931713 174.28283319 -168.80051681 196.03632767 -159 217 C-158.72704102 217.58394531 -158.45408203 218.16789063 -158.17285156 218.76953125 C-153.72320301 228.11133483 -148.34145029 235.84191419 -141.36645508 243.47045898 C-140.42269494 244.52685656 -139.50447514 245.60643342 -138.6081543 246.70336914 C-134.86706408 251.2745512 -130.77236193 254.88511905 -126.0625 258.4375 C-125.31742188 259.00025635 -124.57234375 259.5630127 -123.8046875 260.14282227 C-98.55455052 278.80981126 -67.83268076 285.64824745 -36.7421875 281.37890625 C-14.82005801 277.62319725 4.26747411 267.36058077 21 253 C21.98355469 252.22011719 22.96710938 251.44023437 23.98046875 250.63671875 C27.23322808 247.92495889 29.79821519 244.84682072 32.375 241.5 C32.84760254 240.89051514 33.32020508 240.28103027 33.80712891 239.65307617 C54.41597306 212.63840347 61.7214749 181.15433068 57.41796875 147.55859375 C54.65645762 130.95709887 47.25117611 114.29882306 37 101 C35.93652344 99.6078125 35.93652344 99.6078125 34.8515625 98.1875 C15.14009575 73.28880516 -12.38275023 57.73617607 -44 54 C-75.57062142 51.62521874 -107.25581606 60.48709576 -131 82 Z " fill="#191919" transform="translate(287,63)"/>
</svg>
