<?xml version="1.0" encoding="UTF-8"?>
<svg version="1.1" xmlns="http://www.w3.org/2000/svg" width="2732" height="2732">
<path d="M0 0 C2.20974808 -0.00239378 4.41949536 -0.00566149 6.62924102 -0.0097166 C12.68560132 -0.01830639 18.74189935 -0.01452271 24.79826056 -0.00866088 C30.71206794 -0.00491277 36.62586458 -0.01062182 42.53966905 -0.01600846 C54.77458623 -0.02681363 67.009488 -0.02817311 79.24440861 -0.02431011 C91.63624371 -0.02042887 104.02806733 -0.02089675 116.41990185 -0.02661991 C117.59572335 -0.02715815 117.59572335 -0.02715815 118.79529881 -0.02770726 C121.98814988 -0.02918224 125.18100092 -0.03068664 128.37385195 -0.03222873 C160.75665322 -0.0478504 193.13944661 -0.05054413 225.52225097 -0.04807267 C229.99428063 -0.04773421 234.46631029 -0.04741211 238.93833995 -0.04710698 C239.82663712 -0.04704594 240.7149343 -0.04698489 241.63014956 -0.046922 C261.32916518 -0.04564929 281.02817971 -0.04825297 300.727195 -0.05163305 C305.22721264 -0.05240379 309.72723029 -0.05314853 314.22724793 -0.05389806 C316.03333492 -0.05419976 317.83942192 -0.05450164 319.64550891 -0.05480371 C320.54076421 -0.05495338 321.43601951 -0.05510306 322.35840376 -0.05525728 C324.16928286 -0.05556081 325.98016197 -0.05586549 327.79104107 -0.05617132 C379.16531807 -0.06484286 430.53959412 -0.06948934 481.91387177 -0.06522369 C483.34041787 -0.06510661 483.34041787 -0.06510661 484.79578308 -0.06498716 C495.40042782 -0.06411438 506.00507254 -0.06318512 516.60971727 -0.06223653 C518.04584122 -0.06210826 518.04584122 -0.06210826 519.51097777 -0.06197741 C527.46560439 -0.06126667 527.46560439 -0.06126667 531.12655288 -0.06093518 C592.36293039 -0.05539969 653.59929283 -0.06294135 714.83566761 -0.08170605 C730.26555948 -0.08642839 745.69545136 -0.09110896 761.12534332 -0.09554291 C762.55052806 -0.09595289 762.55052806 -0.09595289 764.00450441 -0.09637116 C793.29510006 -0.10474446 822.58569444 -0.1094223 851.87629128 -0.11025047 C853.25599689 -0.11029002 853.25599689 -0.11029002 854.66357534 -0.11033037 C874.85687648 -0.11087119 895.05017753 -0.11049861 915.24347864 -0.10929066 C922.46921656 -0.10886505 929.69495448 -0.10849992 936.92069241 -0.10816122 C938.71821468 -0.10807591 940.51573696 -0.10798698 942.31325924 -0.1078944 C970.93400928 -0.10644669 999.55474905 -0.11356493 1028.17549663 -0.12489836 C1057.80895435 -0.13655682 1087.44239378 -0.13710284 1117.07585158 -0.12505493 C1120.26124295 -0.12380315 1123.44663432 -0.12259966 1126.63202572 -0.12143421 C1127.4137534 -0.12114392 1128.19548107 -0.12085362 1129.00089747 -0.12055453 C1141.35463308 -0.11623732 1153.7083426 -0.12194566 1166.06207411 -0.1318744 C1178.22381629 -0.14143615 1190.38551842 -0.14020371 1202.5472583 -0.12766818 C1209.04678531 -0.12125807 1215.54623761 -0.11982129 1222.04576119 -0.13153151 C1227.9688826 -0.14210484 1233.8918306 -0.13865157 1239.81494286 -0.12442699 C1241.93436165 -0.12171832 1244.05379458 -0.12393217 1246.1732 -0.13193413 C1297.75832351 -0.31326576 1342.64120939 17.87833058 1379.66696644 53.81697559 C1420.01380137 95.49881609 1429.99129611 147.60369225 1430.01268482 203.6465807 C1430.0172581 206.19800564 1430.02225923 208.74942984 1430.02764839 211.30085319 C1430.03834097 216.82285141 1430.04604742 222.34484097 1430.05104733 227.86684704 C1430.05849841 236.07769841 1430.07159151 244.28853422 1430.08579308 252.49937634 C1430.10953193 266.31537292 1430.12876603 280.13137229 1430.14539242 293.94737911 C1430.16185875 307.61803093 1430.18035203 321.28867756 1430.20152569 334.95932293 C1430.2028433 335.81075763 1430.2041609 336.66219232 1430.20551844 337.53942807 C1430.21222094 341.86380344 1430.2189594 346.18817875 1430.2257117 350.51255404 C1430.27341745 381.10612897 1430.31661884 411.69970875 1430.35715199 442.29329395 C1430.39652867 472.00618817 1430.43795765 501.71907837 1430.48215199 531.43196583 C1430.48351451 532.34857427 1430.48487704 533.26518271 1430.48628086 534.20956716 C1430.49996677 543.41490464 1430.51369426 552.62024205 1430.5274522 561.82557942 C1430.55547535 580.57628676 1430.58322104 599.32699452 1430.61079884 618.07770252 C1430.61206703 618.93974428 1430.61333523 619.80178604 1430.61464186 620.68995028 C1430.69923324 678.21145219 1430.77733747 735.73296325 1430.85446644 793.25447559 C1437.29001411 787.05088598 1443.69799172 780.82046154 1450.07269859 774.55436516 C1453.03382008 771.64537904 1456.00348512 768.74639514 1458.9948473 765.86848927 C1461.88281239 763.08938315 1464.74546285 760.28636284 1467.59242535 757.46528912 C1468.68139416 756.39476241 1469.77911275 755.33306008 1470.88559628 754.28064632 C1477.02600277 748.8519058 1477.02600277 748.8519058 1480.31363392 741.6843462 C1480.07922976 739.36540031 1479.60584752 737.45410784 1478.85446644 735.25447559 C1478.55177612 733.82239258 1478.26109729 732.3876708 1477.98727894 730.94978809 C1477.74412952 729.8506609 1477.74412952 729.8506609 1477.496068 728.72932911 C1466.81844066 680.1602539 1470.22297482 629.33422703 1485.85446644 582.25447559 C1486.09858265 581.50488575 1486.34269886 580.75529591 1486.59421253 579.98299122 C1496.95398241 548.59637133 1513.7675391 519.61217302 1534.85446644 494.25447559 C1535.26326038 493.75544727 1535.67205433 493.25641895 1536.09323597 492.74226856 C1547.65983068 478.65731267 1560.36176681 465.34861763 1574.85446644 454.25447559 C1576.09250732 453.26622086 1577.32939931 452.27652587 1578.56540394 451.28572559 C1622.73346245 416.25588608 1680.43416402 393.5598505 1737.14743519 393.01619434 C1738.00377048 393.00640049 1738.86010578 392.99660664 1739.74239063 392.986516 C1785.64925215 392.57057153 1829.29835224 399.86323319 1870.85446644 420.25447559 C1871.71668812 420.67599903 1872.5789098 421.09752247 1873.46725941 421.53181934 C1902.84570761 436.0460756 1932.95219403 456.91284846 1954.16696644 482.25838184 C1956.05622612 484.49313115 1958.04711034 486.61356753 1960.04196644 488.75447559 C2010.44993734 544.81087787 2029.8743311 619.32543787 2026.85446644 693.25447559 C2026.36969833 701.35062418 2025.31597967 709.28102973 2023.85446644 717.25447559 C2023.68285999 718.22513966 2023.51125355 719.19580372 2023.33444691 720.19588184 C2016.41899572 758.51205464 2001.94836 796.67374953 1978.85446644 828.25447559 C1978.37622425 828.91238087 1977.89798206 829.57028614 1977.40524769 830.24812794 C1965.09045819 847.109734 1952.01375143 863.88633983 1935.85446644 877.25447559 C1934.38880238 878.551917 1934.38880238 878.551917 1932.89352894 879.87556934 C1917.76895883 893.24782142 1901.3439823 904.22383476 1883.85446644 914.25447559 C1883.2257262 914.623792 1882.59698597 914.99310841 1881.949193 915.37361622 C1825.3555404 948.53717959 1755.03336002 955.38008256 1691.68259144 942.37556934 C1682.72841348 940.28601705 1682.72841348 940.28601705 1673.85446644 941.25447559 C1673.52446644 942.24447559 1673.19446644 943.23447559 1672.85446644 944.25447559 C1672.19446644 944.25447559 1671.53446644 944.25447559 1670.85446644 944.25447559 C1670.85446644 944.91447559 1670.85446644 945.57447559 1670.85446644 946.25447559 C1669.23269948 947.9648637 1667.55567602 949.62308309 1665.85446644 951.25447559 C1664.90947626 952.21580943 1663.96808671 953.18069535 1663.03024769 954.14900684 C1662.07584554 955.12168756 1661.12141832 956.09434368 1660.16696644 957.06697559 C1659.68163441 957.56906544 1659.19630238 958.07115528 1658.69626331 958.58845997 C1657.45322038 959.84864832 1656.15746752 961.05638603 1654.85446644 962.25447559 C1654.19446644 962.25447559 1653.53446644 962.25447559 1652.85446644 962.25447559 C1652.59472034 962.83874317 1652.33497425 963.42301075 1652.06735706 964.02498341 C1650.76981043 966.41008723 1649.36105521 968.00638196 1647.44821644 969.92635059 C1646.78692738 970.59021778 1646.12563831 971.25408497 1645.44431019 971.93806934 C1644.75466175 972.61998341 1644.06501331 973.30189747 1643.35446644 974.00447559 C1642.664818 974.70185841 1641.97516956 975.39924122 1641.26462269 976.11775684 C1640.60333363 976.77646778 1639.94204456 977.43517872 1639.26071644 978.11385059 C1638.65550159 978.71680958 1638.05028675 979.31976856 1637.42673206 979.94099903 C1635.85446644 981.25447559 1635.85446644 981.25447559 1633.85446644 981.25447559 C1633.64139662 981.79258492 1633.4283268 982.33069424 1633.20880032 982.8851099 C1631.35464177 986.12890355 1628.82000679 988.55732395 1626.1851244 991.16432667 C1625.59946756 991.75169235 1625.01381072 992.33905804 1624.41040671 992.94422269 C1622.44514862 994.91277717 1620.47282351 996.87409438 1618.50046253 998.83553028 C1617.09088893 1000.24453981 1615.68175545 1001.65398975 1614.27303028 1003.06384754 C1610.44509211 1006.89236035 1606.61101168 1010.71466845 1602.77581835 1014.53591156 C1598.76970897 1018.5295321 1594.76924954 1022.52880397 1590.76819324 1026.52748585 C1583.18970073 1034.09975817 1575.60612365 1041.6669171 1568.02071726 1049.23226285 C1559.3857007 1057.84493722 1550.75635154 1066.46328036 1542.12747931 1075.08210993 C1524.37611779 1092.81255723 1506.61763293 1110.53585561 1488.85446644 1128.25447559 C1492.82018416 1133.00849453 1496.9570639 1137.49356745 1501.35513783 1141.84848499 C1501.98207578 1142.47345511 1502.60901373 1143.09842523 1503.25494981 1143.74233383 C1505.3388075 1145.81852409 1507.42623698 1147.89108502 1509.51364613 1149.96370411 C1511.01577456 1151.45899586 1512.51764986 1152.95454193 1514.01929188 1154.45032215 C1517.24604475 1157.66377727 1520.47420704 1160.87580749 1523.70336628 1164.08684444 C1528.81859502 1169.17413864 1533.92832664 1174.26692984 1539.03690052 1179.36090565 C1540.78966733 1181.1085289 1542.54244067 1182.85614562 1544.29522038 1184.60375595 C1545.61165901 1185.91631625 1545.61165901 1185.91631625 1546.95469236 1187.25539291 C1558.84113361 1199.10586363 1570.73223907 1210.95162295 1582.63376331 1222.7869463 C1590.67218515 1230.78074352 1598.70335893 1238.78174758 1606.72652841 1246.79085392 C1610.96575802 1251.02204388 1615.20857218 1255.24949153 1619.46038532 1259.46803951 C1623.46472791 1263.44110757 1627.45945893 1267.42359851 1631.44732761 1271.41319942 C1632.9038079 1272.86700555 1634.36367325 1274.31743044 1635.82734776 1275.76399326 C1656.80907998 1296.51121994 1671.8123232 1320.16748105 1672.23459339 1350.60359669 C1672.20860977 1367.20589314 1670.15544169 1381.16152383 1662.85446644 1396.25447559 C1662.41360706 1397.17615528 1661.97274769 1398.09783497 1661.51852894 1399.04744434 C1657.84853395 1406.23536271 1653.12664258 1412.1768281 1647.85446644 1418.25447559 C1647.17384144 1419.06916309 1646.49321644 1419.88385059 1645.79196644 1420.72322559 C1642.29257931 1424.86416702 1642.29257931 1424.86416702 1640.85446644 1426.25447559 C1640.19446644 1426.25447559 1639.53446644 1426.25447559 1638.85446644 1426.25447559 C1638.6197765 1426.81368702 1638.38508656 1427.37289845 1638.1432848 1427.94905567 C1636.53706085 1430.82224619 1634.55852254 1432.80980905 1632.23337269 1435.14119434 C1631.773978 1435.60250248 1631.31458332 1436.06381062 1630.84126759 1436.53909779 C1629.86611029 1437.5156136 1628.88843261 1438.48961815 1627.90842152 1439.4612627 C1626.44609504 1440.91305679 1624.99452975 1442.37497088 1623.54391956 1443.83845997 C1601.39585175 1466.02139216 1576.44367789 1482.09998973 1544.35446644 1482.50447559 C1526.1135623 1482.49363727 1508.69656847 1477.6892393 1493.13156605 1468.20125294 C1489.65888526 1466.10763265 1488.01697209 1465.25447559 1483.85446644 1465.25447559 C1463.44364965 1476.401414 1437.90515504 1498.54052115 1429.93494987 1520.82547379 C1422.05531315 1548.01442861 1425.29569174 1579.12801619 1426.70475376 1607.01983464 C1427.25682882 1618.14490383 1427.50628544 1629.27106497 1427.73101008 1640.40682828 C1428.00591195 1654.011397 1428.31261527 1667.61141552 1428.87407398 1681.2075243 C1428.91244605 1682.15996324 1428.95081813 1683.11240218 1428.99035299 1684.09370291 C1429.17043148 1688.53487264 1429.36259803 1692.97485355 1429.57802296 1697.41444874 C1430.13460434 1709.91993757 1429.64096226 1719.9613681 1421.85446644 1730.25447559 C1419.68335611 1732.52601173 1417.40982278 1734.43181621 1414.85446644 1736.25447559 C1414.05009144 1736.83197559 1413.24571644 1737.40947559 1412.41696644 1738.00447559 C1404.22969084 1741.99826857 1395.76005287 1741.51773475 1386.85446644 1741.44978809 C1385.40858628 1741.44605179 1383.96270356 1741.44320774 1382.51681995 1741.44121265 C1378.73568029 1741.43362474 1374.95469751 1741.41401867 1371.17361927 1741.3918047 C1367.30553782 1741.37124117 1363.4374307 1741.3621886 1359.56931019 1741.35213184 C1351.99762456 1741.33076752 1344.42606759 1741.29669108 1336.85446644 1741.25447559 C1336.85815361 1742.1101629 1336.86184078 1742.9658502 1336.86563969 1743.84746742 C1336.95409462 1764.69760021 1337.02022657 1785.54770051 1337.06171513 1806.39798164 C1337.08231354 1816.48115573 1337.11038203 1826.56420433 1337.15622425 1836.64729786 C1337.19617542 1845.43885469 1337.22191902 1854.2303206 1337.23082042 1863.02196568 C1337.23602117 1867.6742683 1337.24818782 1872.3263109 1337.27738667 1876.97852993 C1337.30468678 1881.36406562 1337.31288216 1885.749236 1337.30689716 1890.13484859 C1337.30799091 1891.73796803 1337.31585752 1893.34110062 1337.33128834 1894.94414616 C1337.43425114 1906.19968595 1336.78005479 1916.92533394 1328.72946644 1925.62947559 C1328.04626331 1926.40033497 1327.36306019 1927.17119434 1326.65915394 1927.96541309 C1315.85874557 1936.78023107 1305.0691935 1935.96096941 1291.73023129 1935.88647461 C1289.4369282 1935.89199525 1287.14362953 1935.89970517 1284.85034031 1935.90940431 C1278.52932874 1935.92974971 1272.20869359 1935.91886965 1265.88768328 1935.90301473 C1259.72663682 1935.89000856 1253.56562552 1935.90548743 1247.40458832 1935.91779346 C1234.64998406 1935.94241997 1221.89547655 1935.9433028 1209.14085865 1935.93125248 C1196.21554242 1935.91912267 1183.2902931 1935.91783589 1170.36497593 1935.92977428 C1169.54857405 1935.93052063 1168.73217217 1935.93126697 1167.89103083 1935.93203593 C1164.56594466 1935.93511066 1161.24085857 1935.93826117 1157.91577257 1935.94150822 C1124.15885112 1935.97444219 1090.40198201 1935.97524303 1056.64504997 1935.96364923 C1051.98027401 1935.96205899 1047.31549803 1935.96052033 1042.65072203 1935.95903468 C1041.26093369 1935.9585919 1041.26093369 1935.9585919 1039.84306881 1935.95814017 C1018.37839947 1935.95154068 996.91373598 1935.95620842 975.44906712 1935.96249294 C973.57505117 1935.96302738 971.70103521 1935.96355975 969.82701926 1935.96409006 C962.29627789 1935.96622593 954.76553652 1935.96839017 947.23479517 1935.9706026 C926.18250182 1935.97674435 905.13020827 1935.98112709 884.07791424 1935.98409462 C883.11920141 1935.98422981 882.16048859 1935.984365 881.17272386 1935.98450429 C850.61914177 1935.98867783 820.06556575 1935.98495882 789.51198483 1935.97600555 C788.02529559 1935.97557235 788.02529559 1935.97557235 786.50857223 1935.97513039 C770.41291549 1935.97042438 754.31725887 1935.96538349 738.22160225 1935.96030789 C674.38777377 1935.94020344 610.55401167 1935.94842157 546.72018909 1935.98177052 C530.63507122 1935.99015619 514.54995331 1935.99846981 498.46483517 1936.00632477 C496.97923452 1936.00705177 496.97923452 1936.00705177 495.46362174 1936.00779345 C464.94394883 1936.02263147 434.42428145 1936.03005575 403.90460491 1936.02958107 C402.94656743 1936.02956668 401.98852995 1936.0295523 401.00146104 1936.02953747 C379.97140203 1936.02914081 358.94134355 1936.02686756 337.91128493 1936.02288975 C330.38660912 1936.02147667 322.86193329 1936.02017231 315.33725746 1936.01890817 C313.46528643 1936.0185907 311.59331541 1936.01826558 309.72134439 1936.01793276 C279.88240397 1936.01266479 250.04349954 1936.02408314 220.20456591 1936.04348716 C189.32096142 1936.06340317 158.43743001 1936.06094358 127.55383076 1936.03304984 C124.23814027 1936.03014091 120.92244971 1936.02732732 117.60675907 1936.02458858 C116.79302516 1936.02390767 115.97929125 1936.02322676 115.14089874 1936.02252521 C102.25063169 1936.01227846 89.36046167 1936.02213878 76.47020669 1936.0403358 C63.79841701 1936.05779935 51.12678405 1936.05386306 38.45500899 1936.02708731 C31.67512255 1936.01334268 24.89561743 1936.00977281 18.11574222 1936.03216859 C11.94976539 1936.05233998 5.78446218 1936.04498242 -0.38147167 1936.01552208 C-2.59996739 1936.00976461 -4.81851763 1936.01408635 -7.03696624 1936.02964704 C-30.30534369 1936.18152046 -30.30534369 1936.18152046 -40.34865498 1927.30795119 C-48.45561897 1919.17122349 -50.24500878 1908.47895253 -50.27733472 1897.41671616 C-50.27482584 1896.55087891 -50.27231696 1895.68504165 -50.26973206 1894.7929669 C-50.27164919 1893.38374808 -50.27164919 1893.38374808 -50.27360505 1891.94606019 C-50.27667694 1888.78597776 -50.27260015 1885.62594497 -50.26858139 1882.46586418 C-50.26932088 1880.17243204 -50.2704993 1877.879 -50.27207789 1875.58556828 C-50.27515562 1869.25039803 -50.27196456 1862.91524375 -50.26779975 1856.58007468 C-50.26423405 1850.4095526 -50.2663696 1844.23903108 -50.26788332 1838.06850859 C-50.27085009 1825.29133242 -50.2690753 1812.51416081 -50.26473904 1799.73698521 C-50.26036321 1786.78625212 -50.25816619 1773.8355214 -50.25864124 1760.88478756 C-50.25866994 1760.06726599 -50.25869863 1759.24974442 -50.25872819 1758.40744947 C-50.25888456 1754.23901502 -50.25907651 1750.07058058 -50.25928103 1745.90214614 C-50.2606891 1715.71870604 -50.25725567 1685.53526803 -50.25126362 1655.35182858 C-50.24534297 1625.45670086 -50.24148889 1595.56157403 -50.2404108 1565.66644573 C-50.24035919 1564.27426521 -50.24035919 1564.27426521 -50.24030653 1562.85395982 C-50.23999333 1554.37712161 -50.23970564 1545.9002834 -50.23944855 1537.42344519 C-50.23880912 1516.35013099 -50.23784978 1495.27681682 -50.23667336 1474.20350266 C-50.23659338 1472.76398815 -50.23659338 1472.76398815 -50.23651179 1471.29539255 C-50.2338897 1424.60247262 -50.22758191 1377.9095533 -50.22097301 1331.2166338 C-50.21868137 1315.01133188 -50.21640602 1298.80602996 -50.21419811 1282.60072803 C-50.21406116 1281.59568586 -50.21392421 1280.59064368 -50.21378311 1279.55514568 C-50.20744008 1232.84105761 -50.20371378 1186.12696943 -50.20066332 1139.41288104 C-50.20046525 1136.38049976 -50.20026606 1133.34811847 -50.20006664 1130.31573719 C-50.19874687 1110.22013864 -50.19747222 1090.12454008 -50.19622778 1070.02894152 C-50.19375122 1030.0430306 -50.19100953 990.05711971 -50.18808573 950.07120882 C-50.18794649 948.16693708 -50.18780744 946.26266534 -50.18766857 944.35839359 C-50.18141477 858.62266347 -50.17207661 772.88693379 -50.1614027 687.15120411 C-50.16130277 686.34833767 -50.16120283 685.54547123 -50.16109987 684.7182755 C-50.15609932 644.56367551 -50.15092279 604.40907554 -50.14553356 564.25447559 C-50.9820725 564.26000635 -50.9820725 564.26000635 -51.83551121 564.26564884 C-65.4416384 564.3542087 -79.04771471 564.42003047 -92.65406895 564.46172428 C-99.23417841 564.48256745 -105.81407928 564.51082596 -112.39406872 564.55623341 C-118.74831336 564.59980686 -125.10235782 564.62363729 -131.45674038 564.63398457 C-133.87675278 564.64135523 -136.29675467 564.65574831 -138.71668148 564.67739582 C-142.1155666 564.70658173 -145.51363243 564.71042513 -148.91262341 564.70857716 C-149.90525188 564.72295826 -150.89788036 564.73733936 -151.92058849 564.75215626 C-161.51530832 564.69598903 -169.32406914 561.89205308 -176.32522106 555.23103809 C-186.25425268 544.44972908 -186.44705344 533.45800477 -186.39950085 519.29173756 C-186.40180849 517.78768239 -186.40498705 516.28362836 -186.40895534 514.77957666 C-186.41727118 510.66777543 -186.41319261 506.55606756 -186.4069829 502.44426608 C-186.40244584 498.00093038 -186.40944865 493.55761039 -186.41494274 489.11427784 C-186.42382719 480.41532982 -186.42191831 471.71641634 -186.41611746 463.01746698 C-186.41159435 455.94026148 -186.41099089 448.86306564 -186.41316509 441.78585911 C-186.41347156 440.77720625 -186.41377802 439.7685534 -186.41409378 438.7293353 C-186.41473326 436.67992326 -186.41538169 434.63051123 -186.41603896 432.5810992 C-186.42174023 413.36833003 -186.41518905 394.15557995 -186.40443823 374.94281392 C-186.39551649 358.49053921 -186.39704377 342.03829275 -186.40627575 325.58601856 C-186.41700544 306.45587556 -186.42117665 287.32574932 -186.41505122 268.19560373 C-186.41441417 266.15081907 -186.41378543 264.1060344 -186.41316509 262.06124973 C-186.41285654 261.05534949 -186.41254799 260.04944926 -186.41223009 259.01306719 C-186.41051021 251.95708463 -186.41340321 244.90111278 -186.4181242 237.84513187 C-186.42376369 229.22715028 -186.42215319 220.60920507 -186.41156271 211.99122758 C-186.40634487 207.60193251 -186.40418179 203.21269784 -186.41086102 198.82340336 C-186.47140502 155.39087159 -186.47140502 155.39087159 -181.52053356 135.75447559 C-181.26183483 134.70969044 -181.0031361 133.66490528 -180.73659801 132.58845997 C-172.9972915 102.64278886 -157.15286847 76.74023178 -136.14553356 54.25447559 C-135.34760387 53.39080372 -134.54967419 52.52713184 -133.72756481 51.63728809 C-98.48648202 14.8500761 -49.79576304 -0.11281528 0 0 Z M-91.73879528 103.64070606 C-109.82697051 124.39093831 -119.51186201 149.83570682 -119.38604259 177.29517078 C-119.38691644 178.68647331 -119.38867071 180.07777551 -119.39122093 181.46907598 C-119.39566331 185.26379326 -119.38773394 189.05839625 -119.3776648 192.85309899 C-119.36898743 196.95587492 -119.37195349 201.05864497 -119.37346935 205.1614275 C-119.3745155 212.26034719 -119.36826719 219.35922997 -119.35699368 226.45814037 C-119.34070494 236.72183158 -119.33552722 246.98550504 -119.33301769 257.24920777 C-119.32864588 273.90339895 -119.31535072 290.55757047 -119.29641247 307.21175098 C-119.27804037 323.38492707 -119.26389038 339.55809781 -119.25539684 355.73128223 C-119.2548714 356.72903579 -119.25434595 357.72678935 -119.25380458 358.75477787 C-119.25119441 363.76046473 -119.24866702 368.76615162 -119.24618077 373.77183855 C-119.22546426 415.26606835 -119.18860313 456.76026179 -119.14553356 498.25447559 C-96.37553356 498.25447559 -73.60553356 498.25447559 -50.14553356 498.25447559 C-50.12571423 489.37565479 -50.10589489 480.49683399 -50.08547497 471.34895802 C-50.02063457 442.92342239 -49.9460998 414.49791956 -49.86548195 386.07242448 C-49.85296344 381.65532519 -49.84053061 377.23822566 -49.82815075 372.82112598 C-49.82445176 371.50210707 -49.82445176 371.50210707 -49.82067804 370.15644131 C-49.78098023 355.92782484 -49.74821972 341.69920046 -49.71803375 327.47056099 C-49.68689346 312.86507386 -49.64827306 298.25962024 -49.60274351 283.65417081 C-49.57489576 274.64558342 -49.55284665 265.63702048 -49.53827105 256.62840167 C-49.5277095 250.44654084 -49.50986652 244.26472741 -49.48636653 238.08290233 C-49.47303166 234.51908234 -49.46284127 230.95532863 -49.46131992 227.39148235 C-49.45958283 223.51979592 -49.44247867 219.64826067 -49.42400646 215.7766161 C-49.4259412 214.66082761 -49.42787593 213.54503911 -49.42986929 212.39543885 C-49.34264978 200.13406921 -47.86091503 189.8893225 -39.54787731 180.43806934 C-31.50316935 172.84979871 -21.98588663 171.66212668 -11.35207653 171.70857716 C-10.1119128 171.69823948 -8.87174908 171.6879018 -7.59400463 171.67725086 C-4.2246025 171.65296893 -0.85602989 171.64598132 2.51340055 171.64697075 C6.04618785 171.64382294 9.57881355 171.61816629 13.111516 171.59499073 C19.78709077 171.55456918 26.46256821 171.5341228 33.13824642 171.52101684 C40.74422457 171.5050996 48.35003817 171.46666436 55.95592046 171.42642355 C71.58872009 171.34421434 87.22148675 171.29000402 102.85446644 171.25447559 C102.5448429 168.52115192 102.2320615 165.78825175 101.91745472 163.05550098 C101.83050846 162.28503689 101.7435622 161.51457279 101.65398121 160.7207613 C98.46551649 133.17584067 82.6408048 107.77317113 61.16696644 90.56697559 C13.8745884 54.06046425 -51.48932884 59.57224585 -91.73879528 103.64070606 Z M129.85446644 66.25447559 C130.26456959 66.79766941 130.67467274 67.34086323 131.09720325 67.90051746 C131.63617237 68.61633488 132.17514149 69.33215229 132.730443 70.06966114 C133.26429615 70.77785496 133.7981493 71.48604877 134.34817982 72.21570301 C159.49102652 106.24677373 168.18255377 145.20859502 168.11617947 186.72927475 C168.11936981 189.32707093 168.12343378 191.92486615 168.12828875 194.52265975 C168.13744287 200.17357404 168.1392521 205.82445312 168.13618763 211.47537344 C168.13164014 219.9347874 168.13867616 228.39416531 168.14791933 236.85357404 C168.1633421 251.27290213 168.16936603 265.69222037 168.1702528 280.11155605 C168.17118981 294.71986726 168.1764838 309.3281673 168.18708324 323.9364748 C168.18775057 324.85974567 168.18841789 325.78301655 168.18910544 326.73426533 C168.19252829 331.44217105 168.19602192 336.15007672 168.19954054 340.85798238 C168.22485278 374.91927201 168.24054301 408.98056062 168.25112247 443.04185772 C168.26162699 476.77091208 168.27625444 510.49996055 168.29640293 544.22901058 C168.29702691 545.27671123 168.2976509 546.32441188 168.29829379 547.40386103 C168.30399515 556.97306757 168.30974728 566.54227408 168.31556032 576.11148055 C168.33000992 599.89888911 168.34382283 623.68629802 168.35720348 647.4737072 C168.3578133 648.55690369 168.35842312 649.64010018 168.35905142 650.75612081 C168.38865621 703.44054745 168.41092507 756.12497684 168.43259144 808.80940723 C168.44011373 827.09086071 168.44766847 845.37231418 168.45535755 863.65376759 C168.45607282 865.35450627 168.45607282 865.35450627 168.45680255 867.08960332 C168.47901434 919.79790583 168.50645841 972.50620523 168.53520779 1025.21450453 C168.53708812 1028.66334781 168.538965 1032.11219109 168.54084074 1035.56103437 C168.56039046 1071.50326684 168.58019162 1107.44549918 168.60010183 1143.38773145 C168.60067065 1144.41460124 168.60123946 1145.44147103 168.60182552 1146.49945809 C168.60286066 1148.36788722 168.60389608 1150.23631636 168.60493194 1152.10474549 C168.70137173 1326.15465067 168.77628152 1500.20455945 168.85446644 1674.25447559 C562.87446644 1674.25447559 956.89446644 1674.25447559 1362.85446644 1674.25447559 C1362.85446644 1624.09447559 1362.85446644 1573.93447559 1362.85446644 1522.25447559 C1359.98194783 1519.38195699 1357.10917511 1516.51009825 1354.2292223 1513.64510059 C1350.54061743 1509.97433416 1346.85509886 1506.30048549 1343.17062855 1502.62556934 C1341.58395552 1501.04394475 1339.9963889 1499.46321609 1338.40793324 1497.88338184 C1336.10518453 1495.59278171 1333.80569753 1493.29895024 1331.50681019 1491.00447559 C1330.44574306 1489.9511504 1330.44574306 1489.9511504 1329.36324024 1488.87654591 C1326.57531268 1486.08893535 1323.94581731 1483.37032507 1321.50119495 1480.27010059 C1320.95777454 1479.60494434 1320.41435413 1478.93978809 1319.85446644 1478.25447559 C1319.19446644 1478.25447559 1318.53446644 1478.25447559 1317.85446644 1478.25447559 C1317.85446644 1477.59447559 1317.85446644 1476.93447559 1317.85446644 1476.25447559 C1317.13259144 1475.67697559 1316.41071644 1475.09947559 1315.66696644 1474.50447559 C1312.57767144 1472.0330396 1310.352597 1469.31468553 1307.85446644 1466.25447559 C1304.38872942 1462.42997761 1304.38872942 1462.42997761 1299.85446644 1460.25447559 C1299.85446644 1459.59447559 1299.85446644 1458.93447559 1299.85446644 1458.25447559 C1298.23647142 1456.61772051 1298.23647142 1456.61772051 1296.16696644 1454.94197559 C1292.9090833 1452.17162779 1289.84016489 1449.3208686 1286.85446644 1446.25447559 C1286.02946644 1445.42947559 1285.20446644 1444.60447559 1284.35446644 1443.75447559 C1281.85446644 1441.25447559 1279.35446644 1438.75447559 1276.85446644 1436.25447559 C1276.00884144 1435.42947559 1275.16321644 1434.60447559 1274.29196644 1433.75447559 C1271.85446644 1431.25447559 1271.85446644 1431.25447559 1270.04196644 1428.87947559 C1267.55245751 1425.89206488 1264.77649132 1423.54685147 1261.81931019 1421.03572559 C1260.00639678 1419.39220966 1258.49902858 1417.72882826 1256.97946644 1415.81697559 C1256.27821644 1414.97135059 1255.57696644 1414.12572559 1254.85446644 1413.25447559 C1254.19446644 1413.25447559 1253.53446644 1413.25447559 1252.85446644 1413.25447559 C1252.85446644 1412.59447559 1252.85446644 1411.93447559 1252.85446644 1411.25447559 C1252.19446644 1411.25447559 1251.53446644 1411.25447559 1250.85446644 1411.25447559 C1250.85446644 1410.59447559 1250.85446644 1409.93447559 1250.85446644 1409.25447559 C1250.19446644 1409.25447559 1249.53446644 1409.25447559 1248.85446644 1409.25447559 C1248.85446644 1408.59447559 1248.85446644 1407.93447559 1248.85446644 1407.25447559 C1247.46534883 1405.84636239 1247.46534883 1405.84636239 1245.66696644 1404.44197559 C1242.52346177 1401.88745002 1239.71028258 1399.12821296 1236.85446644 1396.25447559 C1235.77098821 1395.17103042 1234.68702969 1394.08806541 1233.60268497 1393.00548744 C1233.00465258 1392.40807175 1232.40662018 1391.81065605 1231.79046559 1391.19513685 C1230.82697969 1390.23267412 1230.82697969 1390.23267412 1229.84402943 1389.25076771 C1228.40218746 1387.81039227 1226.96034906 1386.37001326 1225.51851368 1384.92963123 C1224.75190355 1384.16379656 1223.98529343 1383.39796188 1223.19545269 1382.6089201 C1206.09405061 1365.5246512 1188.99519798 1348.43783265 1171.89814104 1331.34921553 C1169.37465014 1328.82697514 1166.85113733 1326.30475667 1164.32761097 1323.78255177 C1163.82528689 1323.28049 1163.32296281 1322.77842823 1162.80541679 1322.26115247 C1154.65027596 1314.11037417 1146.49337176 1305.96136273 1138.33582774 1297.81298969 C1129.9592961 1289.44579674 1121.58465261 1281.07671748 1113.21177268 1272.70587033 C1108.51098912 1268.00633707 1103.80926531 1263.30775059 1099.10548115 1258.61122036 C1094.68748612 1254.19998495 1090.27181285 1249.78643909 1085.85795116 1245.371068 C1084.23378705 1243.74718016 1082.60875869 1242.12415622 1080.98282528 1240.50203991 C1078.77190495 1238.29605818 1076.56404877 1236.08705562 1074.35696888 1233.87723255 C1073.70572206 1233.22889857 1073.05447524 1232.58056459 1072.38349366 1231.91258413 C1067.96858813 1227.48271898 1067.96858813 1227.48271898 1066.85446644 1225.25447559 C1066.19446644 1225.25447559 1065.53446644 1225.25447559 1064.85446644 1225.25447559 C1064.52446644 1224.26447559 1064.19446644 1223.27447559 1063.85446644 1222.25447559 C1062.38959713 1220.80373344 1062.38959713 1220.80373344 1060.60446644 1219.44197559 C1058.22045173 1217.47866936 1056.41244844 1215.72178724 1054.41696644 1213.31697559 C1051.74273118 1210.12093834 1048.86113749 1207.60156888 1045.69821644 1204.91072559 C1043.4571994 1202.89760859 1041.72657543 1200.60970948 1039.85446644 1198.25447559 C1038.13116734 1196.69351627 1036.35811921 1195.20535312 1034.57321644 1193.71541309 C1032.192939 1191.69217727 1030.03623288 1189.48945585 1027.85446644 1187.25447559 C1027.17770863 1186.58803028 1026.50095081 1185.92158497 1025.80368519 1185.23494434 C1025.077943 1184.51951466 1024.35220081 1183.80408497 1023.60446644 1183.06697559 C1022.91868519 1182.39279591 1022.23290394 1181.71861622 1021.52634144 1181.02400684 C1019.85446644 1179.25447559 1019.85446644 1179.25447559 1018.85446644 1177.25447559 C1018.19446644 1177.25447559 1017.53446644 1177.25447559 1016.85446644 1177.25447559 C1016.85446644 1176.59447559 1016.85446644 1175.93447559 1016.85446644 1175.25447559 C1015.46534883 1173.84636239 1015.46534883 1173.84636239 1013.66696644 1172.44197559 C1010.55209348 1169.85982739 1007.68071583 1167.15509997 1004.85446644 1164.25447559 C1003.64790394 1163.07885059 1003.64790394 1163.07885059 1002.41696644 1161.87947559 C1000.44987269 1159.86440395 998.65296952 1157.84925934 996.85446644 1155.69197559 C994.42251498 1152.81219676 991.84892036 1150.55790168 988.85446644 1148.25447559 C987.16683792 1146.60903779 985.50043154 1144.94158983 983.85446644 1143.25447559 C983.02946644 1142.45010059 982.20446644 1141.64572559 981.35446644 1140.81697559 C978.85446644 1138.25447559 978.85446644 1138.25447559 976.41696644 1135.25447559 C973.78695412 1132.17543678 970.99196304 1129.80369158 967.85446644 1127.25447559 C965.20937672 1124.73841465 962.83099745 1122.22529794 960.54196644 1119.37947559 C958.6276264 1117.03972666 956.59351653 1115.08864633 954.29196644 1113.12947559 C948.98402586 1108.60864407 944.14694871 1103.62809626 939.25339222 1098.66951466 C937.12995621 1096.52162022 934.99197944 1094.38834718 932.85446644 1092.25447559 C911.85446644 1071.25447559 911.85446644 1071.25447559 909.50290394 1068.89119434 C907.38666739 1066.78432168 905.25466309 1064.69781903 903.11227894 1062.61775684 C881.77623579 1041.78397942 881.77623579 1041.78397942 881.47336292 1028.5459795 C881.53548063 1007.76884874 895.72978877 997.22697332 909.51462269 983.49666309 C910.91445495 982.09870001 912.31406357 980.70051293 913.71345997 979.30211353 C917.36570502 975.65365433 921.02094488 972.00821037 924.67685413 968.36342335 C928.41954112 964.63103584 932.15933621 960.89575306 935.89938831 957.16072559 C943.21494802 949.8558337 950.53368037 942.5541295 957.85446644 935.25447559 C957.38613392 934.45565968 956.9178014 933.65684376 956.43527699 932.8338213 C955.81435169 931.77252003 955.1934264 930.71121876 954.55368519 929.61775684 C953.63462391 928.04828297 953.63462391 928.04828297 952.69699574 926.44710255 C939.2249172 903.10347316 935.6945994 876.96626535 942.32785511 850.80525684 C952.13910791 815.6099795 988.88283332 779.08594079 1019.91696644 760.87947559 C1043.93549966 747.80034113 1070.18646146 745.73038838 1096.31540394 753.25056934 C1102.80163799 755.35677344 1108.86528919 758.08481361 1114.85446644 761.31697559 C1115.44606556 761.6258672 1116.03766468 761.9347588 1116.64719105 762.25301075 C1130.33666837 769.99791691 1141.59192279 782.7065859 1152.58054066 793.75349903 C1154.09939742 795.27292144 1155.61869768 796.79190063 1157.13840199 798.31047535 C1161.22044316 802.39194798 1165.29633371 806.4795112 1169.3710618 810.56828308 C1173.6461791 814.85599177 1177.92704644 819.13795215 1182.20728016 823.42055225 C1190.29276559 831.51222793 1198.37314384 839.60898342 1206.45165265 847.70762372 C1215.65700392 856.93541087 1224.86810591 866.15744867 1234.07967067 875.37903261 C1253.01096153 894.33116977 1271.93509959 913.29043554 1290.85446644 932.25447559 C1319.81482662 918.53171635 1350.24071502 891.9462526 1362.85446644 862.25447559 C1370.31389369 839.58669554 1370.30541038 814.58784737 1370.63766956 790.96150684 C1370.65604964 789.70933528 1370.65604964 789.70933528 1370.67480104 788.43186733 C1370.98496121 765.99196166 1370.59640081 743.5752402 1370.02208546 721.14297086 C1369.685772 707.78247324 1369.51782354 694.42743773 1369.46187305 681.06291676 C1369.45777926 680.10559619 1369.45368546 679.14827562 1369.44946761 678.16194534 C1369.42936378 673.29730494 1369.41171006 668.4326589 1369.3949694 663.56800592 C1369.27249066 629.32639721 1368.83372038 595.0956698 1368.20407581 560.85994434 C1367.59492763 527.70407913 1367.14241726 494.55178151 1366.89157581 461.39119434 C1366.87985852 459.85330754 1366.87985852 459.85330754 1366.86790452 458.28435232 C1366.79735239 449.00799549 1366.72856881 439.73162618 1366.66177848 430.4552415 C1366.20082707 366.56956544 1365.57220211 302.68516555 1364.50887209 238.80647179 C1364.4139964 233.06331428 1364.32814819 227.32006943 1364.24644947 221.5767107 C1364.14840795 214.70506495 1364.03691472 207.83379716 1363.90783702 200.96266146 C1363.84318533 197.51067961 1363.78366055 194.05885918 1363.74015623 190.60654032 C1363.31285355 159.00520072 1358.10475139 130.70242248 1336.85446644 106.25447559 C1336.16739613 105.43463184 1335.48032581 104.61478809 1334.77243519 103.77010059 C1316.56452355 82.64236168 1290.46666551 69.6178905 1262.85446644 66.25447559 C1260.1337902 66.16644885 1257.4399693 66.12092186 1254.72024781 66.1302771 C1253.92451505 66.12899901 1253.12878229 66.12772092 1252.30893641 66.12640411 C1249.63882086 66.1233381 1246.96876433 66.12740518 1244.29865074 66.13142776 C1242.35824215 66.1306881 1240.41783369 66.12950949 1238.47742561 66.12793127 C1233.12243743 66.12485633 1227.76746817 66.12804229 1222.4124814 66.1322094 C1216.59542131 66.13563821 1210.77836317 66.13327383 1204.9613027 66.13163191 C1194.08786043 66.12941932 1183.21442459 66.13172772 1172.34098313 66.13607477 C1162.06394729 66.14013128 1151.78691383 66.14181375 1141.5098772 66.14136791 C1140.81861339 66.14133922 1140.12734957 66.14131053 1139.41513837 66.14128097 C1135.89043445 66.14112459 1132.36573054 66.14093264 1128.84102663 66.14072813 C1103.32314182 66.13932029 1077.8052595 66.14275264 1052.28737545 66.14874554 C1027.01428751 66.15466677 1001.74120063 66.15852038 976.46811199 66.15959835 C975.291048 66.15964997 975.291048 66.15964997 974.09020495 66.15970263 C966.92315772 66.16001583 959.75611048 66.16030352 952.58906325 66.1605606 C934.77210462 66.16120002 916.95514601 66.16215936 899.13818741 66.1633358 C897.92113215 66.16341578 897.92113215 66.16341578 896.67948991 66.16349737 C857.20518156 66.16611927 817.7308739 66.17242699 778.25656605 66.17903614 C764.55706247 66.18132779 750.85755889 66.18360315 737.15805531 66.18581104 C735.88359895 66.18601647 735.88359895 66.18601647 734.583396 66.18622604 C695.09031774 66.19256942 655.59723936 66.19629548 616.10416073 66.19934584 C613.54042954 66.1995439 610.97669835 66.19974309 608.41296716 66.19994252 C591.42307239 66.20126229 574.43317761 66.20253694 557.44328283 66.20378138 C523.63723473 66.20625792 489.83118664 66.2089996 456.02513857 66.21192342 C454.41518454 66.21206266 452.80523052 66.21220172 451.19527649 66.21234059 C378.71326459 66.21859415 306.2312532 66.22793224 233.74924183 66.23860645 C233.07050834 66.23870639 232.39177486 66.23880632 231.69247369 66.23890929 C197.74647125 66.24390981 163.80046883 66.24908633 129.85446644 66.25447559 Z M16.85446644 237.25447559 C16.85446644 776.14447559 16.85446644 1315.03447559 16.85446644 1870.25447559 C430.67446644 1870.25447559 844.49446644 1870.25447559 1270.85446644 1870.25447559 C1270.85446644 1827.68447559 1270.85446644 1785.11447559 1270.85446644 1741.25447559 C1256.59466572 1741.24860935 1242.334865 1741.24274311 1227.6429491 1741.2366991 C1217.96852078 1741.23261674 1208.29409247 1741.22852061 1198.61966419 1741.22433949 C1197.36294138 1741.22379644 1196.10621857 1741.2232534 1194.81141324 1741.22269391 C1185.32918226 1741.21859029 1175.8469513 1741.21445155 1166.36472034 1741.21028614 C1165.68316387 1741.2099868 1165.0016074 1741.20968746 1164.2993977 1741.20937905 C1091.27481216 1741.17728832 1018.25023035 1741.14082066 945.22565174 1741.09549427 C943.60371212 1741.09448864 941.98177249 1741.09348302 940.35983287 1741.0924774 C906.31543306 1741.07135618 872.27103366 1741.049619 838.22663469 1741.02717022 C821.12518883 1741.01589423 804.0237429 1741.00473661 786.92229689 1740.99369091 C784.3425967 1740.99202401 781.76289652 1740.99035373 779.18319633 1740.98868331 C739.45606758 1740.96298884 699.72893934 1740.93983408 660.00180531 1740.92403126 C658.72040115 1740.92352146 658.72040115 1740.92352146 657.41311005 1740.92300137 C643.63962169 1740.91753713 629.86613326 1740.91228589 616.09264481 1740.90706293 C576.42421569 1740.89201724 536.75579007 1740.87539836 497.08736706 1740.84835243 C496.27173805 1740.8477971 495.45610903 1740.84724178 494.61576399 1740.84666962 C476.71137654 1740.83445096 458.80698977 1740.82142213 440.90260347 1740.80762602 C433.6986446 1740.80208934 426.49468565 1740.7966693 419.29072666 1740.79128933 C418.50228134 1740.7906977 417.71383601 1740.79010607 416.9014984 1740.78949651 C391.49138299 1740.77048741 366.08127489 1740.76097615 340.6711531 1740.75643964 C315.0776384 1740.75182696 289.48414705 1740.73791368 263.89064549 1740.71104926 C260.35482669 1740.70734019 256.81900779 1740.70373792 253.28318882 1740.70020008 C252.59006045 1740.69950269 251.89693209 1740.69880531 251.18279983 1740.69808679 C240.20229599 1740.68731563 229.22181543 1740.68661598 218.24130783 1740.69010759 C207.44701481 1740.69333337 196.65277492 1740.68567031 185.85849711 1740.66715148 C180.08289799 1740.65755499 174.30740214 1740.65275436 168.53179868 1740.66107997 C163.27938358 1740.66855921 158.02717209 1740.6623121 152.77478173 1740.64503492 C150.88466837 1740.6412374 148.99453661 1740.64247475 147.10443183 1740.64931959 C122.42959967 1740.73165451 122.42959967 1740.73165451 113.04196644 1731.46541309 C105.05106223 1722.84189563 103.70183919 1714.60265542 103.72385591 1703.16932791 C103.72089714 1701.62228018 103.72089714 1701.62228018 103.7178786 1700.04397895 C103.71244443 1696.55863974 103.71416473 1693.07333999 103.71580124 1689.58799744 C103.71335522 1687.06495782 103.71047177 1684.54191859 103.70718846 1682.01887992 C103.70102153 1676.50082985 103.69797883 1670.98279136 103.69762843 1665.46473809 C103.69708404 1657.20407026 103.69079459 1648.94341365 103.68336331 1640.68274949 C103.67086718 1626.60594754 103.66310384 1612.5291465 103.65788555 1598.45234013 C103.65257615 1584.18169356 103.64509944 1569.91105059 103.63495731 1555.64040661 C103.63431868 1554.73999047 103.63368005 1553.83957433 103.63302206 1552.91187285 C103.62975579 1548.32087288 103.62645406 1543.72987293 103.6231398 1539.13887299 C103.59920616 1505.88479832 103.58010018 1472.63072227 103.56354046 1439.37664318 C103.54712349 1406.43757623 103.52864897 1373.49851149 103.50740719 1340.55944729 C103.50674879 1339.53703638 103.5060904 1338.51462546 103.50541205 1337.4612324 C103.49939766 1328.12328319 103.49335785 1318.785334 103.48728755 1309.44738482 C103.47219678 1286.23277935 103.45742484 1263.01817369 103.44286919 1239.80356789 C103.44220605 1238.74634705 103.44154291 1237.68912621 103.44085968 1236.59986838 C103.40861826 1185.15392833 103.38004986 1133.70798632 103.35178089 1082.26204395 C103.3419671 1064.4059038 103.33213709 1046.54976365 103.32223988 1028.69362354 C103.32131918 1027.03249707 103.32131918 1027.03249707 103.32037988 1025.33781248 C103.29183148 973.87073821 103.26067631 922.40366562 103.22884736 870.93659328 C103.22678142 867.59590884 103.2247166 864.2552244 103.22265201 860.91453996 C103.20896824 838.77591975 103.19523951 816.63729956 103.18148067 794.4986794 C103.15410366 750.44714089 103.12699085 706.39560223 103.10005949 662.34406345 C103.09877691 660.24614544 103.09749414 658.14822742 103.09621118 656.05030941 C103.03844627 561.5893135 102.98375498 467.12831589 102.93039417 372.66731739 C102.92989443 371.78269513 102.92939469 370.89807287 102.92887981 369.98664387 C102.90388783 325.74258788 102.87909559 281.49853179 102.85446644 237.25447559 C74.47446644 237.25447559 46.09446644 237.25447559 16.85446644 237.25447559 Z M1675.85446644 472.25447559 C1675.13226917 472.53130177 1674.41007191 472.80812794 1673.66598988 473.09334278 C1649.88230798 482.35646099 1628.98837135 495.43579979 1609.85446644 512.25447559 C1609.164818 512.82166309 1608.47516956 513.38885059 1607.76462269 513.97322559 C1596.31943966 523.45845128 1586.47620343 535.19331066 1577.85446644 547.25447559 C1577.25239368 548.0878545 1577.25239368 548.0878545 1576.63815784 548.93806934 C1560.01980301 572.15769543 1549.77538232 597.72365491 1542.85446644 625.25447559 C1542.57578724 626.35759083 1542.57578724 626.35759083 1542.29147816 627.48299122 C1529.88166453 678.55957677 1541.67987158 735.31667928 1568.03415394 780.02010059 C1576.98788211 794.65260451 1587.9485352 807.95282698 1599.85446644 820.25447559 C1600.56087269 821.00084278 1601.26727894 821.74720997 1601.99509144 822.51619434 C1637.42754256 859.17293747 1691.2738174 880.73573548 1741.85446644 882.25447559 C1743.02751331 882.29443653 1744.20056019 882.33439747 1745.40915394 882.37556934 C1795.50519617 883.2323427 1846.89957502 866.40316102 1884.85446644 833.25447559 C1886.00108753 832.27027637 1886.00108753 832.27027637 1887.17087269 831.26619434 C1899.29897546 820.6176033 1910.31486999 809.27803328 1919.85446644 796.25447559 C1920.63434925 795.19615528 1921.41423206 794.13783497 1922.21774769 793.04744434 C1928.09994829 784.8082998 1933.14292028 776.20577284 1937.85446644 767.25447559 C1938.19332874 766.61622852 1938.53219105 765.97798145 1938.88132191 765.32039356 C1948.96555287 746.0328869 1955.52918446 724.72412783 1958.85446644 703.25447559 C1958.9687096 702.57932911 1959.08295277 701.90418262 1959.20065784 701.20857716 C1968.02684244 648.25146958 1952.79185195 591.46673644 1921.94821644 548.14119434 C1915.78302654 539.64506689 1909.15553811 531.79314146 1901.85446644 524.25447559 C1901.35334339 523.7275713 1900.85222034 523.200667 1900.33591175 522.65779591 C1892.42689349 514.35455867 1884.06686532 507.07602392 1874.85446644 500.25447559 C1874.02688831 499.63185841 1873.19931019 499.00924122 1872.34665394 498.36775684 C1816.51969261 457.77493242 1740.38665785 447.44940655 1675.85446644 472.25447559 Z M1503.17304742 814.67773199 C1502.19543055 815.66408738 1502.19543055 815.66408738 1501.19806385 816.67036915 C1500.16032005 817.70554967 1500.16032005 817.70554967 1499.10161173 818.76164293 C1496.76753376 821.09240733 1494.44070991 823.43028432 1492.11374378 825.76814747 C1490.44887469 827.43358027 1488.78356594 829.09857365 1487.1178484 830.76315784 C1482.58262944 835.29780071 1478.05362252 839.83860319 1473.52566195 844.38049221 C1469.27694975 848.64135625 1465.02270453 852.89669347 1460.76894279 857.15251511 C1452.34171245 865.58412652 1443.91896137 874.02019787 1435.49899769 882.45906544 C1427.31806809 890.65834318 1419.13504789 898.85552509 1410.949193 907.04988575 C1410.4449162 907.554688 1409.94063939 908.05949026 1409.42108147 908.57958955 C1406.89134908 911.11193194 1404.36157539 913.64423307 1401.83178115 916.17651367 C1380.83293464 937.19610552 1359.84141804 958.22300714 1338.85446644 979.25447559 C1342.18135455 983.19643466 1345.53015509 987.0552628 1349.18256092 990.70282459 C1350.39394985 991.91627552 1350.39394985 991.91627552 1351.62981129 993.15424061 C1352.49655979 994.01739384 1353.3633083 994.88054707 1354.25632191 995.76985645 C1355.18378727 996.69746784 1356.11125263 997.62507923 1357.06682301 998.58080006 C1359.59101339 1001.10527548 1362.11825875 1003.62667179 1364.64609385 1006.14749694 C1367.29443172 1008.78955218 1369.93990789 1011.43446978 1372.58569813 1014.07907581 C1377.58776834 1019.07804712 1382.59238051 1024.07446544 1387.59792721 1029.06995541 C1393.30006518 1034.76088735 1398.99933883 1040.45468415 1404.69838214 1046.1487149 C1416.41390873 1057.85380975 1428.1329996 1069.55532925 1439.85446644 1081.25447559 C1444.75014031 1077.14521568 1449.3718954 1072.88214359 1453.88435841 1068.35829639 C1454.55595841 1067.68896194 1455.22755842 1067.01962749 1455.91950995 1066.33001018 C1458.15272166 1064.10309157 1460.38238173 1061.87265209 1462.6120348 1059.64217091 C1464.21875924 1058.03844065 1465.82568797 1056.43491504 1467.43280506 1054.83157825 C1471.78386305 1050.48933223 1476.13169253 1046.14386755 1480.47866607 1041.79753304 C1484.10671048 1038.17043941 1487.73611824 1034.54471141 1491.36545759 1030.9189136 C1499.43255892 1022.85948018 1507.49732392 1014.79771685 1515.56025451 1006.73411134 C1516.04317696 1006.25114893 1516.52609942 1005.76818651 1517.02365589 1005.27058887 C1517.74892344 1004.54526001 1517.74892344 1004.54526001 1518.48884285 1003.80527803 C1526.34438511 995.94932835 1534.20491794 988.0983931 1542.0676965 980.24968663 C1550.14449783 972.18722661 1558.21749367 964.12097761 1566.28678709 956.05100226 C1570.81603532 951.52149845 1575.34684059 946.99357876 1579.88148785 942.46947956 C1584.13843162 938.22216932 1588.39061173 933.9701487 1592.63908482 929.71436596 C1594.20313186 928.14926755 1595.76890661 926.5858936 1597.33648205 925.02432919 C1599.46676739 922.90168823 1601.59087746 920.77305958 1603.71345997 918.64272022 C1604.3429097 918.01841405 1604.97235944 917.39410788 1605.62088341 916.75088334 C1608.78250504 914.01358146 1608.78250504 914.01358146 1609.85446644 910.25447559 C1607.23652568 908.57348206 1604.60877116 906.99680272 1601.91696644 905.44197559 C1576.23733201 890.1589646 1552.02871161 868.9965531 1533.85446644 845.25447559 C1533.0720055 844.27736622 1532.28954456 843.30025684 1531.48337269 842.29353809 C1523.96027612 832.83947404 1517.09944241 822.78367085 1511.16306019 812.25447559 C1510.73122425 811.59447559 1510.29938831 810.93447559 1509.85446644 810.25447559 C1506.65542373 810.25447559 1505.32202887 812.54318921 1503.17304742 814.67773199 Z M1037.65280628 831.4275713 C1035.34482108 833.77221606 1032.88202245 835.87644995 1030.33835316 837.95979786 C1028.20315653 839.8227376 1026.578028 842.01384556 1024.85446644 844.25447559 C1022.18527649 847.06794608 1019.43884722 849.58830219 1016.41696644 852.00447559 C1009.92423492 857.50486823 1005.44890512 864.80775833 1004.51852894 873.33260059 C1004.50563831 874.37931934 1004.49274769 875.42603809 1004.47946644 876.50447559 C1004.45110706 877.54088184 1004.42274769 878.57728809 1004.39352894 879.64510059 C1005.65698204 889.5385808 1010.46162482 895.73602154 1017.40852261 902.56357861 C1018.28471959 903.44849623 1019.16091657 904.33341386 1020.06366497 905.24514717 C1022.4891545 907.69391931 1024.9328538 910.12376497 1027.38002689 912.55084137 C1030.04170674 915.19726602 1032.685901 917.86106854 1035.3323921 920.52266657 C1039.97081088 925.18273805 1044.62026603 929.83156409 1049.27716923 934.47316074 C1056.20210854 941.37540058 1063.1098053 948.29470667 1070.01422429 955.21746564 C1082.34621616 967.58105373 1094.69532998 979.92742675 1107.05178883 992.26655672 C1117.86505529 1003.06473279 1128.67273176 1013.86846472 1139.47486973 1024.67777348 C1140.54947187 1025.75306308 1140.54947187 1025.75306308 1141.64578314 1026.85007571 C1144.55384996 1029.76001054 1147.46189558 1032.66996656 1150.36990631 1035.57995746 C1177.65215507 1062.88056228 1204.95187524 1090.16363636 1232.25944313 1117.4389129 C1256.52311654 1141.67411244 1280.77123187 1165.92477554 1305.00632191 1190.18855762 C1332.23161157 1217.44597162 1359.4665645 1244.69366993 1386.71719205 1271.92575419 C1389.62186998 1274.82850779 1392.52652427 1277.73128504 1395.43116856 1280.6340723 C1396.14638027 1281.34880956 1396.86159199 1282.06354681 1397.59847679 1282.79994277 C1408.40110366 1293.59574337 1419.19630557 1304.39893104 1429.98793888 1315.20571995 C1442.25794492 1327.49287176 1454.53859914 1339.76926766 1466.83345731 1352.03155391 C1473.7150789 1358.89554537 1480.58832874 1365.76767532 1487.44981873 1372.65179238 C1492.03301156 1377.24843054 1496.6270075 1381.83407845 1501.22997208 1386.41091712 C1503.85285839 1389.01952105 1506.47079731 1391.6326087 1509.07575043 1394.25913136 C1511.88292402 1397.08931097 1514.71274069 1399.89571148 1517.54536343 1402.70041943 C1518.34900084 1403.51810383 1519.15263825 1404.33578824 1519.98062831 1405.17825097 C1526.77628295 1411.84028797 1534.01951134 1415.8096198 1543.72946644 1415.87947559 C1544.79938831 1415.91299122 1545.86931019 1415.94650684 1546.97165394 1415.98103809 C1560.9879952 1413.35826196 1569.68463647 1403.32309715 1579.29318714 1393.54304981 C1581.79134345 1391.0051085 1584.31766363 1388.49795688 1586.84860706 1385.99275684 C1588.46560135 1384.36820459 1590.0808956 1382.74195806 1591.69431019 1381.11385059 C1592.44018894 1380.37495594 1593.1860677 1379.63606129 1593.95454884 1378.87477589 C1601.51308406 1371.11168911 1606.21745522 1362.65412312 1606.07321644 1351.69197559 C1605.23949788 1342.40196885 1600.47755529 1335.55448694 1593.85446644 1329.25447559 C1591.07321058 1326.54453398 1588.45464011 1323.80425416 1585.97946644 1320.81697559 C1583.39952745 1317.75288354 1580.5898784 1315.26268196 1577.50681019 1312.71931934 C1574.99364015 1310.49133172 1573.00183539 1307.83131833 1570.85446644 1305.25447559 C1569.04549893 1303.63104321 1567.19738587 1302.07961914 1565.30759144 1300.55135059 C1563.85446644 1299.25447559 1563.85446644 1299.25447559 1562.85446644 1297.25447559 C1562.19446644 1297.25447559 1561.53446644 1297.25447559 1560.85446644 1297.25447559 C1560.85446644 1296.59447559 1560.85446644 1295.93447559 1560.85446644 1295.25447559 C1560.19446644 1295.25447559 1559.53446644 1295.25447559 1558.85446644 1295.25447559 C1558.85446644 1294.59447559 1558.85446644 1293.93447559 1558.85446644 1293.25447559 C1557.47511934 1292.06759553 1556.09162641 1290.88337779 1554.65524769 1289.76619434 C1552.24242295 1287.74067769 1550.07265739 1285.48760808 1547.85446644 1283.25447559 C1546.70389894 1282.10312266 1545.55290716 1280.95219361 1544.40158558 1279.80159473 C1472.81007353 1208.21008269 1401.21856149 1136.61857065 1252.10458851 987.50459766 C1251.35461597 986.75464559 1250.60464344 986.00469351 1249.83194447 985.23201561 C1248.2455917 983.64561312 1246.65943329 982.05901627 1245.07333851 980.47235584 C1242.70447695 978.10455315 1240.33259255 975.73981246 1237.95993519 973.37581348 C1233.28032771 968.71251607 1228.60323918 964.04670108 1223.92760181 959.37942314 C1221.10799547 956.56504147 1218.28745704 953.75160694 1215.464818 950.94026661 C1212.72062887 948.20698575 1209.97892886 945.47123029 1207.23889637 942.73378277 C1206.20005183 941.6967748 1205.16033289 940.66064196 1204.11969471 939.62543392 C1199.14070358 934.67141455 1194.24886 929.74307316 1189.85446644 924.25447559 C1188.55435319 923.03069475 1187.22384346 921.83772452 1185.85446644 920.69197559 C1182.68735891 918.02930656 1179.76593075 915.18942607 1176.85446644 912.25447559 C1176.22216303 911.61807589 1175.58985962 910.98167618 1174.9383955 910.32599163 C1172.58387578 907.955677 1170.23028361 905.58444331 1167.87668324 903.21321583 C1158.75366307 894.02469906 1149.62042632 884.84640532 1140.48122406 875.67398453 C1134.95442136 870.12654647 1129.43145054 864.57539001 1123.91721058 859.01546192 C1119.09364163 854.15194938 1114.26301538 849.29557643 1109.42388755 844.44754273 C1106.86761032 841.88606951 1104.31492332 839.32124272 1101.77070141 836.74779034 C1098.93154332 833.87627029 1096.07674469 831.02079897 1093.22043324 828.16634083 C1092.38743198 827.31895847 1091.55443073 826.47157612 1090.69618702 825.59851551 C1083.90218364 818.85202386 1077.12758248 814.24984496 1067.29196644 813.94197559 C1053.40909862 814.30624909 1046.63142766 821.84421698 1037.65280628 831.4275713 Z M1001.01947498 984.84895802 C1000.27779072 985.5950835 999.53610645 986.34120899 998.77194691 987.10994434 C997.93122639 987.95081593 997.09050587 988.79168751 996.22430897 989.65804005 C995.31593281 990.57673878 994.40755665 991.49543751 993.47165394 992.44197559 C992.54224995 993.37420948 991.61284595 994.30644337 990.65527821 995.26692677 C988.18159041 997.74825954 985.71396647 1000.23553937 983.24753284 1002.72408009 C980.7308036 1005.26124915 978.20842 1007.79278269 975.68649769 1010.32478809 C970.73691978 1015.29583116 965.79372132 1020.27317598 960.85446644 1025.25447559 C965.1125993 1030.33888466 969.56415451 1035.10564833 974.26137066 1039.78442764 C975.3531586 1040.87794635 975.3531586 1040.87794635 976.46700287 1041.99355635 C978.9044918 1044.43369037 981.34552836 1046.87024371 983.78656483 1049.3068285 C985.55324642 1051.07394622 987.31970821 1052.8412837 989.08596909 1054.60882193 C992.92549011 1058.45011267 996.76655691 1062.28984742 1000.60900021 1066.12821484 C1006.32253288 1071.83570374 1012.03318685 1077.54606649 1017.74325981 1083.25701643 C1027.34934986 1092.8644194 1036.95776301 1102.46949584 1046.56750584 1112.07324505 C1056.08130339 1121.58112405 1065.5940648 1131.09003776 1075.10544682 1140.60033321 C1075.69700445 1141.19182211 1076.28856209 1141.78331101 1076.89804572 1142.39272381 C1079.90230583 1145.39664559 1082.90654747 1148.40058585 1085.91078199 1151.40453321 C1107.1855831 1172.67723434 1128.46270137 1193.94761643 1149.74118519 1215.2166338 C1170.41195626 1235.87821939 1191.08167589 1256.54085592 1211.74997425 1277.20491505 C1212.38714697 1277.84195624 1213.02431969 1278.47899743 1213.68080067 1279.1353429 C1220.07959417 1285.53281787 1226.47836631 1291.9303142 1232.87712281 1298.32782619 C1245.91193758 1311.36010479 1258.94689487 1324.39224083 1271.98193836 1337.42429066 C1272.58125839 1338.0234734 1273.18057842 1338.62265614 1273.79805967 1339.23999593 C1313.81447421 1379.24721099 1353.83422141 1419.25109232 1393.85446644 1459.25447559 C1394.9697147 1458.305626 1396.08395486 1457.35559144 1397.19777393 1456.40506458 C1397.81837539 1455.87614266 1398.43897684 1455.34722075 1399.0783844 1454.80227089 C1401.3620853 1452.81210296 1403.49895693 1450.70550613 1405.62399769 1448.54744434 C1406.44964222 1447.71406544 1407.27528675 1446.88068653 1408.12595081 1446.02205372 C1408.96448597 1445.17062794 1409.80302113 1444.31920216 1410.66696644 1443.44197559 C1412.35866796 1441.72485407 1414.05256592 1440.00989278 1415.74899769 1438.29744434 C1416.48996693 1437.54487354 1417.23093616 1436.79230274 1417.99435902 1436.01692677 C1419.85446644 1434.25447559 1419.85446644 1434.25447559 1421.85446644 1433.25447559 C1421.85446644 1432.59447559 1421.85446644 1431.93447559 1421.85446644 1431.25447559 C1422.38556019 1431.05080372 1422.91665394 1430.84713184 1423.46384144 1430.63728809 C1426.88320748 1428.6594195 1429.36784565 1425.9512066 1432.10446644 1423.12947559 C1432.65876331 1422.56615528 1433.21306019 1422.00283497 1433.78415394 1421.42244434 C1435.14551129 1420.03761532 1436.50061503 1418.64664355 1437.85446644 1417.25447559 C1433.59709346 1412.17167339 1429.14716416 1407.40411179 1424.45314884 1402.72452354 C1423.36225969 1401.63100483 1423.36225969 1401.63100483 1422.24933237 1400.51539484 C1419.8138556 1398.07526928 1417.37484373 1395.63870881 1414.9358263 1393.20212269 C1413.17057351 1391.43500139 1411.405537 1389.66766401 1409.64069819 1387.90012926 C1405.80424396 1384.05883361 1401.96623931 1380.21909739 1398.12684917 1376.38073635 C1392.41779644 1370.67321013 1386.71159379 1364.96284078 1381.00592221 1359.25193476 C1370.22450802 1348.46085574 1359.43967213 1337.67320082 1348.65371117 1326.88666666 C1340.3288746 1318.56137057 1332.00483786 1310.23527558 1323.68136311 1301.90861797 C1321.28564645 1299.51200379 1318.88992593 1297.11539346 1316.49420428 1294.71878427 C1315.89864375 1294.12300269 1315.30308321 1293.5272211 1314.68947538 1292.91338553 C1297.94233129 1276.16008896 1281.19408523 1259.40789468 1264.44364262 1242.65789604 C1263.81230782 1242.02657682 1263.18097302 1241.3952576 1262.53050686 1240.7448075 C1259.3305871 1237.54497085 1256.13065938 1234.34514216 1252.9307299 1231.14531524 C1252.29520109 1230.50980638 1251.65967229 1229.87429752 1251.00488504 1229.21953082 C1249.71969437 1227.93438059 1248.43450302 1226.64923103 1247.14931099 1225.36408216 C1227.13241589 1205.34780047 1207.11959172 1185.32745631 1187.10983753 1165.30403614 C1164.6356209 1142.81447675 1142.158048 1120.32827919 1119.67569327 1097.8468551 C1117.28121949 1095.45245595 1114.88675867 1093.05804384 1112.49230671 1090.66362286 C1111.6079196 1089.77925323 1111.6079196 1089.77925323 1110.70566608 1088.87701755 C1101.19912496 1079.37050726 1091.69580182 1069.86078632 1082.19357752 1060.3499614 C1072.65609182 1050.80402131 1063.11489901 1041.26179912 1053.56988916 1031.72338236 C1047.89265561 1026.04985846 1042.21823737 1020.37355186 1036.54774217 1014.69329303 C1032.32479399 1010.46368542 1028.09669876 1006.23926386 1023.86649117 1002.01691525 C1022.14753203 1000.29950696 1020.43029189 998.5803762 1018.71487036 996.85943437 C1016.39859842 994.53619787 1014.07636989 992.21909138 1011.75241947 989.90353966 C1011.07433308 989.22048509 1010.39624669 988.53743052 1009.69761223 987.83367732 C1009.08258585 987.22340175 1008.46755947 986.61312618 1007.83389592 985.98435742 C1007.30272051 985.45309378 1006.7715451 984.92183015 1006.22427346 984.37446762 C1003.96639876 982.52836695 1003.1552762 982.99309243 1001.01947498 984.84895802 Z " fill="#191919" transform="translate(599.1455335617065,343.7455244064331)"/>
<path d="M0 0 C1.84175012 0.95249819 3.69463908 1.87916152 5.55126953 2.80224609 C22.44513022 11.33401905 37.52523843 22.74074434 51.89111328 34.97802734 C52.73158203 35.68701172 53.57205078 36.39599609 54.43798828 37.12646484 C67.61114984 48.61891268 80.32605 61.13555642 90.64501953 75.27880859 C91.94431673 77.0505775 93.27411534 78.79610864 94.60986328 80.54052734 C139.00125498 139.02665416 157.56943102 215.03089068 147.85986328 287.59912109 C140.83228323 335.50717973 122.27908034 382.03598938 91.89111328 419.97802734 C91.15505859 420.90486328 90.41900391 421.83169922 89.66064453 422.78662109 C76.69440584 438.87725465 62.34021734 454.39930071 45.89111328 466.97802734 C44.39064453 468.16912109 44.39064453 468.16912109 42.85986328 469.38427734 C8.73602815 496.35970318 -30.63916114 513.98336409 -73.10888672 522.97802734 C-73.88055176 523.1452832 -74.6522168 523.31253906 -75.44726562 523.48486328 C-93.21590727 527.29330687 -111.04054737 528.36429649 -129.17138672 528.29052734 C-130.10810211 528.28870453 -131.0448175 528.28688171 -132.00991821 528.28500366 C-147.2233779 528.23536942 -162.08520646 527.56471759 -177.10888672 524.97802734 C-178.58349365 524.72859375 -178.58349365 524.72859375 -180.08789062 524.47412109 C-228.79378203 515.93893324 -277.32188326 494.21364065 -313.70263672 460.20849609 C-315.72184539 458.33679455 -317.77455487 456.5335505 -319.85888672 454.73583984 C-324.28013917 450.87962841 -328.45969277 446.81087944 -332.60888672 442.66552734 C-333.33591797 441.95074219 -334.06294922 441.23595703 -334.81201172 440.49951172 C-335.84068359 439.47374023 -335.84068359 439.47374023 -336.89013672 438.42724609 C-337.81922852 437.50431763 -337.81922852 437.50431763 -338.76708984 436.56274414 C-340.10888672 434.97802734 -340.10888672 434.97802734 -340.10888672 432.97802734 C-340.76888672 432.97802734 -341.42888672 432.97802734 -342.10888672 432.97802734 C-343.37060547 431.63964844 -343.37060547 431.63964844 -344.79638672 429.75146484 C-345.32522461 429.05649902 -345.8540625 428.3615332 -346.39892578 427.64550781 C-346.96321289 426.88898926 -347.5275 426.1324707 -348.10888672 425.35302734 C-348.6912207 424.57975098 -349.27355469 423.80647461 -349.87353516 423.00976562 C-351.62732719 420.67217707 -353.36976799 418.32654623 -355.10888672 415.97802734 C-355.58519531 415.33865234 -356.06150391 414.69927734 -356.55224609 414.04052734 C-362.99811938 405.3571648 -368.81690832 396.4094812 -374.10888672 386.97802734 C-374.80135498 385.74681152 -374.80135498 385.74681152 -375.5078125 384.49072266 C-388.105937 361.83820582 -396.92293688 338.12619337 -403.10888672 312.97802734 C-403.31739258 312.13143555 -403.52589844 311.28484375 -403.74072266 310.41259766 C-411.94660228 276.02539553 -412.70685342 238.8221736 -407.10888672 203.97802734 C-406.94791504 202.96546875 -406.78694336 201.95291016 -406.62109375 200.90966797 C-402.23169313 174.3793042 -393.76868225 149.1685096 -382.10888672 124.97802734 C-381.70057617 124.12563477 -381.29226563 123.27324219 -380.87158203 122.39501953 C-372.10275071 104.33309424 -360.79080547 87.52295477 -348.10888672 71.97802734 C-347.68526855 71.45289551 -347.26165039 70.92776367 -346.82519531 70.38671875 C-334.84826596 55.62118374 -321.32150482 41.42493407 -306.10888672 29.97802734 C-304.90132412 29.04251489 -303.69433611 28.10626049 -302.48779297 27.16943359 C-259.90699366 -5.61751789 -208.91398649 -26.64248779 -155.10888672 -31.02197266 C-153.86880859 -31.13154297 -152.62873047 -31.24111328 -151.35107422 -31.35400391 C-98.9910189 -35.45317316 -46.46804907 -24.19449778 0 0 Z M-265.10888672 82.97802734 C-266.16215834 83.8219194 -267.21553879 84.66567564 -268.26904297 85.50927734 C-296.10186674 107.98531269 -317.90916309 139.4226009 -330.10888672 172.97802734 C-330.35880371 173.65671875 -330.6087207 174.33541016 -330.86621094 175.03466797 C-334.10974059 183.94460485 -336.72606817 192.92598133 -338.85888672 202.16552734 C-339.05748291 203.01896729 -339.2560791 203.87240723 -339.46069336 204.75170898 C-342.63519263 219.12872388 -343.51582191 233.1888602 -343.48388672 247.85302734 C-343.48367523 248.75232971 -343.48346375 249.65163208 -343.48324585 250.57818604 C-343.44857612 265.39481344 -342.41978075 279.48844509 -339.10888672 293.97802734 C-338.92696777 294.81301758 -338.74504883 295.64800781 -338.55761719 296.50830078 C-334.39741608 315.25337136 -327.22520748 333.11507933 -318.10888672 349.97802734 C-317.78952148 350.57663574 -317.47015625 351.17524414 -317.14111328 351.79199219 C-309.43179884 366.15010117 -299.82761117 378.75660327 -289.10888672 390.97802734 C-288.31224609 391.89841797 -287.51560547 392.81880859 -286.69482422 393.76708984 C-282.13745657 398.95089979 -277.39739863 403.55573722 -272.10888672 407.97802734 C-271.17560547 408.79916016 -270.24232422 409.62029297 -269.28076172 410.46630859 C-256.38092864 421.7620384 -242.2996762 431.05271859 -227.10888672 438.97802734 C-226.45903809 439.31930664 -225.80918945 439.66058594 -225.13964844 440.01220703 C-175.57752193 465.65836806 -117.1532663 468.37830925 -64.30517578 452.11523438 C-43.02625975 445.28286677 -22.99932861 435.3782203 -5.10888672 421.97802734 C-3.99743634 421.17130873 -2.88546909 420.36530166 -1.77294922 419.56005859 C43.93276419 385.96422988 73.22143316 334.71433455 81.89111328 278.97802734 C89.58014235 225.81523128 76.5137233 168.44419032 44.66308594 124.86010742 C40.40185808 119.19669503 35.84874836 113.778002 31.17871094 108.44921875 C29.99416389 107.09577156 28.82284248 105.73077924 27.65283203 104.36474609 C-1.25140933 71.23319339 -42.38382395 48.25818845 -85.23388672 39.22802734 C-86.17409668 39.02943115 -87.11430664 38.83083496 -88.08300781 38.6262207 C-101.96403941 35.84596605 -115.60079323 34.59213009 -129.73388672 34.66552734 C-130.83873917 34.66826157 -130.83873917 34.66826157 -131.96591187 34.67105103 C-180.89643704 34.87363867 -227.1731229 52.30609391 -265.10888672 82.97802734 Z " fill="#191919" transform="translate(1293.10888671875,1397.02197265625)"/>
<path d="M0 0 C1.43831899 -0.00239231 2.87663673 -0.00565907 4.31495199 -0.0097166 C8.26663443 -0.01832674 12.21822175 -0.01451426 16.16990564 -0.00866088 C20.46936323 -0.00448838 24.76880353 -0.01189376 29.06825691 -0.01781338 C36.60343444 -0.02657804 44.13858478 -0.02788655 51.67376614 -0.02431011 C62.87883373 -0.01900584 74.08387498 -0.02509562 85.28893971 -0.03339304 C106.464204 -0.04864214 127.63945635 -0.05033721 148.81472497 -0.04787002 C165.1640656 -0.04603821 181.51340229 -0.04779461 197.86274242 -0.05209446 C200.21064287 -0.05269686 202.55854332 -0.05329805 204.90644376 -0.05389806 C208.44438095 -0.0548053 211.98231813 -0.05571397 215.52025532 -0.05663041 C248.41838298 -0.06506126 281.31650916 -0.0693947 314.21463776 -0.06522369 C316.0753479 -0.06498913 316.0753479 -0.06498913 317.97364815 -0.06474983 C324.26103593 -0.06394403 330.54842371 -0.06309826 336.83581149 -0.06223653 C338.08453484 -0.06206544 339.33325818 -0.06189435 340.61982163 -0.06171808 C343.14504338 -0.06137142 345.67026513 -0.06102289 348.19548688 -0.06067249 C387.49634889 -0.05531414 426.79718847 -0.06324841 466.0980463 -0.08170605 C510.24004293 -0.10241298 554.38202565 -0.11315132 598.52402741 -0.10913056 C603.22885136 -0.10873521 607.93367531 -0.10837366 612.63849926 -0.10803318 C613.79696978 -0.10794245 614.9554403 -0.10785172 616.14901599 -0.10775824 C633.65132858 -0.10659136 651.15362715 -0.11324734 668.65593624 -0.1238451 C688.55549717 -0.13588202 708.45502718 -0.13747342 728.35458856 -0.12505493 C739.49481014 -0.11841427 750.63495786 -0.12008518 761.77517357 -0.13364345 C769.21337936 -0.14186758 776.65152963 -0.13921697 784.08973088 -0.12766818 C788.32977407 -0.12139156 792.56967279 -0.11986286 796.80970781 -0.13153151 C800.6686806 -0.14205392 804.52738623 -0.13871526 808.38634465 -0.12442699 C810.42448155 -0.12042106 812.46263128 -0.13109429 814.50074074 -0.14240405 C825.73706793 -0.07574412 835.10205421 1.84131336 843.81752872 9.25447559 C850.92782748 16.89261312 854.22820117 25.56917231 854.02846622 36.05525684 C853.16276655 45.08097752 849.349541 53.39305376 842.41518497 59.30135059 C836.07211352 63.917962 830.61901354 66.50306791 822.65285563 66.50747526 C821.42782976 66.51299474 820.20280388 66.51851423 818.94065601 66.52420098 C817.58685746 66.52022556 816.23305945 66.51606664 814.87926197 66.5117445 C813.43079589 66.51443813 811.98233122 66.5180061 810.53386921 66.52236897 C806.54002954 66.53184089 802.54628092 66.52882182 798.55243674 66.52381342 C794.212491 66.52055183 789.87256494 66.52882513 785.53262544 66.53563178 C777.92171206 66.54594995 770.31082412 66.54877242 762.69990444 66.54671955 C751.38216729 66.54367428 740.06445838 66.55198301 728.74672671 66.5624688 C707.35867544 66.58183049 685.97063375 66.58743783 664.58257475 66.58858292 C648.06821174 66.5895013 631.55385249 66.59361433 615.0394907 66.59998417 C610.2892565 66.6017792 605.53902229 66.60355883 600.78878808 66.60533392 C599.60793186 66.60577602 598.42707564 66.60621812 597.21043591 66.60667361 C563.98615844 66.61898541 530.76188227 66.62687439 497.53760242 66.62598705 C496.28446807 66.6259559 495.03133371 66.62592474 493.74022558 66.62589264 C487.38853292 66.62572642 481.03684027 66.62552833 474.68514761 66.62532322 C473.42363373 66.62528333 472.16211984 66.62524344 470.86237827 66.62520234 C468.3112888 66.62512147 465.76019934 66.62503787 463.20910988 66.62495156 C423.51265021 66.62372587 383.81622471 66.63874106 344.11977482 66.66609669 C299.54161438 66.6968036 254.96347638 66.71403003 210.38530469 66.71217024 C205.63381306 66.71202098 200.88232144 66.71192357 196.13082981 66.71186161 C194.96085459 66.7118383 193.79087936 66.71181499 192.58545034 66.71179098 C173.74002467 66.71172938 154.89462859 66.72451275 136.04921172 66.74172614 C117.11601119 66.75866228 98.18285406 66.7606723 79.24965015 66.7475075 C67.99611095 66.74010488 56.74270343 66.74381541 45.48917813 66.76339218 C37.97533291 66.77536095 30.46158342 66.77283575 22.94774266 66.75845118 C18.66441226 66.75066191 14.38133731 66.74921166 10.09802458 66.76536588 C6.1997042 66.7799396 2.30185164 66.77603274 -1.59644803 66.75751815 C-2.99634131 66.75408132 -4.39627136 66.75731353 -5.79612715 66.76812056 C-17.67091456 66.85364004 -26.43589601 64.81706341 -35.20200253 56.54744434 C-42.93023541 47.59976643 -43.96388268 37.60792361 -43.18247128 26.25447559 C-41.37594193 17.31947912 -35.38403598 10.37562964 -28.35825253 4.80916309 C-19.84243714 -0.55044099 -9.6525448 -0.03216055 0 0 Z " fill="#191919" transform="translate(973.1824712753296,587.7455244064331)"/>
<path d="M0 0 C1.22019559 -0.00320648 2.44039118 -0.00641296 3.6975624 -0.0097166 C7.07324151 -0.01656956 10.44869913 -0.01452531 13.82436568 -0.00866088 C17.5011442 -0.00447883 21.17790275 -0.01189916 24.85467637 -0.01781338 C31.29508365 -0.02656782 37.73545914 -0.02789019 44.1758709 -0.02431011 C53.75312472 -0.0190004 63.33034778 -0.0251011 72.90759826 -0.03339304 C91.00780263 -0.04863333 109.10799302 -0.0503381 127.20820247 -0.04787002 C141.18479018 -0.04603739 155.1613733 -0.04779632 169.13796043 -0.05209446 C171.14592992 -0.05269686 173.15389942 -0.05329806 175.16186891 -0.05389806 C178.18767763 -0.05480531 181.21348635 -0.05571398 184.23929508 -0.05663041 C212.37155114 -0.06505997 240.50380547 -0.0693956 268.63606262 -0.06522369 C270.22685895 -0.06498913 270.22685895 -0.06498913 271.84979258 -0.06474983 C277.22499115 -0.06394404 282.60018971 -0.06309827 287.97538827 -0.06223653 C289.57668764 -0.06197989 289.57668764 -0.06197989 291.2103365 -0.06171808 C293.36914688 -0.06137142 295.52795726 -0.06102289 297.68676765 -0.06067249 C331.28156115 -0.0553147 364.87632841 -0.06324735 398.47111702 -0.08170605 C436.21466442 -0.10242 473.95819556 -0.11314996 511.70174897 -0.10913056 C515.7258149 -0.10873521 519.74988083 -0.10837367 523.77394676 -0.10803318 C525.26018871 -0.10789708 525.26018871 -0.10789708 526.77645575 -0.10775824 C541.7363069 -0.10659209 556.69614164 -0.11324185 571.65598869 -0.1238451 C588.66826931 -0.13589077 605.68051376 -0.13746332 622.6927949 -0.12505493 C632.21292437 -0.11842199 641.73296737 -0.12006745 651.25308993 -0.13364345 C657.61390548 -0.14188272 663.9746562 -0.13919718 670.33546646 -0.12766818 C673.95850204 -0.12140663 677.58136881 -0.11982412 681.20439468 -0.13153151 C685.11229997 -0.14404308 689.01994841 -0.13322885 692.92785645 -0.12025452 C694.04539383 -0.12756386 695.16293122 -0.13487321 696.31433338 -0.14240405 C707.46527035 -0.06562665 718.00207189 1.70521371 726.58976936 9.25447559 C733.94406896 16.73779799 736.63742292 24.37481402 737.02726936 34.75447559 C736.76775124 43.9565558 733.81747167 50.81061799 727.51945686 57.50056934 C721.78811022 62.70982976 715.14712296 66.50244165 707.28667814 66.50747526 C706.22874253 66.51299474 705.17080692 66.51851423 704.08081266 66.52420098 C702.34323168 66.51803502 702.34323168 66.51803502 700.57054806 66.5117445 C698.71255387 66.51700361 698.71255387 66.51700361 696.81702444 66.52236897 C693.36626013 66.53009155 689.91570798 66.52882113 686.46495239 66.52381342 C682.71549513 66.5205524 678.96606065 66.52882466 675.21661061 66.53563178 C668.64090733 66.54595093 662.06523351 66.54877225 655.48952293 66.54671955 C645.711109 66.54367451 635.93272776 66.55198253 626.15432017 66.5624688 C607.67483083 66.58183175 589.19535256 66.58743789 570.71585426 66.58858292 C556.44641404 66.58950131 542.17697818 66.59361436 527.90753937 66.59998417 C523.80299527 66.60177921 519.69845116 66.60355883 515.59390706 66.60533392 C514.57355793 66.60577602 513.55320879 66.60621812 512.50193999 66.60667361 C483.79275664 66.61898578 455.0835748 66.62687436 426.37438869 66.62598705 C425.29151725 66.6259559 424.2086458 66.62592474 423.09296007 66.62589264 C417.60427976 66.62572642 412.11559944 66.62552833 406.62691913 66.62532322 C405.53681097 66.62528333 404.4467028 66.62524344 403.32356106 66.62520234 C401.11909522 66.62512147 398.91462938 66.62503787 396.71016355 66.62495156 C362.41130752 66.62372601 328.11249103 66.63873832 293.81364632 66.66609669 C255.2955685 66.69680771 216.77751666 66.71402976 178.25942582 66.71217024 C174.15330994 66.71202098 170.04719407 66.71192357 165.94107819 66.71186161 C164.93001877 66.7118383 163.91895935 66.71181499 162.87726176 66.71179098 C146.59532905 66.71172939 130.31343061 66.72450994 114.03150809 66.74172614 C97.67129995 66.75866747 81.31114203 66.76066825 64.95092998 66.7475075 C55.22819808 66.74010816 45.50561864 66.74380559 35.78290285 66.76339218 C29.28941521 66.77536949 22.79603827 66.77282621 16.30255577 66.75845118 C12.60197819 66.75066907 8.90169615 66.74919099 5.20113913 66.76536588 C1.21325909 66.78264404 -2.77392131 66.76894395 -6.76180363 66.75225353 C-7.90848512 66.76218989 -9.05516661 66.77212625 -10.23659602 66.78236371 C-18.54485124 66.70861746 -25.45470001 65.18531444 -32.21491814 60.17635059 C-41.0979637 50.85753298 -43.95209878 42.91647647 -43.67976189 30.08260059 C-43.00255137 20.46424827 -38.49592658 13.62279202 -31.41023064 7.25447559 C-21.99027616 0.29559031 -11.32174367 -0.04435484 0 0 Z " fill="#191919" transform="translate(973.4102306365967,792.7455244064331)"/>
<path d="M0 0 C0.95174417 -0.00320648 1.90348835 -0.00641296 2.88407326 -0.0097166 C6.06162062 -0.01799385 9.23897838 -0.01210024 12.4165287 -0.00622082 C14.7223716 -0.00924253 17.02821351 -0.01313211 19.33405364 -0.01781338 C25.66178981 -0.02809946 31.98946936 -0.02590998 38.3172102 -0.02163279 C44.44336848 -0.01844451 50.56951742 -0.02657688 56.69567103 -0.03339304 C70.76976433 -0.04862226 84.84383961 -0.05033924 98.91793941 -0.04787002 C109.78668958 -0.04603643 120.65543385 -0.04779835 131.52418327 -0.05209446 C133.08641293 -0.05269686 134.64864258 -0.05329806 136.21087224 -0.05389806 C138.56508048 -0.05480533 140.91928872 -0.055714 143.27349696 -0.05663041 C165.15771407 -0.0650583 187.04192896 -0.06939675 208.92614746 -0.06522369 C210.16328162 -0.06498913 210.16328162 -0.06498913 211.42540838 -0.06474983 C215.60547562 -0.06394406 219.78554285 -0.06309829 223.96561007 -0.06223653 C225.21084333 -0.06197989 225.21084333 -0.06197989 226.48123282 -0.06171808 C228.16000797 -0.06137142 229.83878313 -0.06102289 231.51755828 -0.06067249 C257.64052149 -0.05531504 283.76345094 -0.06324705 309.88640785 -0.08170605 C339.24465989 -0.10242693 368.60289101 -0.11314863 397.96115077 -0.10913056 C401.09211643 -0.10873522 404.2230821 -0.10837367 407.35404778 -0.10803318 C408.12495481 -0.10794245 408.89586185 -0.10785172 409.69012971 -0.10775824 C421.32186273 -0.10659283 432.95357461 -0.11323624 444.58530235 -0.1238451 C457.81520352 -0.13589938 471.04505817 -0.13745338 484.27496003 -0.12505493 C491.02473806 -0.11901226 497.77441971 -0.11808619 504.52419281 -0.13005733 C510.70489259 -0.14089182 516.88542524 -0.13784157 523.06611712 -0.12379565 C525.30020258 -0.12114205 527.53430104 -0.12353602 529.76837377 -0.13153151 C559.33319667 -0.22998372 559.33319667 -0.22998372 571.01043129 11.14119434 C578.51608087 19.10031025 580.26913126 27.39807723 580.07293129 38.25447559 C578.76167931 47.191358 574.2306267 55.04682184 567.13543129 60.62947559 C560.34664281 65.55891436 554.47926868 66.6962273 546.29077625 66.63479233 C545.31825719 66.63945225 544.34573812 66.64411217 543.34374878 66.64891329 C540.07741068 66.66088613 536.81148678 66.65145879 533.54514503 66.64215565 C531.18271739 66.64632755 528.82029174 66.65180428 526.45786983 66.65847546 C520.64133714 66.67144773 514.82492362 66.67042885 509.00838331 66.66351307 C502.04059447 66.65600007 495.07285764 66.66586828 488.10507632 66.67621627 C474.45228049 66.6958915 460.79952261 66.6982289 447.14671599 66.69302107 C435.19710078 66.68846514 423.24750061 66.6890615 411.29788589 66.69486141 C409.69541485 66.69561828 408.09294381 66.69637426 406.49047277 66.69712936 C404.07572583 66.69827454 401.6609789 66.69942442 399.24623197 66.7005886 C376.7929418 66.71129522 354.33965664 66.71601725 331.88636494 66.70811844 C331.0398003 66.70782127 330.19323567 66.70752409 329.32101757 66.70721791 C322.44618911 66.70476894 315.57136072 66.70215737 308.69653232 66.69953378 C281.88260311 66.68943235 255.06873653 66.69778412 228.25481606 66.72102833 C198.13153777 66.74709904 168.00829719 66.75994926 137.8850072 66.75284058 C134.67314614 66.75212451 131.46128506 66.75145013 128.24942398 66.75080013 C127.45857849 66.75063032 126.667733 66.75046051 125.85292249 66.75028556 C113.91311365 66.74798226 101.97333981 66.75596111 90.03353882 66.76909161 C76.45435205 66.78399832 62.87524732 66.78485219 49.29606231 66.76702069 C42.36628758 66.75829553 35.43665571 66.75588955 28.50688934 66.77167225 C22.16390953 66.78546825 15.82122142 66.78082142 9.47825871 66.76143301 C7.18288212 66.75765706 4.88748245 66.76064061 2.59212633 66.77104466 C-0.52806422 66.78418235 -3.64724325 66.77265906 -6.76739025 66.75504684 C-7.65840912 66.76469736 -8.54942799 66.77434787 -9.46744743 66.78429082 C-17.01381421 66.69683962 -23.62998215 64.69744224 -29.73175621 60.17635059 C-38.61480177 50.85753298 -41.46893685 42.91647647 -41.19659996 30.08260059 C-40.51938944 20.46424827 -36.01276465 13.62279202 -28.92706871 7.25447559 C-20.28624789 0.87116652 -10.45040447 -0.05298526 0 0 Z " fill="#191919" transform="translate(970.9270687103271,997.7455244064331)"/>
<path d="M0 0 C1.69949769 -0.00302373 3.39899403 -0.00691432 5.09848797 -0.01159257 C9.75019913 -0.02185267 14.40183305 -0.01969582 19.05355048 -0.01541197 C24.07751781 -0.01294115 29.10146671 -0.02196332 34.12542725 -0.02944946 C43.96069059 -0.04218842 53.79592663 -0.04399117 63.63119684 -0.0416492 C71.62666367 -0.03986504 79.62212221 -0.04161779 87.61758804 -0.04587364 C89.32553193 -0.04676643 89.32553193 -0.04676643 91.06797973 -0.04767724 C93.38121962 -0.04888902 95.6944595 -0.05010315 98.00769939 -0.05131962 C119.69339075 -0.062192 141.37906655 -0.06003405 163.06475879 -0.05393478 C182.89533904 -0.04876549 202.72587017 -0.06002193 222.5564407 -0.07903299 C242.92868343 -0.09841333 263.30090293 -0.10666707 283.67315495 -0.10290974 C295.10654067 -0.10099805 306.53988459 -0.10348222 317.97326279 -0.11762428 C327.70625089 -0.1295415 337.43917145 -0.13093908 347.17216049 -0.11883412 C352.13566364 -0.11294797 357.09904325 -0.11183879 362.06253815 -0.12383652 C366.61118564 -0.13470351 371.15960657 -0.13158222 375.7082435 -0.11757483 C377.34879317 -0.11493017 378.98936064 -0.11728715 380.62989281 -0.1253107 C393.53169643 -0.18400331 406.08728455 0.33821775 416.23709106 9.26069641 C423.54326861 16.69505251 426.257375 24.32795131 426.73709106 34.63569641 C426.48337159 43.61102277 423.58792039 51.18404717 417.42459106 57.76069641 C406.48072209 67.63887028 393.47352492 67.55640991 379.51850891 67.52139282 C377.81162468 67.52441576 376.1047418 67.52830596 374.3978613 67.53298539 C369.72108781 67.54325582 365.04439105 67.54108599 360.36761129 67.5368048 C355.31840464 67.53433583 350.26921638 67.54335388 345.22001648 67.55084229 C335.33314701 67.56358673 325.44630471 67.56538328 315.55942842 67.56304202 C307.52198497 67.56125836 299.48454977 67.56300955 291.44710732 67.56726646 C289.73063411 67.56815925 289.73063411 67.56815925 287.97948468 67.56907007 C285.65472926 67.57028183 283.32997384 67.57149597 281.00521842 67.57271244 C259.20698476 67.58358708 237.40876656 67.58142589 215.61053202 67.5753276 C195.67642388 67.57015897 175.7423646 67.5814126 155.80826613 67.60042582 C135.33209393 67.6198061 114.85594485 67.62805985 94.37976342 67.62430257 C82.88711807 67.62239075 71.39451432 67.62487614 59.90187645 67.63901711 C50.11762729 67.6509343 40.33344534 67.65233198 30.54919525 67.64022694 C25.55937082 67.63434057 20.56966928 67.63323219 15.57985306 67.64522934 C11.00711057 67.65609573 6.43459348 67.65297574 1.8618615 67.63896766 C0.21253369 67.63632281 -1.43681183 67.63868055 -3.08612225 67.64670352 C-16.98696227 67.7096001 -28.78241237 66.83473533 -39.38790894 57.01069641 C-46.44412679 49.75153424 -48.07540894 41.99419046 -48.07540894 32.11372375 C-47.87303361 22.57678668 -44.48780611 16.06449364 -37.96212769 9.23725891 C-27.10360251 -0.52191292 -13.77159077 -0.03479485 0 0 Z " fill="#191919" transform="translate(977.7629089355469,1202.7393035888672)"/>
<path d="M0 0 C7.96812923 6.53257558 13.08744557 14.16977161 14.125 24.48046875 C14.59019513 36.88082647 10.21495973 45.28252964 2.06236696 54.31374967 C0.12216043 56.32954673 -1.84526686 58.31384173 -3.8270874 60.28874207 C-4.57653193 61.04342327 -5.32597645 61.79810447 -6.09813142 62.5756548 C-8.59423044 65.08667723 -11.0973497 67.59057655 -13.60058594 70.09448242 C-15.39842206 71.89994495 -17.19585642 73.70580763 -18.99291992 75.51203918 C-23.86413747 80.40515587 -28.74185667 85.29173555 -33.62150097 90.17644668 C-36.6718252 93.23003719 -39.72051553 96.28525535 -42.76886749 99.34081459 C-51.2206252 107.81212158 -59.67394693 116.28185876 -68.13402939 124.74485302 C-68.67434351 125.28535471 -69.21465764 125.82585641 -69.77134492 126.38273694 C-70.86651755 127.47827581 -71.96169145 128.57381341 -73.05686662 129.66934975 C-73.60045415 130.2131201 -74.14404168 130.75689044 -74.70410156 131.31713867 C-75.24835857 131.86157623 -75.79261557 132.40601378 -76.35336521 132.96694944 C-85.17615101 141.79327858 -93.98712759 150.63129507 -102.79298016 159.47451516 C-111.84874678 168.56839988 -120.9138781 177.65285944 -129.98857331 186.72785646 C-135.07763431 191.81750103 -140.16270002 196.91099523 -145.2375412 202.01482201 C-150.0096737 206.81408741 -154.79457625 211.60024606 -159.58831787 216.37794304 C-161.34296526 218.13077567 -163.09336699 219.88787053 -164.83911896 221.64956284 C-167.22796994 224.05888684 -169.63184123 226.45218287 -172.03997803 228.84220886 C-172.72269138 229.53812218 -173.40540473 230.23403551 -174.10880637 230.95103711 C-182.65691616 239.35360785 -191.46971513 242.69818448 -203.33666992 242.68530273 C-221.39241231 242.2872542 -233.42288998 225.33424548 -245.3359375 213.5 C-246.09405354 212.74720764 -246.85216957 211.99441528 -247.63325882 211.21881104 C-251.63515051 207.24346006 -255.63348753 203.26456912 -259.62939453 199.28320312 C-262.92196796 196.00402211 -266.2216813 192.73228755 -269.52783203 189.46679688 C-273.54460626 185.49938931 -277.54891975 181.5198008 -281.54463577 177.53118896 C-283.0609765 176.02154068 -284.58155268 174.51613364 -286.10651779 173.01519775 C-288.23843173 170.91501353 -290.35391353 168.79947904 -292.46630859 166.6796875 C-293.40299881 165.76760529 -293.40299881 165.76760529 -294.35861206 164.83709717 C-301.09941509 157.99962243 -304.08282676 150.20456526 -304.4375 140.6875 C-304.28443323 130.38610627 -300.62091953 123.00386627 -293.55859375 115.6875 C-286.25418802 108.90846916 -279.02669307 106.75013453 -269.13647461 106.90893555 C-253.08176222 107.64272513 -243.92044437 119.47919263 -233.2421875 130.22265625 C-232.34629913 131.11995956 -231.45041077 132.01726288 -230.52737427 132.9417572 C-228.18136207 135.29237063 -225.83753495 137.64513269 -223.49481201 139.99902344 C-221.08955934 142.41462812 -218.68136333 144.82729486 -216.2734375 147.24023438 C-211.57545384 151.94916562 -206.88034615 156.66094906 -202.1875 161.375 C-199.42014658 160.10958794 -197.38138201 158.81661802 -195.24007988 156.65970898 C-194.68442278 156.10495048 -194.12876568 155.55019198 -193.55627048 154.97862262 C-192.95608226 154.36919812 -192.35589405 153.75977362 -191.73751831 153.13188171 C-190.76904801 152.16068294 -190.76904801 152.16068294 -189.78101265 151.169864 C-187.6147022 148.99512772 -185.45562998 146.81334339 -183.29638672 144.6315918 C-181.74600589 143.07246278 -180.19514675 141.51380926 -178.6438446 139.95559692 C-175.30122413 136.59647279 -171.96158674 133.23442001 -168.62408066 129.87021446 C-163.34337616 124.54817705 -158.05347066 119.23535115 -152.76174927 113.92427063 C-145.33987493 106.47398599 -137.91971254 99.02200364 -130.50292969 91.56665039 C-130.03230705 91.0935852 -129.56168441 90.62052 -129.07680048 90.1331195 C-121.45858942 82.47494304 -113.84635007 74.81085059 -106.23542605 67.14543309 C-98.41343488 59.2679222 -90.58160011 51.4002732 -82.74194348 43.54034168 C-77.48263216 38.26640928 -72.23458358 32.98159908 -66.99459529 27.6884712 C-63.72548098 24.39155168 -60.44587205 21.10522935 -57.1632328 17.82178116 C-55.64719778 16.30118998 -54.13544237 14.77631761 -52.62841225 13.24680138 C-38.18537273 -1.4028862 -20.0677476 -13.91982492 0 0 Z " fill="#191919" transform="translate(1308.1875,1526.625)"/>
<path d="M0 0 C0.66 0.33 1.32 0.66 2 1 C-9.55 12.55 -21.1 24.1 -33 36 C-33 32.424357 -32.4879109 32.08790672 -30.10546875 29.59375 C-29.48478516 28.93745605 -28.86410156 28.28116211 -28.22460938 27.60498047 C-27.55236328 26.91033691 -26.88011719 26.21569336 -26.1875 25.5 C-25.50623047 24.78602051 -24.82496094 24.07204102 -24.12304688 23.33642578 C-22.0915684 21.21481833 -20.04854431 19.10512266 -18 17 C-17.44650879 16.42991211 -16.89301758 15.85982422 -16.32275391 15.27246094 C-11.09444826 9.90828979 -5.7870496 4.75824078 0 0 Z " fill="#0B0B0B" transform="translate(2170,801)"/>
<path d="M0 0 C0.66 0.33 1.32 0.66 2 1 C1.24074219 1.72445313 0.48148438 2.44890625 -0.30078125 3.1953125 C-1.305089 4.17146209 -2.30897283 5.14804795 -3.3125 6.125 C-3.81201172 6.599375 -4.31152344 7.07375 -4.82617188 7.5625 C-8.08491984 10.75650463 -10.15436424 13.75440785 -12 18 C-13 15 -13 15 -12.03125 12.94921875 C-8.50981326 7.74791296 -4.9566825 3.86621235 0 0 Z " fill="#0A0A0A" transform="translate(945,1208)"/>
<path d="M0 0 C0.66 0.33 1.32 0.66 2 1 C1.24074219 1.72445312 0.48148438 2.44890625 -0.30078125 3.1953125 C-1.305089 4.17146209 -2.30897283 5.14804795 -3.3125 6.125 C-3.81201172 6.599375 -4.31152344 7.07375 -4.82617188 7.5625 C-8.08491984 10.75650463 -10.15436424 13.75440785 -12 18 C-13 15 -13 15 -12.03125 12.94921875 C-8.50981326 7.74791296 -4.9566825 3.86621235 0 0 Z " fill="#0A0A0A" transform="translate(945,1003)"/>
<path d="M0 0 C0.66 0.33 1.32 0.66 2 1 C1.24074219 1.72445312 0.48148438 2.44890625 -0.30078125 3.1953125 C-1.305089 4.17146209 -2.30897283 5.14804795 -3.3125 6.125 C-3.81201172 6.599375 -4.31152344 7.07375 -4.82617188 7.5625 C-8.08491984 10.75650463 -10.15436424 13.75440785 -12 18 C-13 15 -13 15 -12.03125 12.94921875 C-8.50981326 7.74791296 -4.9566825 3.86621235 0 0 Z " fill="#0A0A0A" transform="translate(945,798)"/>
<path d="M0 0 C-1.134375 0.639375 -2.26875 1.27875 -3.4375 1.9375 C-8.70104806 5.19543851 -12.77987361 9.51611571 -17 14 C-17 9.67878117 -14.8345081 8.04866307 -12.01171875 4.9453125 C-8.48194099 1.53205167 -5.01527875 -1.67175958 0 0 Z " fill="#0A0A0A" transform="translate(572,518)"/>
</svg>
