<?xml version="1.0" encoding="UTF-8"?>
<svg version="1.1" xmlns="http://www.w3.org/2000/svg" width="2224" height="2224">
<path d="M0 0 C10.99479168 9.51967143 17.25752154 20.46493029 19 35 C19.08866978 37.66198136 19.13560305 40.29670313 19.12749195 42.95771599 C19.12913578 43.73299493 19.13077962 44.50827387 19.13247326 45.30704612 C19.13678158 47.90229669 19.13401518 50.4974909 19.13130188 53.09274292 C19.13300462 54.97327948 19.13515458 56.85381568 19.13771313 58.73435128 C19.14230631 62.82173906 19.14373174 66.90911171 19.14274788 70.99650192 C19.14115399 77.64706771 19.14635956 84.2976185 19.15237427 90.94818115 C19.16048479 100.60357534 19.1654302 110.25896689 19.16866493 119.91436386 C19.17416276 135.17405051 19.19106099 150.43371483 19.21000671 165.69338989 C19.21636329 170.91415974 19.22267173 176.13492964 19.22898388 181.35569954 C19.23056764 182.66039295 19.2321514 183.96508637 19.23378316 185.30931594 C19.25171768 200.15884575 19.26796134 215.0083771 19.28295898 229.85791016 C19.2836479 230.53640139 19.28433682 231.21489262 19.28504662 231.91394419 C19.30731443 253.92107905 19.31914905 275.92820711 19.32662554 297.93535142 C19.33461083 321.20988436 19.35756864 344.48436092 19.3952834 367.75886834 C19.41731854 381.69452296 19.42696994 395.63007611 19.42078307 409.56574728 C19.41761093 419.11337097 19.4289224 428.66090793 19.45167748 438.20850478 C19.46435677 443.7184553 19.47050101 449.22821259 19.45926094 454.73817062 C19.44910231 459.78275504 19.45732159 464.82696407 19.4801239 469.87150408 C19.48512325 471.69579783 19.48338067 473.5201252 19.47419123 475.34440266 C19.34111714 489.98525429 19.34111714 489.98525429 26.1875 502.5625 C30.21349641 504.6202315 33.57054955 504.73693512 38 504 C43.50141687 501.67247748 45.369912 498.07279575 47.85427856 492.93011475 C49.86753011 487.7813431 50.4332952 482.53511969 51.05859375 477.0703125 C51.21629745 475.82001251 51.37400116 474.56971252 51.53648376 473.28152466 C51.96188745 469.89346968 52.36256136 466.50297624 52.75514984 463.11097717 C53.00102281 460.99118185 53.25125083 458.8719427 53.50274658 456.75280762 C54.90304942 444.93665112 56.25388303 433.11476356 57.57543945 421.28955078 C57.99415022 417.54643874 58.42131921 413.80436931 58.85366631 410.06280899 C59.01348639 408.66555609 59.1702157 407.26794539 59.32350349 405.86996078 C61.46080314 386.39520131 66.25494182 368.7524726 81.8125 355.625 C98.14438445 343.56991837 117.5879917 339.94620678 137.49609375 342.4375 C153.3616068 345.48489747 166.4100656 355.13822527 175.9375 367.9375 C184.33980953 380.86885929 186.14134307 394.40199155 187.2003746 409.42558098 C187.37081951 411.82854856 187.55079653 414.23063523 187.73342896 416.63270569 C188.2511591 423.45522339 188.75754856 430.27849418 189.24462891 437.10327148 C189.54468133 441.29802395 189.86024981 445.49137921 190.18527603 449.68426704 C190.30507329 451.26845242 190.41914115 452.85308312 190.52703476 454.4381237 C191.14348142 463.46937801 192.16644538 471.66466653 196 480 C196.32531708 480.73101425 196.65063416 481.4620285 196.98580933 482.2151947 C197.91285493 484.20681768 197.91285493 484.20681768 200.25 485.25 C204.84949158 486.5044068 207.7200899 486.62689474 212.0625 484.5 C224.42395922 473.97960918 224.19037104 453.90537985 226.29956055 438.85375977 C229.1177183 418.87235709 233.84829806 400.04995905 250.56640625 386.99609375 C267.08456092 375.86377117 286.49987069 372.57467877 305.9609375 376.24609375 C322.40444145 380.32526632 336.07509365 388.46036383 345 403 C348.46415706 409.02878162 350.44308773 415.19794094 351.921875 421.96875 C352.09263046 422.74472534 352.26338593 423.52070068 352.4393158 424.32019043 C354.77911078 435.27370506 356.34241457 446.36339034 358.00268555 457.43554688 C358.43466948 460.30171836 358.87525107 463.16647805 359.31640625 466.03125 C359.50403282 467.31279968 359.50403282 467.31279968 359.69544983 468.62023926 C361.3090936 479.06455702 363.59376073 489.3989453 371.9375 496.5 C375.44195298 498.21646677 377.16110056 498.71979364 381 498 C387.46455801 494.25055636 389.08280971 489.00016951 391 482 C392.14565676 476.09236974 392.79251483 470.09754814 393.5 464.125 C397.0673942 434.14528689 397.0673942 434.14528689 408.625 422.3125 C419.17277196 414.1024928 433.1363085 412.88631177 446 414 C463.55600637 416.53991787 476.84690394 423.43726758 487.74609375 437.78515625 C491.81047543 444.96429772 492.43382349 451.09005504 492.38095093 459.19108582 C492.38797089 460.85277069 492.38797089 460.85277069 492.39513266 462.54802495 C492.40707412 466.25113347 492.39762759 469.95387131 492.38818359 473.65698242 C492.39225034 476.31731745 492.3974851 478.97762721 492.40411377 481.63795471 C492.41744456 488.11569633 492.41457256 494.59333354 492.40587585 501.07107922 C492.39908019 506.35423697 492.39819076 511.63736562 492.4014473 516.9205265 C492.401907 517.67475954 492.40236669 518.42899257 492.40284032 519.20608116 C492.40379965 520.73902883 492.40477229 522.27197651 492.4057581 523.80492417 C492.41431446 538.18633454 492.40448281 552.56768759 492.388357 566.94908855 C492.37503258 579.20884527 492.37721583 591.46851643 492.39111328 603.72827148 C492.40730228 618.01585951 492.4134078 632.30339681 492.40427649 646.59099275 C492.40332107 648.12693392 492.40237796 649.66287511 492.4014473 651.1988163 C492.40098447 651.95414448 492.40052164 652.70947267 492.40004479 653.48768958 C492.39748847 658.73128427 492.40181263 663.97484568 492.40888596 669.21843529 C492.48913377 734.54251789 488.76412208 799.52136447 468 862 C467.65356445 863.04365723 467.30712891 864.08731445 466.95019531 865.16259766 C446.73021282 925.202811 412.6060585 979.36715754 361 1017 C360.11997314 1017.64195312 360.11997314 1017.64195312 359.22216797 1018.296875 C339.96343639 1032.22511527 319.06614537 1043.26331166 297 1052 C296.25057129 1052.30147949 295.50114258 1052.60295898 294.72900391 1052.91357422 C213.9627697 1085.174308 114.94623061 1082.86055965 6 1057 C5.13552246 1056.73106934 4.27104492 1056.46213867 3.38037109 1056.18505859 C-45.45613957 1040.74361691 -91.63350191 1009.72802582 -123 969 C-124.03847018 967.71071142 -125.07900815 966.42308687 -126.12109375 965.13671875 C-151.54446731 933.48559288 -169.50543855 897.25893888 -186.79736328 860.76171875 C-191.14698866 851.61134834 -195.69052564 842.55970342 -200.25976562 833.51757812 C-203.42235217 827.23773427 -206.51834021 820.93344149 -209.52968216 814.57951677 C-216.25760123 800.39825243 -223.27025563 786.36352935 -230.32239223 772.34176326 C-232.06491794 768.87578921 -233.80480778 765.40849231 -235.54493713 761.9413147 C-238.1612967 756.72875252 -240.77838918 751.51655953 -243.39637262 746.30481274 C-248.53564304 736.07362149 -253.66870588 725.83932623 -258.79956055 715.60391235 C-259.6116598 713.98394157 -260.42376022 712.36397137 -261.23586178 710.74400175 C-262.87826306 707.4677189 -264.52063354 704.19142062 -266.16298866 700.91511464 C-270.36195891 692.53872765 -274.56126741 684.16251034 -278.76123047 675.78662109 C-279.18188093 674.94772184 -279.6025314 674.10882259 -280.03592885 673.24450214 C-286.87130099 659.61346311 -293.71536995 645.98680676 -300.56220555 632.36152296 C-307.61627523 618.32324243 -314.65960689 604.27961112 -321.69339561 590.2311579 C-326.02020194 581.59021718 -330.35543458 572.95361378 -334.70178705 564.32248767 C-337.67623392 558.41381731 -340.64032311 552.50002534 -343.59642118 546.58215408 C-345.29909999 543.17430579 -347.00617557 539.76886267 -348.72574043 536.36949921 C-350.59397781 532.67594491 -352.44006247 528.97173923 -354.28442383 525.26620483 C-354.82458759 524.20694931 -355.36475136 523.14769379 -355.92128372 522.05633962 C-361.20423675 511.34892905 -365.2359816 499.62048583 -361.27734375 487.8515625 C-356.9620555 478.1001319 -348.74819434 472.68498888 -339.11181641 468.76367188 C-320.46587039 462.0209529 -299.26826191 462.37939787 -280 466 C-279.35321289 466.11827148 -278.70642578 466.23654297 -278.04003906 466.35839844 C-255.90317747 470.53897826 -234.79822636 479.8711626 -218 495 C-217.23171875 495.68578125 -216.4634375 496.3715625 -215.671875 497.078125 C-202.93772118 509.0998786 -194.60361612 524.95666613 -186 540 C-185.55124512 540.7842334 -185.10249023 541.5684668 -184.64013672 542.37646484 C-178.44189009 553.26334282 -172.63618034 564.34975966 -166.875 575.47265625 C-165.14733791 578.80547141 -163.40481155 582.12833792 -161.625 585.43359375 C-156.72669426 594.53522641 -152.18749427 603.75575566 -147.89233398 613.16015625 C-144.86337005 619.66035898 -142.17628099 625.13159941 -135.8125 628.875 C-129.54021793 630.72583733 -123.75451461 631.11088017 -117.6875 628.375 C-112.7712737 625.57424077 -109.00420216 621.34453908 -107 616 C-105.86816739 610.72032371 -105.85976609 605.59191893 -105.87250805 600.22154045 C-105.8700423 598.74513092 -105.8700423 598.74513092 -105.86752674 597.23889494 C-105.86320036 593.92665429 -105.86599045 590.6144574 -105.86869812 587.30221558 C-105.86699627 584.9090802 -105.86484672 582.5159451 -105.86228687 580.12281048 C-105.85768601 574.91225534 -105.85614043 569.70170847 -105.85725212 564.49115181 C-105.85886246 556.74259964 -105.85469892 548.99405821 -105.84917164 541.24550821 C-105.84051999 529.0079255 -105.83515855 516.77034421 -105.83197013 504.53275895 C-105.82682714 485.10316942 -105.81136026 465.67359825 -105.79239365 446.24401779 C-105.78837218 442.10864622 -105.78445127 437.97327456 -105.78052729 433.8379029 C-105.77974464 433.01353241 -105.77896198 432.18916191 -105.77815561 431.33981049 C-105.77657003 429.66929071 -105.7749852 427.99877093 -105.77340112 426.32825116 C-105.77180984 424.65154711 -105.77021559 422.97484307 -105.76861839 421.29813902 C-105.74978758 401.52428151 -105.73270169 381.75042277 -105.71704102 361.9765625 C-105.71600764 360.67870673 -105.71600764 360.67870673 -105.71495338 359.35463166 C-105.69269246 331.29905672 -105.68085314 303.24348711 -105.67337446 275.18790477 C-105.66560871 246.34083498 -105.64454676 217.49380153 -105.60783185 188.6467535 C-105.60265827 184.57204976 -105.59765091 180.49734583 -105.59275246 176.42264175 C-105.59130202 175.21975823 -105.59130202 175.21975823 -105.58982228 173.99257402 C-105.57468474 161.09103952 -105.57378621 148.18954143 -105.57840959 135.28800049 C-105.58279509 122.31873103 -105.57287363 109.3495362 -105.54832252 96.38028865 C-105.53419108 88.67757091 -105.53118142 80.97503612 -105.54416505 73.27231538 C-105.55264207 67.51728496 -105.54026968 61.76244847 -105.5198761 56.00745489 C-105.51487869 53.68173405 -105.51661558 51.35598682 -105.52580877 49.03027879 C-105.59364883 30.40168219 -103.92566038 17.66139508 -90.6796875 3.5234375 C-66.87768223 -19.36016243 -25.76484708 -19.80995176 0 0 Z " fill="#191919" transform="translate(1615,902)"/>
<path d="M0 0 C1.00534618 -0.00177501 2.01069236 -0.00355002 3.04650357 -0.00537882 C6.41907026 -0.010114 9.79159409 -0.00774695 13.16416276 -0.00541991 C15.61547637 -0.00737332 18.06678966 -0.00976234 20.51810247 -0.01254788 C25.86652448 -0.0176118 31.21493431 -0.01956601 36.5633577 -0.01879714 C44.57042161 -0.01766039 52.57747531 -0.02224703 60.58453693 -0.02792798 C74.23174951 -0.03743452 87.87896005 -0.04214609 101.52617562 -0.04423732 C115.35816138 -0.04636615 129.19014397 -0.05062691 143.02212822 -0.05748004 C144.33225868 -0.05812596 144.33225868 -0.05812596 145.66885642 -0.05878493 C149.22615728 -0.06054329 152.78345814 -0.06231294 156.34075899 -0.06409795 C199.46467882 -0.08569478 242.58859928 -0.09657659 285.71252329 -0.10557419 C299.69853707 -0.10850854 313.68455069 -0.11187849 327.67056429 -0.1155414 C328.65736639 -0.11579969 329.64416849 -0.11605798 330.66087367 -0.1163241 C334.6532377 -0.11737034 338.64560173 -0.11841876 342.63796576 -0.11946992 C410.9335084 -0.13743547 479.22905128 -0.15281354 547.52459594 -0.16022895 C552.88897765 -0.16081292 558.25335935 -0.16141019 563.61774106 -0.16200657 C565.21391277 -0.16218375 565.21391277 -0.16218375 566.84233038 -0.16236451 C577.62315931 -0.16356188 588.40398824 -0.16477065 599.18481717 -0.16599704 C601.34639148 -0.16624227 603.50796579 -0.16648613 605.6695401 -0.16672861 C675.07156218 -0.17451609 744.47356734 -0.19689406 813.87558203 -0.22940504 C863.74332162 -0.25275742 913.61105784 -0.27430571 963.4788028 -0.28141135 C964.504834 -0.28155837 965.53086521 -0.28170539 966.58798826 -0.28185687 C989.11457031 -0.28504204 1011.64115232 -0.28709269 1034.16773457 -0.28808442 C1043.23215867 -0.28849914 1052.29658276 -0.28905404 1061.36100686 -0.28964633 C1062.35303249 -0.289707 1063.34505812 -0.28976766 1064.36714514 -0.28983017 C1096.29535191 -0.29184447 1128.22353868 -0.30607051 1160.15173847 -0.32659133 C1192.32399344 -0.34719561 1224.49622532 -0.35505429 1256.66848622 -0.34551357 C1261.12028003 -0.34419522 1265.57207386 -0.34301714 1270.02386773 -0.34192294 C1270.89649371 -0.34170309 1271.7691197 -0.34148324 1272.66818889 -0.34125673 C1286.45172019 -0.33814978 1300.23520714 -0.34844018 1314.01872817 -0.36439849 C1327.59248519 -0.37983332 1341.16618125 -0.38085565 1354.73994045 -0.36685025 C1362.68409164 -0.35907817 1370.62805584 -0.36204467 1378.57218807 -0.38148742 C1384.49311517 -0.39473436 1390.41389766 -0.38675935 1396.33482232 -0.37100006 C1398.69817821 -0.36787885 1401.06155543 -0.37129741 1403.42488687 -0.38249181 C1451.43580133 -0.59488791 1497.64059222 12.92859234 1536.70560753 41.12880117 C1537.31227257 41.56579335 1537.91893761 42.00278554 1538.54398644 42.45301992 C1546.78566042 48.45367866 1554.3527439 55.08713157 1561.70560753 62.12880117 C1562.20447472 62.60043691 1562.70334191 63.07207265 1563.21732628 63.55800039 C1597.99441582 96.55823991 1621.78745526 145.40758787 1623.80788981 193.56680878 C1623.85806107 196.2340109 1623.87966078 198.89989305 1623.89010823 201.56754762 C1623.89785319 202.58676208 1623.90559816 203.60597654 1623.91357782 204.65607628 C1623.93826752 208.06910488 1623.95613195 211.48213323 1623.97390282 214.89520437 C1623.990095 217.3678767 1624.00664765 219.8405467 1624.02352971 222.31321442 C1624.06376499 228.39474583 1624.09925967 234.47628865 1624.13246706 240.55786117 C1624.16018274 245.61576256 1624.19005266 250.6736475 1624.22116959 255.73152906 C1624.56349846 311.53827504 1624.76584426 367.34563198 1624.92016319 423.15318666 C1624.94259614 431.23091628 1624.96590412 439.30864335 1624.98954308 447.38636953 C1624.9934338 448.72516305 1624.9934338 448.72516305 1624.99740312 450.0910029 C1625.08203924 479.03460588 1625.24072652 507.97721495 1625.43867947 536.92024681 C1625.6419063 566.68860964 1625.77310744 596.45642754 1625.81282932 626.22547962 C1625.81846807 630.43090838 1625.82491452 634.63633555 1625.8318454 638.84176236 C1625.83385061 640.08320416 1625.83385061 640.08320416 1625.83589633 641.34972558 C1625.85947863 654.65962704 1625.95855196 667.96794119 1626.08587349 681.27720976 C1626.21221998 694.65758528 1626.25802649 708.03633489 1626.22215103 721.41727539 C1626.2032634 729.36399429 1626.24541718 737.30485904 1626.37601669 745.25055681 C1626.46683863 751.19012932 1626.44210532 757.12563519 1626.3731705 763.06562213 C1626.3631948 765.46344712 1626.3903092 767.86178092 1626.45871633 770.25865068 C1626.92610027 787.66158507 1626.92610027 787.66158507 1621.58334143 793.413655 C1616.33583089 797.65899463 1610.59590009 800.75018273 1604.54400385 803.68899397 C1600.01293723 805.98742647 1595.8200206 808.77669564 1591.58060753 811.56630117 C1584.42932472 816.21865564 1584.42932472 816.21865564 1581.75101769 815.88612539 C1579.49125656 815.04943656 1577.51347165 814.030641 1575.42435753 812.82801992 C1574.5800216 812.34397695 1573.73568566 811.85993398 1572.86576378 811.36122304 C1571.98791222 810.85139882 1571.11006066 810.3415746 1570.20560753 809.81630117 C1569.38963097 809.34901601 1568.57365441 808.88173085 1567.73295128 808.40028554 C1565.93460578 807.36442781 1564.15261645 806.29980339 1562.38547426 805.211568 C1559.60333781 803.55865868 1556.75925414 802.26108656 1553.79017609 800.97728348 C1540.48791137 794.80040801 1540.48791137 794.80040801 1537.54696028 788.7419482 C1535.68472989 781.69387417 1536.09762955 774.43733804 1536.28274071 767.21164113 C1536.27202936 764.75909189 1536.25251964 762.30656802 1536.22499722 759.85414982 C1536.18529222 754.53020404 1536.20732582 749.21189966 1536.28449738 743.88875562 C1536.39888265 735.9738612 1536.39779394 728.06187332 1536.3734528 720.14633897 C1536.33567687 706.82613984 1536.39031239 693.50783279 1536.49750626 680.18807584 C1536.60330008 666.99320556 1536.6661795 653.79924204 1536.67269623 640.60393506 C1536.67312005 639.78235073 1536.67354387 638.96076639 1536.67398054 638.11428555 C1536.67589052 633.94124964 1536.67700609 629.76821393 1536.67779494 625.59517767 C1536.68460149 596.04498146 1536.78176323 566.49571446 1536.9343673 536.94593984 C1537.08208443 508.28516126 1537.19663179 479.62461335 1537.26053917 450.96351796 C1537.26252483 450.08094509 1537.26451049 449.19837221 1537.26655632 448.2890547 C1537.30792432 429.84467114 1537.34318545 411.40027655 1537.37695469 392.95587773 C1537.39102517 385.27634579 1537.4055048 377.59681464 1537.42008902 369.91728367 C1537.42484837 367.39108531 1537.42949464 364.86488676 1537.43412424 362.33868816 C1537.47527278 340.09773325 1537.54946187 317.8571483 1537.65285203 295.61639858 C1537.69893427 285.59534049 1537.73485579 275.5742432 1537.76967793 265.55314044 C1537.79754466 257.68922445 1537.83466906 249.8254656 1537.88457412 241.96165814 C1537.92105008 236.07812591 1537.94173528 230.19460468 1537.95662642 224.31097605 C1537.96520121 221.9395551 1537.97897724 219.5681457 1537.9986363 217.19679073 C1538.12868585 201.11662705 1537.46334065 185.59662974 1532.14310753 170.25380117 C1531.89335167 169.52459462 1531.64359581 168.79538808 1531.3862716 168.04408437 C1519.61491965 135.31763637 1495.36739674 111.02154231 1464.26029503 96.26747304 C1438.12504977 84.61850669 1411.09006523 83.97273982 1382.97079766 84.00016671 C1380.57522405 83.99881843 1378.17965065 83.99703362 1375.78407764 83.99485448 C1370.5796896 83.99112249 1365.37531067 83.99046411 1360.1709221 83.99256042 C1352.37963596 83.99568144 1344.58835892 83.99301198 1336.79707343 83.98926172 C1323.51487896 83.9830393 1310.23268774 83.98155393 1296.95049202 83.98267919 C1283.49556288 83.98380472 1270.0406365 83.98276582 1256.58570778 83.97910672 C1255.30959053 83.97876224 1255.30959053 83.97876224 1254.00769312 83.97841081 C1250.5425609 83.97746914 1247.07742867 83.97651345 1243.61229646 83.97553962 C1207.48736997 83.96540208 1171.36244504 83.96233388 1135.2375173 83.9617475 C1131.35060851 83.96168276 1127.46369972 83.96161482 1123.57679093 83.9615441 C1122.12992998 83.96151859 1122.12992998 83.96151859 1120.65383951 83.96149257 C1099.26786234 83.96108391 1077.88188546 83.95889333 1056.49590844 83.95638825 C1047.68667508 83.95535988 1038.87744171 83.95436984 1030.06820834 83.953372 C1029.09482913 83.95326141 1028.12144993 83.95315082 1027.11857438 83.95303688 C971.34748326 83.94671378 915.57639233 83.94258766 859.80530083 83.94304544 C857.71865725 83.94306122 855.63201367 83.94307695 853.54537009 83.94309265 C844.12459094 83.94316603 834.70381179 83.9432542 825.28303265 83.94334653 C821.08216775 83.94338765 816.88130285 83.9434278 812.68043796 83.94346784 C810.57783075 83.94348824 808.47522355 83.94350926 806.37261634 83.9435309 C739.8908377 83.9442111 673.40906438 83.93689431 606.92728722 83.92299062 C590.17734573 83.91948951 573.42740423 83.91602001 556.6774627 83.91272622 C555.64605956 83.91252335 554.61465642 83.91232048 553.55199864 83.91211145 C521.75534449 83.90589498 489.95869079 83.90213061 458.16203606 83.90086824 C457.16351957 83.90082829 456.16500307 83.90078834 455.13622851 83.90074717 C433.21471958 83.89989384 411.29321069 83.89963272 389.37170175 83.89991755 C381.52748211 83.90001403 373.68326247 83.90006608 365.83904284 83.90009628 C363.8876527 83.90010419 361.93626257 83.9001144 359.98487244 83.9001269 C328.91335373 83.9003031 297.84183958 83.89461026 266.77032218 83.88597309 C235.46903317 83.87731628 204.16775047 83.8751378 172.86646077 83.88173441 C168.53654578 83.88264664 164.20663079 83.88348994 159.87671578 83.88429242 C159.02797604 83.88445251 158.1792363 83.8846126 157.30477717 83.88477754 C143.89232859 83.88712605 130.47989097 83.88278336 117.06744444 83.87562124 C103.86317512 83.86871141 90.6589219 83.86899646 77.45465292 83.87681337 C69.72443739 83.88117789 61.99426945 83.88016376 54.26405792 83.87094659 C48.50668436 83.86470194 42.74935561 83.86903075 36.99198635 83.87727989 C34.6909591 83.87898857 32.38992619 83.87741462 30.08890472 83.87197868 C-10.49933691 83.78258389 -48.35648723 88.95318276 -80.29439247 116.12880117 C-81.18513465 116.86872304 -82.07587684 117.60864492 -82.99361122 118.37098867 C-106.05661044 138.22000178 -120.1945114 168.10795533 -123.08958111 198.19255545 C-123.48830447 203.90879 -123.43202033 209.62915471 -123.42302692 215.35674173 C-123.42437538 216.78777988 -123.42616029 218.21881768 -123.42833915 219.64985481 C-123.43305305 223.57671449 -123.43157271 227.50355088 -123.42906138 231.43041168 C-123.42742488 235.70488294 -123.431572 239.9793493 -123.43497056 244.25381899 C-123.44012051 251.74390663 -123.44154246 259.23398781 -123.44051445 266.72407705 C-123.43898941 277.86267148 -123.44315156 289.00125877 -123.44838907 300.13985181 C-123.4580619 321.19307408 -123.46087331 342.24629392 -123.46144613 363.29951815 C-123.46190568 379.56101997 -123.46396408 395.82252083 -123.46714675 412.08402234 C-123.46804431 416.76506809 -123.46893412 421.44611384 -123.46982163 426.1271596 C-123.47004268 427.29089778 -123.47026373 428.45463597 -123.47049147 429.65363895 C-123.47664623 462.39064368 -123.48059199 495.12764808 -123.4801482 527.86465341 C-123.48013262 529.09903484 -123.48011704 530.33341627 -123.48010099 531.60520319 C-123.48001788 537.86152291 -123.47991884 544.11784263 -123.47981628 550.37416235 C-123.47979634 551.61668137 -123.47977639 552.85920039 -123.47975584 554.1393715 C-123.4797154 556.65205003 -123.47967361 559.16472857 -123.47963045 561.6774071 C-123.47901791 600.75699335 -123.48652014 639.83657092 -123.50020301 678.91615468 C-123.51557105 722.82680261 -123.52416877 766.73744483 -123.52323979 810.64809561 C-123.52316516 815.33259926 -123.52311645 820.01710292 -123.52308547 824.70160657 C-123.52306799 826.43175594 -123.52306799 826.43175594 -123.52305016 828.19685783 C-123.52301941 846.74233509 -123.52939988 865.28780481 -123.53801774 883.83327984 C-123.54650399 902.48163983 -123.54747658 921.12998881 -123.54090842 939.77834968 C-123.53721902 950.84959564 -123.53902685 961.92080809 -123.54885076 972.99205049 C-123.55486584 980.39828171 -123.55353835 987.80448876 -123.54638026 995.21071889 C-123.54251158 999.42343854 -123.54168577 1003.6360935 -123.54983761 1007.8488085 C-123.77394294 1050.316135 -123.77394294 1050.316135 -110.29439247 1090.12880117 C-109.96423133 1090.76414785 -109.6340702 1091.39949453 -109.29390419 1092.05409414 C-104.50233939 1101.22237913 -99.32958131 1109.47152971 -92.29439247 1117.12880117 C-91.63165321 1117.85510732 -91.63165321 1117.85510732 -90.95552528 1118.59608632 C-68.37958772 1143.06513486 -36.40654726 1157.56684603 -3.29439247 1160.12880117 C1.48902005 1160.27427406 6.27139717 1160.27142574 11.05656826 1160.26746637 C12.51326144 1160.26991678 13.96995394 1160.27280154 15.42664549 1160.27607915 C19.429251 1160.28382869 23.43183882 1160.28542004 27.43445092 1160.28600657 C31.78898957 1160.28773857 36.14351895 1160.29522559 40.49805218 1160.30198312 C48.12963585 1160.31303334 55.76121622 1160.32040925 63.39280617 1160.32538205 C74.74070248 1160.33279307 86.08858729 1160.34587739 97.43647682 1160.36012781 C116.52542156 1160.3839384 135.61436835 1160.40314257 154.70332062 1160.41972715 C173.60549811 1160.43616449 192.50767177 1160.45464571 211.40984452 1160.47586042 C212.58484793 1160.47717802 213.75985134 1160.47849563 214.97046092 1160.47985317 C220.93763841 1160.48655519 226.90481586 1160.49329377 232.8719933 1160.50004642 C275.14440853 1160.5478175 317.41682733 1160.59100023 359.68925011 1160.63148671 C400.75793765 1160.67083081 441.82662223 1160.71225194 482.8953048 1160.75648671 C484.16108048 1160.75784924 485.42685615 1160.75921177 486.73098867 1160.76061559 C499.44235527 1160.77430089 512.15372182 1160.78802844 524.86508834 1160.80178693 C550.75992077 1160.82981395 576.6547535 1160.857559 602.54958642 1160.88513356 C604.33551491 1160.88703586 604.33551491 1160.88703586 606.15752277 1160.88897659 C685.67354622 1160.9736415 765.1895764 1161.05173326 844.70560753 1161.12880117 C845.99017415 1163.69133235 847.27402736 1166.2542168 848.55747521 1168.81730825 C848.91917872 1169.53867373 849.28088223 1170.26003921 849.65354645 1171.00326425 C852.18836756 1176.06727283 854.64882575 1181.15749433 857.00248253 1186.30848867 C857.35869683 1187.08203695 857.71491112 1187.85558522 858.08191979 1188.65257436 C859.20908696 1191.10179633 860.33256624 1193.552685 861.45560753 1196.00380117 C862.63696551 1198.57662378 863.81891857 1201.14917244 865.00092614 1203.72169667 C865.78461158 1205.42751387 866.56796047 1207.13348572 867.35096276 1208.8396166 C869.72801025 1214.01572799 872.1252129 1219.18186178 874.54154503 1224.33973867 C875.10969391 1225.55599354 875.67773212 1226.77230011 876.2456466 1227.98866445 C877.27707131 1230.19482027 878.31266337 1232.39903415 879.35306847 1234.60096914 C879.80198449 1235.56405996 880.2509005 1236.52715078 880.71342003 1237.51942617 C881.10158898 1238.34474843 881.48975792 1239.1700707 881.88968956 1240.02040273 C882.70560753 1242.12880117 882.70560753 1242.12880117 882.70560753 1245.12880117 C798.2333805 1245.16308503 713.76115263 1245.19488333 629.28892052 1245.21348745 C627.41317722 1245.21390162 627.41317722 1245.21390162 625.49954012 1245.21432416 C598.32198544 1245.22031017 571.14443069 1245.2258505 543.96687584 1245.23093183 C531.30833303 1245.23330114 518.64979025 1245.23575261 505.99124747 1245.23826605 C503.98195571 1245.23866455 501.97266394 1245.23906079 499.96337217 1245.23945693 C469.0374226 1245.24557407 438.11147459 1245.25338635 407.18552697 1245.26613027 C406.52101708 1245.26640407 405.8565072 1245.26667786 405.17186066 1245.26695996 C394.45856881 1245.27138449 383.74527702 1245.27595179 373.03198523 1245.28053805 C328.19316185 1245.29972997 283.35434154 1245.31251259 238.51551409 1245.31663115 C232.27466154 1245.31720744 226.03380901 1245.31785872 219.79295647 1245.31855565 C217.950548 1245.31875792 217.950548 1245.31875792 216.07091915 1245.31896428 C196.31033176 1245.32132642 176.54975338 1245.33059905 156.78916967 1245.34246523 C136.91634149 1245.354251 117.04352223 1245.35873429 97.17069069 1245.35580392 C85.3683179 1245.35428441 73.56597781 1245.35832359 61.76361094 1245.37039625 C53.87095518 1245.37791699 45.97832074 1245.37811376 38.08566349 1245.37246479 C33.59412305 1245.36945651 29.10264427 1245.36952846 24.61111054 1245.37856753 C-17.31686786 1245.45804995 -17.31686786 1245.45804995 -37.73189247 1241.12880117 C-38.70577919 1240.922954 -39.6796659 1240.71710683 -40.68306434 1240.50502187 C-58.83345996 1236.41376755 -77.24053624 1230.24806651 -93.50825965 1221.12635976 C-95.39378694 1220.07328917 -97.29868913 1219.06295755 -99.20845497 1218.05458242 C-126.24019511 1203.57364535 -150.20687054 1182.89199885 -168.29439247 1158.12880117 C-169.04978309 1157.1065746 -169.80517372 1156.08434804 -170.58345497 1155.03114492 C-194.85174362 1121.11556837 -208.48285177 1081.35239558 -208.42582023 1039.56821138 C-208.42747191 1038.08857862 -208.42955912 1036.60894629 -208.43204033 1035.12931469 C-208.43759044 1031.06287644 -208.43693761 1026.99645931 -208.43526274 1022.93001848 C-208.43453036 1018.50599286 -208.43955762 1014.08197314 -208.44383776 1009.65795004 C-208.45141156 1000.88312158 -208.45361051 992.1082992 -208.45416682 983.33346781 C-208.45508107 972.82283496 -208.46175047 962.31220772 -208.46851364 951.80157728 C-208.48456994 926.3976673 -208.49047657 900.99375792 -208.49526239 875.58984377 C-208.49759877 863.5702468 -208.50120148 851.5506503 -208.50495777 839.5310537 C-208.51779313 798.38066194 -208.52851218 757.23027044 -208.53196037 716.07987672 C-208.532182 713.49691066 -208.53240378 710.91394459 -208.53262572 708.33097853 C-208.53284636 705.74179881 -208.53306684 703.15261909 -208.53328717 700.56343937 C-208.53372972 695.36916218 -208.53417683 690.17488499 -208.53462684 684.98060781 C-208.53473623 683.69273004 -208.53484562 682.40485226 -208.53495833 681.07794789 C-208.5385885 639.32381776 -208.55450712 597.569705 -208.57781721 555.81558152 C-208.60242113 511.66306815 -208.61613348 467.5105647 -208.61732829 423.35804427 C-208.61749974 418.50980792 -208.61771517 413.66157158 -208.61796272 408.81333524 C-208.61801849 407.61957704 -208.61807426 406.42581884 -208.61813171 405.19588614 C-208.61928169 385.99647904 -208.63029916 366.79708978 -208.64484977 347.5976887 C-208.65922634 328.29389966 -208.6624452 308.99013346 -208.6544098 289.68634053 C-208.64995898 278.22383979 -208.65379223 266.76141284 -208.6696483 255.29892181 C-208.67942002 247.6331335 -208.67819915 239.96739671 -208.66821207 232.30160884 C-208.66283585 227.93978125 -208.66205859 223.57809505 -208.67472079 219.21627935 C-208.72074315 202.31927601 -208.69578926 185.76280033 -205.29439247 169.12880117 C-205.0854741 168.07293268 -204.87655573 167.0170642 -204.6613065 165.9291997 C-204.18494331 163.61978577 -203.64148531 161.34716489 -203.04439247 159.06630117 C-202.83459754 158.25233876 -202.62480262 157.43837636 -202.40865028 156.59974843 C-195.22378953 129.70317558 -182.62546517 104.88046843 -165.29439247 83.12880117 C-164.51064247 82.14009023 -163.72689247 81.15137929 -162.91939247 80.13270742 C-125.52872101 33.99814743 -71.53738293 6.78579666 -12.83373127 0.34699468 C-8.55614433 -0.02055837 -4.29084897 -0.00948794 0 0 Z " fill="#191919" transform="translate(411.2943924665451,406.87119883298874)"/>
<path d="M0 0 C1.46993215 -0.00187161 2.93986381 -0.00417369 4.40979469 -0.00686532 C8.42248901 -0.01294661 12.43516237 -0.01285408 16.44786024 -0.01167095 C20.7861408 -0.011466 25.1244148 -0.01699461 29.46269226 -0.02172852 C37.95260488 -0.03001562 46.44251056 -0.03278248 54.93242688 -0.03334089 C61.83800763 -0.03381701 68.74358609 -0.03587651 75.64916611 -0.03904152 C95.253559 -0.04784305 114.85794644 -0.05246172 134.46234132 -0.05171105 C135.51801301 -0.05167109 136.5736847 -0.05163113 137.66134644 -0.05158997 C138.71831611 -0.05154909 139.77528579 -0.0515082 140.86428486 -0.05146609 C157.98517223 -0.05105983 175.10603759 -0.06062551 192.22691859 -0.07472833 C209.83181368 -0.08911472 227.43669804 -0.09599726 245.04159915 -0.09513456 C254.91519468 -0.09480335 264.78876712 -0.09751674 274.66235733 -0.10831261 C283.07032582 -0.11744746 291.47826077 -0.11956847 299.88623209 -0.11280318 C304.16985171 -0.1095529 308.4534071 -0.1094269 312.73702049 -0.11815643 C316.6702757 -0.12608899 320.60341647 -0.1245221 324.53666912 -0.1158723 C325.9478049 -0.11435202 327.35894951 -0.11609678 328.77007486 -0.12173238 C336.32887512 -0.14988285 343.75872251 0.17378966 351.26339531 1.03979015 C351.9546454 1.1194001 352.64589549 1.19901004 353.35809255 1.2810324 C360.23504716 2.14586298 366.69317459 3.89764181 373.23849487 6.13371277 C375.04060425 6.74859558 375.04060425 6.74859558 376.87911987 7.37590027 C391.62325143 12.83554731 404.1084532 21.04095767 415.23849487 32.13371277 C416.50886597 33.39441589 416.50886597 33.39441589 417.80490112 34.68058777 C440.50692312 57.56480898 450.58677684 86.11074672 450.50592041 118.21076965 C450.50966819 119.56978523 450.51427413 120.92879866 450.51965106 122.28780878 C450.53175736 125.98011029 450.53163541 129.67232037 450.5292623 133.36463714 C450.52885097 137.3634615 450.53992322 141.36225776 450.54937744 145.36106873 C450.56592023 153.17980866 450.57148393 160.99851842 450.5726022 168.81727441 C450.57355586 175.17928259 450.57768197 181.54128092 450.58400345 187.90328598 C450.60159741 205.98064803 450.6108452 224.05798643 450.6093425 242.1353571 C450.60922263 243.59416474 450.60922263 243.59416474 450.60910034 245.08244324 C450.60901858 246.05618288 450.60893682 247.02992253 450.60885258 248.03316943 C450.60804017 263.80360024 450.62717124 279.57393544 450.65537708 295.34433861 C450.68417718 311.57638331 450.69791346 327.80838149 450.69618952 344.04045236 C450.69552809 353.13779963 450.70091179 362.23504665 450.72254562 371.33237076 C450.74085151 379.07925864 450.74502818 386.82600082 450.73152678 394.57290109 C450.72504423 398.51674705 450.72470659 402.46031426 450.74223328 406.40413284 C450.83446244 428.56822119 449.78322805 448.79831388 440.23849487 469.13371277 C439.96054077 469.73989441 439.68258667 470.34607605 439.39620972 470.97062683 C427.01456024 497.57963751 403.53760927 517.98672257 376.40646362 528.71183777 C360.05679947 534.49254969 344.08307408 535.57114089 326.89083862 535.42668152 C324.89731672 535.42106975 322.90379062 535.41680715 320.91026306 535.41381836 C315.72359309 535.40249387 310.53718474 535.37313706 305.35061646 535.33970642 C299.09530797 535.30326633 292.83991084 535.28978522 286.58452606 535.2723465 C277.13566837 535.24348945 267.68738201 535.18591656 258.23849487 535.13371277 C258.23849487 509.06371277 258.23849487 482.99371277 258.23849487 456.13371277 C296.55099487 455.75871277 296.55099487 455.75871277 308.58737183 455.65568542 C312.19037549 455.61571551 312.19037549 455.61571551 315.79335022 455.57325745 C317.38116583 455.55572992 318.96902465 455.54185703 320.55690002 455.53102112 C341.26125223 455.58775022 341.26125223 455.58775022 359.27755737 446.37980652 C368.99540371 436.14505346 369.38975514 423.94869799 369.37220764 410.59715271 C369.3744732 409.33303173 369.37673875 408.06891075 369.37907296 406.76648307 C369.38517422 403.2690408 369.38505935 399.77162249 369.38387859 396.27417612 C369.38367416 392.49763529 369.38919741 388.72110208 369.39393616 384.94456482 C369.40223419 377.54966812 369.40499062 370.15477939 369.40554854 362.75987843 C369.40602412 356.7470757 369.40808098 350.73427559 369.41124916 344.72147369 C369.4200536 327.66391789 369.42466889 310.60636837 369.42391869 293.54881027 C369.42387873 292.62968942 369.42383877 291.71056858 369.42379761 290.76359558 C369.42375673 289.84334893 369.42371585 288.92310227 369.42367373 287.97496936 C369.42326737 273.06455821 369.43283496 258.15417233 369.44693597 243.24376848 C369.46130957 227.92391384 369.46820561 212.60407152 369.4673422 197.28420997 C369.46701056 188.68730334 369.46974317 180.09042319 369.48052025 171.49352264 C369.48963821 164.17333676 369.49178988 156.85318937 369.48501083 149.53300026 C369.4817521 145.80102086 369.48166545 142.06911526 369.49036407 138.33714294 C369.49971355 134.28410894 369.49343613 130.23124485 369.48573303 126.1782074 C369.49344838 124.42414058 369.49344838 124.42414058 369.50131959 122.63463807 C369.44761474 109.81873997 367.85351884 99.09948821 359.05099487 89.32121277 C352.31337938 82.96691895 343.16456852 81.01286561 334.15946102 81.002285 C332.93075092 80.99844386 331.70204082 80.99460271 330.43609709 80.99064517 C329.07562818 80.99142536 327.71515933 80.99230414 326.35469055 80.99327087 C324.90699706 80.99068638 323.45930427 80.98767299 322.01161247 80.98426747 C318.03271902 80.9762039 314.05384361 80.97440826 310.07494295 80.97367001 C305.78368609 80.9718183 301.49243858 80.9642703 297.20118713 80.95753479 C287.81668054 80.94395482 278.43217823 80.93792708 269.04766345 80.93352413 C263.18620955 80.93076076 257.3247573 80.9265232 251.46330452 80.92201996 C235.23029782 80.90982701 218.99729245 80.89952822 202.76428127 80.89614487 C201.72537646 80.8959253 200.68647165 80.89570573 199.61608488 80.89547952 C198.05402136 80.8951521 198.05402136 80.8951521 196.460401 80.89481807 C194.3502181 80.8943746 192.2400352 80.89392804 190.12985229 80.89347839 C189.08313113 80.89325696 188.03640996 80.89303553 186.95796997 80.89280739 C170.00467586 80.88886102 153.05142477 80.87141201 136.09814727 80.84811887 C118.68669825 80.82438965 101.2752708 80.81194228 83.86380535 80.81077695 C74.0903111 80.809861 64.31687288 80.80412887 54.54339409 80.78595734 C46.21930177 80.77053506 37.8952828 80.76544838 29.57117891 80.77369544 C25.32666874 80.7775946 21.08230621 80.77670836 16.83781433 80.76263809 C12.94586049 80.7498549 9.05416454 80.75113516 5.16221083 80.7632288 C3.76040391 80.7651782 2.35857845 80.76214266 0.95679753 80.75338444 C-11.22402864 80.68214848 -22.57606328 81.41931922 -31.76150513 90.13371277 C-39.0915674 97.46377504 -41.20461236 105.71155051 -41.29181665 115.83648306 C-41.27740914 117.66874627 -41.27740914 117.66874627 -41.26271057 119.5380249 C-41.26661011 120.87255775 -41.27225576 122.20708643 -41.27948147 123.54160541 C-41.2941605 127.18449469 -41.28410043 130.82694837 -41.26974475 134.46982324 C-41.25859563 138.40784609 -41.2705905 142.34580979 -41.27958679 146.28382874 C-41.29349414 153.98851903 -41.28598182 161.69304502 -41.27091121 169.39772744 C-41.25402105 178.37551778 -41.25726513 187.35326754 -41.26100529 196.33106887 C-41.2668792 212.35214932 -41.25273028 228.37315109 -41.22805786 244.39421082 C-41.20413447 259.93069914 -41.19705577 275.46708238 -41.20755005 291.00358582 C-41.21896568 307.93439864 -41.22088165 324.8651629 -41.20645195 341.79597515 C-41.20492616 343.60212163 -41.2034058 345.40826811 -41.20189095 347.2144146 C-41.20075422 348.54730159 -41.20075422 348.54730159 -41.19959454 349.9071156 C-41.19485702 356.16125502 -41.19669935 362.41537271 -41.20095634 368.6695118 C-41.20588877 376.29310682 -41.19987286 383.91660258 -41.18006205 391.54017491 C-41.17020736 395.42789357 -41.16506519 399.31546128 -41.17295456 403.20318794 C-41.18133865 407.42106254 -41.16639874 411.63853652 -41.14918518 415.85638428 C-41.15519523 417.08012381 -41.16120527 418.30386334 -41.16739744 419.56468588 C-41.08393696 430.80710102 -38.72118935 438.96790127 -30.76150513 447.13371277 C-21.82258034 454.22618012 -11.76813442 455.24799474 -0.69314575 455.33903503 C0.08096901 455.34906775 0.85508377 455.35910048 1.65265656 455.36943722 C4.12915677 455.4005237 6.60567316 455.42546855 9.08224487 455.45011902 C10.62293992 455.46855009 12.16363015 455.48738818 13.70431519 455.50663757 C19.38231819 455.57474992 25.06041312 455.63501668 30.73849487 455.69621277 C43.44349487 455.84058777 56.14849487 455.98496277 69.23849487 456.13371277 C69.23849487 482.20371277 69.23849487 508.27371277 69.23849487 535.13371277 C47.61984664 535.29414801 47.61984664 535.29414801 38.271698 535.32902527 C31.93928303 535.35276464 25.60710342 535.38057863 19.27487183 535.43547058 C14.15898787 535.47953142 9.04335693 535.50297426 3.92729759 535.51322174 C1.99364435 535.52050674 0.06000198 535.53472518 -1.87354088 535.556633 C-18.916387 535.74172449 -36.37203503 534.30427257 -52.19900513 527.44621277 C-53.01554565 527.10517517 -53.83208618 526.76413757 -54.67337036 526.4127655 C-82.59297604 514.33208782 -104.03052646 491.1510824 -115.53445435 463.25968933 C-123.31568334 443.49400164 -123.20660362 423.19100255 -123.15367913 402.29534674 C-123.14681807 398.27894458 -123.15740429 394.26257974 -123.1656189 390.2461853 C-123.17888333 382.40257566 -123.17611148 374.55905267 -123.16738097 366.71543978 C-123.16057687 360.33585085 -123.15969942 353.95628602 -123.16295242 347.57669449 C-123.16341212 346.6651083 -123.16387182 345.75352212 -123.16434545 344.81431211 C-123.16530472 342.96186441 -123.16627737 341.10941673 -123.16726322 339.25696905 C-123.1757955 321.93134022 -123.16601655 304.6057592 -123.14986213 287.28013821 C-123.13645639 272.44354541 -123.13879335 257.60702305 -123.15261841 242.77043152 C-123.16870475 225.49926618 -123.17497647 208.2281426 -123.16578162 190.95697081 C-123.16482607 189.11234705 -123.16388295 187.26772329 -123.16295242 185.42309952 C-123.1624896 184.51574019 -123.16202677 183.60838087 -123.16154992 182.6735258 C-123.15896952 176.3073634 -123.16331034 169.94122769 -123.17039108 163.57506943 C-123.17884012 155.80877802 -123.17645467 148.04257748 -123.16054885 140.27629636 C-123.15271235 136.32081783 -123.14949477 132.36549031 -123.15949631 128.4100132 C-123.23574281 95.46988701 -118.34594783 67.1553754 -96.76150513 41.13371277 C-96.04220825 40.26230652 -95.32291138 39.39090027 -94.58181763 38.49308777 C-75.12326887 15.91840131 -47.40105328 2.90734073 -17.96162248 0.33966005 C-11.97855589 -0.04538717 -5.99296049 -0.00729611 0 0 Z " fill="#191919" transform="translate(1407.7615051269531,652.8662872314453)"/>
<path d="M0 0 C2.60016897 -0.0034601 5.20033647 -0.00822703 7.80050093 -0.01418173 C13.43565198 -0.02496741 19.07071666 -0.02471871 24.70587158 -0.01704025 C33.08584274 -0.00565296 41.46574156 -0.01151464 49.84571229 -0.02066517 C64.81601524 -0.03643448 79.7862797 -0.03510432 94.75658628 -0.02642844 C107.85820115 -0.0188731 120.95980193 -0.0169157 134.06141853 -0.02049637 C134.93146391 -0.02072552 135.8015093 -0.02095468 136.69791969 -0.02119078 C140.22998693 -0.02212484 143.76205417 -0.02308005 147.2941214 -0.02407007 C180.40906663 -0.03324136 213.52398739 -0.02493589 246.63892884 -0.00877938 C276.03880442 0.00545554 305.438641 0.00418394 334.83851624 -0.01016235 C367.89251334 -0.02623796 400.94648883 -0.0325896 434.00048929 -0.02332556 C437.52632272 -0.02236346 441.05215615 -0.02142493 444.57798958 -0.02049637 C445.88015237 -0.02014052 445.88015237 -0.02014052 447.20862148 -0.01977748 C460.29907979 -0.01636978 473.38952243 -0.02034713 486.47997856 -0.02793503 C501.37008779 -0.03652322 516.26015261 -0.03434617 531.15025633 -0.0180928 C539.4764736 -0.00930326 547.80259464 -0.00868087 556.12880935 -0.02003132 C562.35469 -0.02758015 568.58045796 -0.01935474 574.80632479 -0.0051076 C577.31825601 -0.0017664 579.83020017 -0.0034389 582.34212302 -0.01073496 C604.90131135 -0.07121497 622.90724867 0.74634966 640.13661194 17.06454468 C654.50177247 31.85367697 657.87659315 48.13890589 657.78504944 68.19735718 C657.78707724 69.78670891 657.7899945 71.37605973 657.79374695 72.96540833 C657.79813589 76.27417988 657.79185043 79.58270624 657.77772522 82.89144897 C657.76062115 87.09945696 657.770504 91.30689116 657.78844261 95.51487827 C657.79936206 98.78974106 657.79579728 102.06447119 657.78805923 105.3393383 C657.78608042 106.88963835 657.78843338 108.43995107 657.79549789 109.99023628 C657.8611617 128.43869602 653.65589538 144.81476441 640.38661194 158.38095093 C626.35494258 170.22081208 611.83923567 174.54480845 593.72544003 174.51237869 C592.65788204 174.51443133 591.59032406 174.51648396 590.49041584 174.51859879 C586.90086625 174.5242687 583.31135504 174.52281155 579.72180176 174.52139282 C577.12711339 174.52397646 574.53242542 174.52698962 571.937738 174.53039622 C565.54661933 174.53796786 559.15550901 174.54016886 552.76438632 174.54072528 C545.10866793 174.54163974 537.45295723 174.54830974 529.79724216 174.5550721 C511.29443372 174.57112586 492.79162612 174.57703464 474.28881197 174.58182085 C465.53449456 174.58415738 456.7801778 174.58776009 448.0258609 174.59151623 C418.05446233 174.60435107 388.08306412 174.6150704 358.11166286 174.61851883 C356.2305241 174.61874046 354.34938534 174.61896225 352.46824658 174.61918418 C350.58258587 174.61940482 348.69692516 174.6196253 346.81126446 174.61984563 C343.02835619 174.62028818 339.24544793 174.6207353 335.46253967 174.6211853 C334.52459961 174.62129469 333.58665954 174.62140408 332.62029705 174.62151679 C302.20878438 174.62514728 271.79729554 174.64106736 241.385792 174.66437567 C209.22716678 174.68897792 177.06855518 174.70269185 144.90992028 174.70388675 C141.37894284 174.7040582 137.84796542 174.70427363 134.31698799 174.70452118 C133.44757261 174.70457695 132.57815724 174.70463272 131.68239594 174.70469018 C117.69805486 174.70584026 103.71373826 174.71685862 89.72940545 174.73140823 C75.67028508 174.7457826 61.61119607 174.7490049 47.55207037 174.74096826 C39.2032504 174.73651648 30.85453173 174.74035451 22.50572509 174.75620676 C16.26624787 174.7671243 10.02687476 174.7623016 3.78739954 174.75143489 C1.26718656 174.74947531 -1.25303658 174.75256833 -3.77323527 174.76127926 C-26.63805918 174.83529451 -45.41738568 172.87732152 -62.73448181 156.35751343 C-74.8373002 143.6827282 -78.05067046 128.76903424 -78.19541931 111.83798218 C-78.21741662 110.34119805 -78.24035912 108.84442755 -78.26419067 107.34767151 C-78.31081487 104.22200365 -78.34754343 101.09642785 -78.3768158 97.97055054 C-78.41449583 94.00806956 -78.4745507 90.04632296 -78.54193592 86.08424854 C-78.59231066 82.99468172 -78.63164556 79.90504616 -78.66777611 76.81528282 C-78.68587824 75.35673622 -78.70695549 73.8982228 -78.73134804 72.43976784 C-79.05253696 52.11429695 -76.46861105 33.33810169 -62.17588806 17.71688843 C-43.85831794 0.09155207 -23.91139642 -0.06938521 0 0 Z " fill="#191919" transform="translate(510.61338806152344,652.6190490722656)"/>
<path d="M0 0 C17.9155963 16.92885089 28.81687298 42.25990735 29.89233398 66.82446289 C30.2386614 80.19649055 30.21723688 93.02112493 26.76953125 106.01953125 C26.60324219 106.67034668 26.43695312 107.32116211 26.265625 107.99169922 C22.01067224 124.32205031 14.20498831 138.56799966 2.76953125 151.01953125 C1.77953125 151.34953125 0.78953125 151.67953125 -0.23046875 152.01953125 C-0.56046875 153.00953125 -0.89046875 153.99953125 -1.23046875 155.01953125 C-20.75413574 173.08998031 -45.15982498 177.95916559 -71.06933594 177.203125 C-82.39727661 176.54521556 -93.26105793 173.43669968 -103.23046875 168.01953125 C-104.19082031 167.52839844 -105.15117188 167.03726562 -106.140625 166.53125 C-127.06803387 155.21694766 -142.2846326 134.56869219 -149.23046875 112.01953125 C-151.91286146 102.14859792 -153.88085134 92.2648415 -154.23046875 82.01953125 C-154.27042969 81.25382812 -154.31039062 80.488125 -154.3515625 79.69921875 C-155.12592294 52.82435636 -146.55216884 26.567135 -129.23046875 6.01953125 C-128.27140625 4.77236328 -128.27140625 4.77236328 -127.29296875 3.5 C-114.07633868 -12.39500018 -91.5918002 -21.82657691 -71.4296875 -23.85546875 C-43.96771396 -25.41636245 -20.57211994 -18.26631316 0 0 Z " fill="#191919" transform="translate(862.23046875,1227.98046875)"/>
<path d="M0 0 C3.63106061 3.01408075 6.95310317 6.2798184 10.24609375 9.65673828 C10.97183594 10.37345703 11.69757813 11.09017578 12.4453125 11.82861328 C32.72118779 33.02068725 37.80960504 62.15952136 37.52734375 90.39111328 C36.84542699 116.50852503 26.32665712 140.47700849 8.56640625 159.53173828 C6.24609375 161.65673828 6.24609375 161.65673828 4.24609375 161.65673828 C4.24609375 162.31673828 4.24609375 162.97673828 4.24609375 163.65673828 C2.38261493 165.18168003 0.54223785 166.55299163 -1.44140625 167.90673828 C-2.02865479 168.30787842 -2.61590332 168.70901855 -3.22094727 169.12231445 C-24.26650823 183.13116084 -50.10242581 186.90727769 -74.81640625 182.59423828 C-98.10422982 176.98937227 -117.76058422 162.4602191 -130.80859375 142.51611328 C-134.56712843 136.3038937 -137.59980864 130.05060033 -140.06640625 123.21923828 C-140.41179443 122.27359009 -140.41179443 122.27359009 -140.76416016 121.30883789 C-144.96502651 108.93277123 -146.34031284 96.53317611 -146.25390625 83.53173828 C-146.25214386 82.81639923 -146.25038147 82.10106018 -146.24856567 81.36404419 C-146.09628718 53.49010536 -137.16741323 28.95113738 -117.75390625 8.65673828 C-117.12871094 7.95677734 -116.50351562 7.25681641 -115.859375 6.53564453 C-87.25153314 -24.36082468 -32.37163074 -24.79241541 0 0 Z " fill="#191919" transform="translate(578.75390625,1221.34326171875)"/>
<path d="M0 0 C1.49853516 0.38285156 1.49853516 0.38285156 3.02734375 0.7734375 C17.55423042 5.02425803 29.54846272 13.26683447 40 24 C40.73734375 24.73992188 41.4746875 25.47984375 42.234375 26.2421875 C63.02710701 48.24379928 67.8301985 77.87664372 67.13183594 106.94921875 C66.04567888 132.08369761 55.69970641 155.35450402 38 173 C37.39542969 173.66386719 36.79085937 174.32773438 36.16796875 175.01171875 C22.36139895 189.96043787 0.5620955 197.2541562 -19.40234375 198.3828125 C-45.51697124 199.22713893 -69.04354217 191.18883162 -88.25 173.25 C-107.81477465 152.38649298 -117.56290261 124.36120261 -117.15234375 95.94140625 C-115.67367089 67.39164555 -106.67028317 39.47723643 -85.39794922 19.49511719 C-72.43518547 7.94626412 -57.9520273 1.32650647 -41 -2 C-40.05253906 -2.19207031 -39.10507812 -2.38414062 -38.12890625 -2.58203125 C-25.34637752 -4.28956006 -12.42080386 -3.31029535 0 0 Z " fill="#191919" transform="translate(825,918)"/>
<path d="M0 0 C19.70607617 17.89325145 30.61819741 43.47330895 32.16845703 69.86816406 C33.31108045 99.38513901 26.89181349 127.86018906 7.1796875 150.67578125 C3.98647998 154.08072475 0.68754261 157.13885583 -3 160 C-3.73605469 160.57234375 -4.47210937 161.1446875 -5.23046875 161.734375 C-26.09556893 177.11940808 -50.17581353 181.58839658 -75.64794922 178.69970703 C-98.4299201 174.98087835 -117.93040528 162.12594964 -132 144 C-150.02148769 118.09411144 -155.36611275 86.85169965 -150 56 C-146.44651455 37.96669439 -138.81559658 21.99541314 -127 8 C-126.21625 6.96875 -125.4325 5.9375 -124.625 4.875 C-92.91426673 -29.85580311 -34.44846058 -30.83638898 0 0 Z " fill="#191919" transform="translate(1136,1226)"/>
<path d="M0 0 C1.49853516 0.38285156 1.49853516 0.38285156 3.02734375 0.7734375 C17.55423042 5.02425803 29.54846272 13.26683447 40 24 C40.73734375 24.73992188 41.4746875 25.47984375 42.234375 26.2421875 C60.45390055 45.5209878 67.43373011 71.82101875 67.3125 97.75 C67.30831055 98.97847656 67.30412109 100.20695313 67.29980469 101.47265625 C67.18571744 110.66760295 66.41954177 119.11787265 64 128 C63.73316406 129.010625 63.46632813 130.02125 63.19140625 131.0625 C59.25594471 144.21568701 52.51278475 156.29396503 44 167 C42.8553125 168.546875 42.8553125 168.546875 41.6875 170.125 C26.21726444 186.67455432 4.79149205 197.39511903 -17.984375 198.23828125 C-41.38644868 198.69227537 -62.60893332 194.24973542 -81 179 C-81.85078125 178.31164063 -82.7015625 177.62328125 -83.578125 176.9140625 C-102.22006196 161.07413447 -113.31592999 137.09562851 -116 113 C-116.1340625 111.83726563 -116.268125 110.67453125 -116.40625 109.4765625 C-118.96426445 80.81517331 -112.36293223 51.57674194 -94 29 C-93.52175781 28.3709375 -93.04351562 27.741875 -92.55078125 27.09375 C-80.75406309 12.22109673 -63.83455112 3.97057166 -46 -1 C-44.56914062 -1.4021875 -44.56914062 -1.4021875 -43.109375 -1.8125 C-29.14130024 -4.97508297 -13.69943989 -3.65106741 0 0 Z " fill="#191919" transform="translate(549,918)"/>
<path d="M0 0 C21.90938032 18.32827843 34.71828623 43.1782265 37.26757812 71.64257812 C39.14047504 102.26037123 32.58444898 131.60765133 11.90380859 155.19824219 C-2.76045205 171.46947609 -23.88951053 182.40090898 -45.97192383 183.78271484 C-71.85788759 184.7884322 -94.98806714 179.00977967 -114.73242188 161.64257812 C-115.85003906 160.67384766 -115.85003906 160.67384766 -116.99023438 159.68554688 C-136.74702884 141.28461086 -145.33097258 113.78167687 -146.60913086 87.54125977 C-147.56887988 58.91096277 -139.01898902 32.05924247 -120.29492188 10.33007812 C-89.97497911 -22.08813057 -35.52986236 -27.83906916 0 0 Z " fill="#191919" transform="translate(1130.732421875,932.357421875)"/>
<path d="M0 0 C0.66 0.33 1.32 0.66 2 1 C-3.61 6.61 -9.22 12.22 -15 18 C-15 13.07254925 -11.31913617 10.39978807 -8 7 C-5.39491779 4.58973264 -2.72918126 2.2684104 0 0 Z " fill="#0E0E0E" transform="translate(469,933)"/>
<path d="M0 0 C0.66 0.33 1.32 0.66 2 1 C-3.28 6.28 -8.56 11.56 -14 17 C-14 12.08113186 -10.31173311 9.3948461 -7 6 C-4.72300284 3.91201998 -2.39497582 1.9550823 0 0 Z " fill="#0F0F0F" transform="translate(1021,1222)"/>
</svg>
